<svg width="472" height="448" viewBox="0 0 472 448" fill="none" xmlns="http://www.w3.org/2000/svg">
<circle cx="148.614" cy="278.089" r="115.114" fill="#4AC7D3" stroke="black"/>
<path d="M405.017 8.55572C405.033 12.4752 408.232 15.8917 412.396 15.8747C416.316 15.8587 419.732 12.6601 419.715 8.49562C419.699 4.57614 416.5 1.15963 412.336 1.17666C408.171 1.19369 405 4.39128 405.017 8.55572Z" stroke="#BD80FF" stroke-miterlimit="10" stroke-linejoin="round"/>
<path d="M107.589 221.425L111.028 223.86L114.448 221.397L112.012 224.836L114.476 228.256L111.036 225.82L107.617 228.284L110.053 224.844L107.589 221.425Z" fill="#BD80FF"/>
<path d="M344.901 50.4533L345.611 54.6077L349.771 55.2836L345.616 55.9934L344.94 60.1535L344.23 55.9991L340.07 55.3232L344.225 54.6133L344.901 50.4533Z" fill="#BD80FF"/>
<path d="M0.684624 150.72L6.55981 149.716L7.51562 143.833L8.51955 149.708L14.1578 150.665L8.52757 151.668L7.57072 157.306L6.56782 151.676L0.684624 150.72Z" fill="#BD80FF" stroke="#BD80FF" stroke-miterlimit="10" stroke-linejoin="round"/>
<path d="M26.0293 401.245L28.5371 400.779C30.7031 400.428 32.4072 398.71 32.7406 396.541L33.1866 394.029L33.6531 396.537C34.0042 398.703 35.7224 400.407 37.8912 400.741L40.4027 401.187L37.8949 401.653C35.7289 402.004 34.0248 403.722 33.6914 405.891L33.2454 408.403L32.7788 405.895C32.4277 403.729 30.7096 402.025 28.5408 401.692L26.0293 401.245Z" fill="#BD80FF" stroke="black" stroke-miterlimit="10" stroke-linejoin="round"/>
<path d="M160.023 43.5579C160.039 47.4773 163.238 50.8938 167.402 50.8768C171.566 50.8598 174.738 47.6622 174.721 43.4978C174.704 39.3333 171.506 36.1618 167.342 36.1788C163.177 36.1958 160.007 39.6384 160.023 43.5579Z" stroke="#BD80FF" stroke-miterlimit="10" stroke-linejoin="round"/>
<path d="M330.393 367L331.952 375.834L340.786 377.393L331.952 378.952L330.393 387.786L328.834 378.952L320 377.394L328.834 375.834L330.393 367Z" fill="#BD80FF"/>
<path d="M85.676 118.514L87.2353 127.348L96.0696 128.907L87.2355 130.466L85.6768 139.3L84.1175 130.466L75.2833 128.907L84.1174 127.348L85.676 118.514Z" fill="#BD80FF"/>
<path d="M286.404 1.69164L290.991 4.87432L295.551 1.65424L292.368 6.24072L295.588 10.801L291.002 7.61836L286.442 10.8384L289.624 6.25194L286.404 1.69164Z" fill="#BD80FF"/>
<path d="M140.241 356.172C140.255 359.601 142.959 362.04 146.144 362.027C149.574 362.013 152.012 359.308 151.999 356.123C151.985 352.694 149.28 350.255 146.096 350.268C142.911 350.281 140.228 352.987 140.241 356.172Z" stroke="#BD80FF" stroke-miterlimit="10" stroke-linejoin="round"/>
<path d="M347.035 179.149C347.042 180.864 348.272 182.084 349.987 182.077C351.702 182.07 352.921 180.84 352.914 179.125C352.907 177.41 351.678 176.19 349.963 176.197C348.492 175.958 347.028 177.434 347.035 179.149Z" stroke="#BD80FF" stroke-miterlimit="10" stroke-linejoin="round"/>
<path d="M278.753 315.658L285.503 319.997L292.218 315.603L287.513 321.991L292.27 328.34L285.52 324.001L278.805 328.395L283.51 322.007L278.753 315.658Z" fill="#BD80FF"/>
<path d="M402.411 300.041C402.425 303.471 405.13 305.909 408.314 305.896C411.744 305.882 414.182 303.178 414.169 299.993C414.155 296.564 411.451 294.125 408.266 294.138C405.082 294.151 402.398 296.857 402.411 300.041Z" stroke="#BD80FF" stroke-miterlimit="10" stroke-linejoin="round"/>
<path d="M450.918 170.221L454.228 169.605C457.088 169.141 459.337 166.873 459.777 164.011L460.366 160.695L460.982 164.006C461.445 166.865 463.713 169.114 466.576 169.554L469.891 170.143L466.581 170.759C463.722 171.222 461.472 173.49 461.032 176.353L460.443 179.668L459.828 176.358C459.364 173.499 457.096 171.249 454.233 170.809L450.918 170.221Z" fill="#BD80FF" stroke="black" stroke-miterlimit="10" stroke-linejoin="round"/>
<path d="M204.3 429.531L210.406 428.395C215.681 427.54 219.83 423.356 220.642 418.075L221.728 411.96L222.864 418.066C223.719 423.34 227.903 427.49 233.184 428.302L239.299 429.388L233.193 430.524C227.919 431.379 223.769 435.562 222.957 440.844L221.871 446.959L220.735 440.853C219.88 435.578 215.697 431.429 210.415 430.617L204.3 429.531Z" fill="#BD80FF" stroke="black" stroke-miterlimit="10" stroke-linejoin="round"/>
<path d="M372.973 343.375H114.688C107.486 343.375 101.66 337.549 101.66 330.347V144.506C101.66 137.304 107.486 131.479 114.688 131.479H372.973C380.175 131.479 386 137.304 386 144.506V330.347C385.964 337.549 380.139 343.375 372.973 343.375Z" fill="white" stroke="#231F20" stroke-miterlimit="10"/>
<path d="M372.973 335.258H114.688C107.486 335.258 101.66 329.433 101.66 322.231V136.39C101.66 129.188 107.486 123.362 114.688 123.362H372.973C380.175 123.362 386 129.188 386 136.39V322.231C385.964 329.397 380.139 335.258 372.973 335.258Z" fill="white" stroke="#231F20" stroke-miterlimit="10"/>
<path d="M372.973 327.1H114.688C107.486 327.1 101.661 321.274 101.661 314.072V128.267C101.661 121.065 107.486 115.24 114.688 115.24H372.973C380.175 115.24 386 121.065 386 128.267V314.108C385.965 321.274 380.139 327.1 372.973 327.1Z" fill="white" stroke="#231F20" stroke-miterlimit="10"/>
<path d="M372.973 115.24H114.688C107.486 115.24 101.661 121.065 101.661 128.267V157.428H386V128.267C385.965 121.065 380.139 115.24 372.973 115.24Z" fill="#FFAE1F" stroke="#231F20" stroke-miterlimit="10"/>
<path d="M166.605 170.774H125.653V211.727H166.605V170.774Z" fill="white" stroke="#231F20" stroke-miterlimit="10"/>
<path d="M215.439 170.773H174.486V211.726H215.439V170.773Z" fill="white" stroke="#231F20" stroke-miterlimit="10"/>
<path d="M264.279 170.773H223.326V211.726H264.279V170.773Z" fill="white" stroke="#231F20" stroke-miterlimit="10"/>
<path d="M313.111 170.773H272.158V211.726H313.111V170.773Z" fill="white" stroke="#231F20" stroke-miterlimit="10"/>
<path d="M361.967 170.773H321.014V211.726H361.967V170.773Z" fill="white" stroke="#231F20" stroke-miterlimit="10"/>
<path d="M166.605 220.271H125.653V261.223H166.605V220.271Z" fill="white" stroke="#231F20" stroke-miterlimit="10"/>
<path d="M215.439 220.27H174.486V261.223H215.439V220.27Z" fill="white" stroke="#231F20" stroke-miterlimit="10"/>
<path d="M264.279 220.27H223.326V261.223H264.279V220.27Z" fill="white" stroke="#231F20" stroke-miterlimit="10"/>
<path d="M313.111 220.27H272.158V261.223H313.111V220.27Z" fill="white" stroke="#231F20" stroke-miterlimit="10"/>
<path d="M361.967 220.27H321.014V261.223H361.967V220.27Z" fill="white" stroke="#231F20" stroke-miterlimit="10"/>
<path d="M166.605 269.731H125.653V310.684H166.605V269.731Z" fill="white" stroke="#231F20" stroke-miterlimit="10"/>
<path d="M215.439 269.73H174.486V310.683H215.439V269.73Z" fill="white" stroke="#231F20" stroke-miterlimit="10"/>
<path d="M264.279 269.731H223.326V310.683H264.279V269.731Z" fill="#FFAE1F" stroke="#231F20" stroke-miterlimit="10"/>
<path d="M313.111 269.73H272.158V310.683H313.111V269.73Z" fill="white" stroke="#231F20" stroke-miterlimit="10"/>
<path d="M361.967 269.73H321.014V310.683H361.967V269.73Z" fill="white" stroke="#231F20" stroke-miterlimit="10"/>
<path d="M130.07 129.082C128.022 129.082 126.398 127.423 126.398 125.411V102.675C126.398 100.627 128.057 99.003 130.07 99.003C132.117 99.003 133.741 100.662 133.741 102.675V125.375C133.777 127.423 132.117 129.082 130.07 129.082Z" fill="white" stroke="#231F20" stroke-miterlimit="10"/>
<path d="M155.351 129.079C153.304 129.079 151.68 127.42 151.68 125.408V102.672C151.68 100.624 153.339 99 155.351 99C157.399 99 159.023 100.659 159.023 102.672V125.372C159.023 127.42 157.399 129.079 155.351 129.079Z" fill="white" stroke="#231F20" stroke-miterlimit="10"/>
<path d="M180.629 129.079C178.582 129.079 176.958 127.42 176.958 125.408V102.672C176.958 100.624 178.617 99 180.629 99C182.677 99 184.301 100.659 184.301 102.672V125.372C184.301 127.42 182.677 129.079 180.629 129.079Z" fill="white" stroke="#231F20" stroke-miterlimit="10"/>
<path d="M205.902 129.079C203.855 129.079 202.231 127.42 202.231 125.408V102.672C202.231 100.624 203.89 99 205.902 99C207.95 99 209.574 100.659 209.574 102.672V125.372C209.574 127.42 207.915 129.079 205.902 129.079Z" fill="white" stroke="#231F20" stroke-miterlimit="10"/>
<path d="M231.193 129.079C229.146 129.079 227.522 127.42 227.522 125.408V102.672C227.522 100.624 229.181 99 231.193 99C233.241 99 234.865 100.659 234.865 102.672V125.372C234.865 127.42 233.206 129.079 231.193 129.079Z" fill="white" stroke="#231F20" stroke-miterlimit="10"/>
<path d="M256.449 129.079C254.401 129.079 252.777 127.42 252.777 125.408V102.672C252.777 100.624 254.437 99 256.449 99C258.496 99 260.12 100.659 260.12 102.672V125.372C260.12 127.42 258.461 129.079 256.449 129.079Z" fill="white" stroke="#231F20" stroke-miterlimit="10"/>
<path d="M281.734 129.079C279.686 129.079 278.062 127.42 278.062 125.408V102.672C278.062 100.624 279.721 99 281.734 99C283.781 99 285.405 100.659 285.405 102.672V125.372C285.405 127.42 283.746 129.079 281.734 129.079Z" fill="white" stroke="#231F20" stroke-miterlimit="10"/>
<path d="M307.002 129.079C304.954 129.079 303.33 127.42 303.33 125.408V102.672C303.33 100.624 304.99 99 307.002 99C309.05 99 310.674 100.659 310.674 102.672V125.372C310.709 127.42 309.05 129.079 307.002 129.079Z" fill="white" stroke="#231F20" stroke-miterlimit="10"/>
<path d="M332.271 129.079C330.224 129.079 328.6 127.42 328.6 125.408V102.672C328.6 100.624 330.259 99 332.271 99C334.319 99 335.943 100.659 335.943 102.672V125.372C335.978 127.42 334.319 129.079 332.271 129.079Z" fill="white" stroke="#231F20" stroke-miterlimit="10"/>
<path d="M357.525 129.079C355.477 129.079 353.853 127.42 353.853 125.408V102.672C353.853 100.624 355.513 99 357.525 99C359.573 99 361.197 100.659 361.197 102.672V125.372C361.197 127.42 359.573 129.079 357.525 129.079Z" fill="white" stroke="#231F20" stroke-miterlimit="10"/>
<path d="M187.871 143.343H299.75" stroke="#231F20" stroke-miterlimit="10"/>
<path d="M252.631 293.43C252.631 288.394 248.887 287.393 245.529 286.586V279.936C247.531 280.291 248.596 281.614 248.596 283.487H252.115C252.05 279.258 248.951 277.159 245.529 276.772V274.996H243.205V276.772C239.137 277.191 236.813 279.871 236.813 283.002C236.813 287.683 240.073 288.781 243.205 289.523V296.819C240.88 296.367 239.525 294.753 239.492 292.784H236.103C236.103 296.755 239.008 299.628 243.205 300.08V302.469H245.529V300.112C250.049 299.725 252.631 296.949 252.631 293.43ZM240.267 282.938C240.267 281.55 241.203 280.291 243.205 279.936V285.972C241.494 285.424 240.267 284.681 240.267 282.938ZM245.529 296.884V290.137C247.498 290.686 249.048 291.525 249.048 293.688C249.048 295.463 247.66 296.626 245.529 296.884Z" fill="black"/>
<path d="M251.586 305.317L292.715 336.808L274.746 339.738L285.831 362.262L276.511 366.569L265.319 344.045L251.586 356.296V305.317Z" fill="black"/>
</svg>
