<svg width="24" height="24" viewBox="0 0 24 24" fill="none" xmlns="http://www.w3.org/2000/svg">
<path d="M17.5556 2H4.22222C2.98889 2 2 3 2 4.22222V19.7778C2 21 2.98889 22 4.22222 22H19.7778C21 22 22 21 22 19.7778V6.44444L17.5556 2ZM19.7778 19.7778H4.22222V4.22222H16.6333L19.7778 7.36667V19.7778ZM12 12C10.1556 12 8.66667 13.4889 8.66667 15.3333C8.66667 17.1778 10.1556 18.6667 12 18.6667C13.8444 18.6667 15.3333 17.1778 15.3333 15.3333C15.3333 13.4889 13.8444 12 12 12ZM5.33333 5.33333H15.3333V9.77778H5.33333V5.33333Z" fill="white"/>
</svg>
