<svg width="517" height="488" viewBox="0 0 517 488" fill="none" xmlns="http://www.w3.org/2000/svg">
<circle cx="245.127" cy="199.127" r="120.627" fill="#F8BC20" stroke="black"/>
<path d="M509.097 405.91C505.177 405.91 501.748 409.095 501.748 413.259C501.748 417.179 504.932 420.608 509.097 420.608C513.016 420.608 516.446 417.424 516.446 413.259C516.446 409.095 513.261 405.91 509.097 405.91Z" stroke="#FFAE1F" stroke-miterlimit="10" stroke-linejoin="round"/>
<path d="M297.446 107.614L294.996 111.044L297.446 114.473L294.016 112.023L290.587 114.473L293.036 111.044L290.587 107.614L294.016 110.064L297.446 107.614Z" fill="#FFAE1F"/>
<path d="M441.5 480.32L439.051 483.749L441.5 487.179L438.071 484.729L434.641 487.179L437.091 483.749L434.641 480.32L438.071 482.769L441.5 480.32Z" fill="#FFAE1F"/>
<path d="M467.445 345.623L463.288 346.316L462.595 350.473L461.902 346.316L457.745 345.623L461.902 344.93L462.595 340.773L463.288 344.93L467.445 345.623Z" fill="#FFAE1F"/>
<path d="M9.69988 378.358L5.54262 379.051L4.84973 383.208L4.15687 379.051L-0.00041275 378.358L4.15687 377.665L4.84973 373.508L5.54262 377.665L9.69988 378.358Z" fill="#FFAE1F"/>
<path d="M368.587 0.999847L369.567 6.87909L375.446 7.85895L369.567 8.83885L368.587 14.4731L367.607 8.83885L361.973 7.85895L367.607 6.87909L368.587 0.999847Z" fill="#FFAE1F" stroke="#FFAE1F" stroke-miterlimit="10" stroke-linejoin="round"/>
<path d="M117.96 25.3198L118.416 27.8294C118.759 29.9969 120.47 31.708 122.637 32.0502L125.147 32.5065L122.637 32.9628C120.47 33.3051 118.759 35.0162 118.416 37.1836L117.96 39.6933L117.504 37.1836C117.162 35.0162 115.45 33.3051 113.283 32.9628L110.773 32.5065L113.283 32.0502C115.45 31.708 117.162 29.9969 117.504 27.8294L117.96 25.3198Z" fill="#FFAE1F" stroke="black" stroke-miterlimit="10" stroke-linejoin="round"/>
<path d="M475.097 160.775C471.177 160.775 467.748 163.96 467.748 168.124C467.748 172.289 470.932 175.473 475.097 175.473C479.261 175.473 482.446 172.289 482.446 168.124C482.446 163.96 479.016 160.775 475.097 160.775Z" stroke="#FFAE1F" stroke-miterlimit="10" stroke-linejoin="round"/>
<path d="M150.961 329.821L142.12 331.344L140.526 340.172L139.002 331.331L130.175 329.736L139.015 328.213L140.61 319.385L142.133 328.226L150.961 329.821Z" fill="#FFAE1F"/>
<path d="M400.446 86.1222L391.605 87.6453L390.01 96.4731L388.487 87.6327L379.659 86.038L388.5 84.5148L390.095 75.687L391.618 84.5274L400.446 86.1222Z" fill="#FFAE1F"/>
<path d="M516.446 287.326L513.244 291.9L516.446 296.473L511.872 293.272L507.299 296.473L510.5 291.9L507.299 287.326L511.872 290.528L516.446 287.326Z" fill="#FFAE1F"/>
<path d="M162.567 139.715C159.137 139.715 156.687 142.409 156.687 145.594C156.687 149.023 159.382 151.473 162.567 151.473C165.996 151.473 168.446 148.779 168.446 145.594C168.446 142.409 165.751 139.715 162.567 139.715Z" stroke="#FFAE1F" stroke-miterlimit="10" stroke-linejoin="round"/>
<path d="M338.742 347.231C337.027 347.231 335.802 348.456 335.802 350.171C335.802 351.886 337.027 353.11 338.742 353.11C340.457 353.11 341.682 351.886 341.682 350.171C341.927 348.701 340.457 347.231 338.742 347.231Z" stroke="#FFAE1F" stroke-miterlimit="10" stroke-linejoin="round"/>
<path d="M202.514 278.391L198.146 285.124L202.514 291.856L196.145 287.125L189.776 291.856L194.143 285.124L189.776 278.391L196.145 283.122L202.514 278.391Z" fill="#FFAE1F"/>
<path d="M217.624 402.112C214.195 402.112 211.745 404.807 211.745 407.991C211.745 411.421 214.44 413.871 217.624 413.871C221.054 413.871 223.504 411.176 223.504 407.991C223.504 404.807 220.809 402.112 217.624 402.112Z" stroke="#FFAE1F" stroke-miterlimit="10" stroke-linejoin="round"/>
<path d="M347.246 451.15L347.848 454.463C348.3 457.324 350.558 459.582 353.419 460.034L356.732 460.636L353.419 461.239C350.558 461.69 348.3 463.949 347.848 466.81L347.246 470.123L346.643 466.81C346.192 463.949 343.933 461.69 341.072 461.239L337.759 460.636L341.072 460.034C343.933 459.582 346.192 457.324 346.643 454.463L347.246 451.15Z" fill="#FFAE1F" stroke="black" stroke-miterlimit="10" stroke-linejoin="round"/>
<path d="M88.9459 203.473L90.0571 209.584C90.8904 214.862 95.057 219.029 100.335 219.862L106.446 220.973L100.335 222.084C95.057 222.918 90.8904 227.084 90.0571 232.362L88.9459 238.473L87.8348 232.362C87.0015 227.084 82.8348 222.918 77.5571 222.084L71.4459 220.973L77.5571 219.862C82.8348 219.029 87.0015 214.862 87.8348 209.584L88.9459 203.473Z" fill="#FFAE1F" stroke="black" stroke-miterlimit="10" stroke-linejoin="round"/>
<path d="M215.908 392.779V223.85C215.908 218.701 220.088 214.467 225.242 214.467H260.534C263.991 214.467 267.323 215.92 269.68 218.448L281.276 230.927C282.25 231.97 283.602 232.538 285.016 232.538H440.329V392.747H215.908V392.779Z" fill="white"/>
<path d="M260.525 215.29C263.762 215.29 266.905 216.649 269.105 219.05L280.701 231.529C281.801 232.73 283.373 233.393 285.007 233.393H439.534V392.022H216.684V232.161V231.782V223.852C216.684 219.113 220.518 215.259 225.232 215.259H260.525V215.29ZM260.525 213.71H225.232C219.638 213.71 215.113 218.26 215.113 223.883V231.813V232.192V393.602H441.106V231.782H285.007C283.813 231.782 282.681 231.276 281.864 230.392L270.268 217.912C267.722 215.227 264.202 213.71 260.525 213.71Z" fill="black"/>
<path d="M215.91 392.776L215.501 367.123L229.361 292.816C229.958 289.562 232.818 287.192 236.118 287.192H451.802C452.557 287.192 453.248 287.508 453.719 288.108C454.191 288.677 454.379 289.435 454.254 290.162L435.083 392.776H215.91Z" fill="black"/>
<path d="M451.799 288.016C452.302 288.016 452.773 288.237 453.119 288.648C453.433 289.027 453.59 289.564 453.496 290.069L434.451 392.02H216.661L216.253 367.22L230.112 293.007C230.646 290.133 233.16 288.016 236.083 288.016H451.799ZM451.799 286.436H236.083C232.406 286.436 229.232 289.058 228.572 292.723L214.681 367.093L215.121 393.6H435.74L455.005 290.354C455.382 288.3 453.842 286.436 451.799 286.436Z" fill="black"/>
<path d="M439.772 330.097H292.002V128.786H379.84L439.772 190.33V330.097Z" fill="white" stroke="black" stroke-miterlimit="10"/>
<path d="M440.098 190.331H379.852V129.767L440.098 190.331Z" fill="white" stroke="black" stroke-miterlimit="10" stroke-linejoin="round"/>
<path d="M313.739 210.738H414.62" stroke="black" stroke-miterlimit="10" stroke-linejoin="round"/>
<path d="M313.739 231.939H414.62" stroke="black" stroke-miterlimit="10" stroke-linejoin="round"/>
<path d="M313.739 253.138H414.62" stroke="black" stroke-miterlimit="10" stroke-linejoin="round"/>
<path d="M339.79 194.058C337.245 194.058 335.17 191.373 332.876 190.615C330.519 189.825 327.251 190.741 325.271 189.319C323.291 187.866 323.134 184.454 321.688 182.464C320.243 180.473 317.068 179.304 316.283 176.935C315.528 174.629 317.414 171.817 317.414 169.258C317.414 166.699 315.56 163.887 316.283 161.581C317.068 159.211 320.243 158.042 321.688 156.052C323.134 154.062 323.26 150.65 325.271 149.196C327.251 147.743 330.488 148.659 332.876 147.901C335.17 147.143 337.245 144.457 339.79 144.457C342.336 144.457 344.41 147.143 346.704 147.901C349.061 148.691 352.33 147.775 354.31 149.196C356.289 150.65 356.447 154.062 357.892 156.052C359.338 158.042 362.512 159.211 363.298 161.581C364.052 163.887 362.166 166.699 362.166 169.258C362.166 171.817 364.021 174.629 363.298 176.935C362.512 179.304 359.338 180.473 357.892 182.464C356.447 184.454 356.321 187.866 354.31 189.319C352.33 190.773 349.093 189.857 346.704 190.615C344.41 191.341 342.304 194.058 339.79 194.058Z" fill="#2AE21D"/>
<path d="M339.79 194.058C337.245 194.058 335.17 191.373 332.876 190.615C330.519 189.825 327.251 190.741 325.271 189.319C323.291 187.866 323.134 184.454 321.688 182.464C320.243 180.473 317.068 179.304 316.283 176.935C315.528 174.629 317.414 171.817 317.414 169.258C317.414 166.699 315.56 163.887 316.283 161.581C317.068 159.211 320.243 158.042 321.688 156.052C323.134 154.062 323.26 150.65 325.271 149.196C327.251 147.743 330.488 148.659 332.876 147.901C335.17 147.143 337.245 144.457 339.79 144.457C342.336 144.457 344.41 147.143 346.704 147.901C349.061 148.691 352.33 147.775 354.31 149.196C356.289 150.65 356.447 154.062 357.892 156.052C359.338 158.042 362.512 159.211 363.298 161.581C364.052 163.887 362.166 166.699 362.166 169.258C362.166 171.817 364.021 174.629 363.298 176.935C362.512 179.304 359.338 180.473 357.892 182.464C356.447 184.454 356.321 187.866 354.31 189.319C352.33 190.773 349.093 189.857 346.704 190.615C344.41 191.341 342.304 194.058 339.79 194.058Z" stroke="#231F20" stroke-miterlimit="10"/>
<path d="M339.804 185.085C348.517 185.085 355.581 177.985 355.581 169.225C355.581 160.466 348.517 153.366 339.804 153.366C331.091 153.366 324.028 160.466 324.028 169.225C324.028 177.985 331.091 185.085 339.804 185.085Z" fill="white" stroke="#231F20" stroke-miterlimit="10"/>
<path d="M216.044 392.781L236.251 284.479C236.848 281.225 239.708 278.855 243.008 278.855H458.694C459.448 278.855 460.139 279.171 460.611 279.772C461.082 280.34 461.271 281.099 461.145 281.825L440.434 392.812H216.044V392.781Z" fill="white"/>
<path d="M458.737 279.645C459.24 279.645 459.712 279.866 460.057 280.277C460.372 280.656 460.529 281.193 460.435 281.698L439.85 392.022H216.999L237.049 284.636C237.583 281.761 240.098 279.645 243.02 279.645H458.737ZM458.737 278.065H243.02C239.343 278.065 236.169 280.687 235.509 284.352L215.113 393.602H441.107L461.943 281.983C462.32 279.929 460.78 278.065 458.737 278.065Z" fill="black"/>
<path d="M228.133 224.608H259.78" stroke="black" stroke-miterlimit="10" stroke-linejoin="round"/>
<path d="M342.47 375.655C364.357 375.655 382.1 357.818 382.1 335.816C382.1 313.814 364.357 295.977 342.47 295.977C320.583 295.977 302.84 313.814 302.84 335.816C302.84 357.818 320.583 375.655 342.47 375.655Z" fill="#2AE21D" stroke="black" stroke-miterlimit="10"/>
<path d="M318.163 338.534L334.694 355.183L366.027 323.685" stroke="black" stroke-miterlimit="10"/>
<path d="M440.081 194.72V191.023H383.669V194.72H440.081Z" fill="black"/>
</svg>
