<svg width="518" height="447" viewBox="0 0 518 447" fill="none" xmlns="http://www.w3.org/2000/svg">
<circle cx="305.903" cy="128.617" r="113.411" fill="#E841FE" stroke="black"/>
<path d="M8.34028 81.2687C12.2598 81.2687 15.6894 78.0841 15.6894 73.9196C15.6894 70.0001 12.5048 66.5706 8.34028 66.5706C4.42078 66.5706 0.991211 69.7552 0.991211 73.9196C0.991211 78.0841 4.17581 81.2687 8.34028 81.2687Z" stroke="#2C71F0" stroke-miterlimit="10" stroke-linejoin="round"/>
<path d="M219.991 379.565L222.441 376.135L219.991 372.706L223.421 375.155L226.85 372.706L224.401 376.135L226.85 379.565L223.421 377.115L219.991 379.565Z" fill="#2C71F0"/>
<path d="M75.9368 6.85914L78.3865 3.42959L75.9368 0L79.3664 2.44969L82.796 0L80.3463 3.42959L82.796 6.85914L79.3664 4.40945L75.9368 6.85914Z" fill="#2C71F0"/>
<path d="M49.9917 141.556L54.1489 140.863L54.8418 136.706L55.5347 140.863L59.6919 141.556L55.5347 142.249L54.8418 146.406L54.1489 142.249L49.9917 141.556Z" fill="#2C71F0"/>
<path d="M507.737 108.821L511.895 108.128L512.587 103.971L513.28 108.128L517.438 108.821L513.28 109.514L512.587 113.671L511.895 109.514L507.737 108.821Z" fill="#2C71F0"/>
<path d="M110.178 343.944L109.722 341.434C109.379 339.267 107.668 337.556 105.501 337.214L102.991 336.757L105.501 336.301C107.668 335.959 109.379 334.248 109.722 332.08L110.178 329.571L110.634 332.08C110.976 334.248 112.688 335.959 114.855 336.301L117.365 336.757L114.855 337.214C112.688 337.556 110.976 339.267 110.634 341.434L110.178 343.944Z" fill="#2C71F0" stroke="black" stroke-miterlimit="10" stroke-linejoin="round"/>
<path d="M435.948 74.0126L444.788 72.4894L446.383 63.6616L447.906 72.502L456.734 74.0968L447.893 75.62L446.299 84.4478L444.775 75.6073L435.948 74.0126Z" fill="#2C71F0"/>
<path d="M0.991211 199.852L4.19262 195.279L0.991211 190.706L5.56464 193.907L10.1381 190.706L6.93668 195.279L10.1381 199.852L5.56464 196.651L0.991211 199.852Z" fill="#2C71F0"/>
<path d="M178.695 139.948C180.41 139.948 181.635 138.723 181.635 137.008C181.635 135.293 180.41 134.068 178.695 134.068C176.98 134.068 175.755 135.293 175.755 137.008C175.51 138.478 176.98 139.948 178.695 139.948Z" stroke="#2C71F0" stroke-miterlimit="10" stroke-linejoin="round"/>
<path d="M306.991 229.465L311.358 222.733L306.991 216L313.36 220.731L319.729 216L315.361 222.733L319.729 229.465L313.36 224.734L306.991 229.465Z" fill="#2C71F0"/>
<path d="M299.813 85.0666C303.242 85.0666 305.692 82.3719 305.692 79.1873C305.692 75.7578 302.997 73.3081 299.813 73.3081C296.383 73.3081 293.934 76.0028 293.934 79.1873C293.934 82.3719 296.628 85.0666 299.813 85.0666Z" stroke="#2C71F0" stroke-miterlimit="10" stroke-linejoin="round"/>
<path d="M170.192 36.0289L169.589 32.7162C169.138 29.8552 166.879 27.5965 164.018 27.1447L160.705 26.5424L164.018 25.9401C166.879 25.4884 169.138 23.2297 169.589 20.3687L170.192 17.0559L170.794 20.3687C171.246 23.2297 173.504 25.4884 176.365 25.9401L179.678 26.5424L176.365 27.1447C173.504 27.5965 171.246 29.8552 170.794 32.7162L170.192 36.0289Z" fill="#2C71F0" stroke="black" stroke-miterlimit="10" stroke-linejoin="round"/>
<path d="M428.491 283.706L427.38 277.594C426.547 272.317 422.38 268.15 417.102 267.317L410.991 266.206L417.102 265.094C422.38 264.261 426.547 260.094 427.38 254.817L428.491 248.706L429.602 254.817C430.436 260.094 434.602 264.261 439.88 265.094L445.991 266.206L439.88 267.317C434.602 268.15 430.436 272.317 429.602 277.594L428.491 283.706Z" fill="#2C71F0" stroke="black" stroke-miterlimit="10" stroke-linejoin="round"/>
<path d="M233.928 299.32C292.216 299.32 339.467 252.069 339.467 193.781C339.467 135.494 292.216 88.2429 233.928 88.2429C175.641 88.2429 128.39 135.494 128.39 193.781C128.39 252.069 175.641 299.32 233.928 299.32Z" fill="white" stroke="black" stroke-miterlimit="10"/>
<path d="M271.83 95.3723C407 173.5 300.5 356.5 168.475 276.859C181.439 287.004 196.868 294.261 214.129 297.431C271.407 308.14 326.572 270.307 337.281 213.029C346.721 162.373 318.258 113.408 271.83 95.3723Z" fill="black"/>
<path d="M336.366 172.998C391.39 177.014 428.096 184.271 428.096 192.514C428.096 205.195 341.862 215.411 235.548 215.411C129.234 215.411 43 205.195 43 192.514C43 184.411 78.0856 177.366 130.996 173.28" stroke="black" stroke-miterlimit="10"/>
<path d="M296.842 110.084C327.067 108.674 350.034 116.213 357.784 132.91C372.227 164.121 327.912 215.27 258.868 247.185C189.824 279.1 122.189 279.664 107.747 248.524C99.9968 231.756 107.37 210.205 128.365 188.012" stroke="black" stroke-miterlimit="10"/>
<path d="M106.434 280.031C119.73 280.031 130.509 269.252 130.509 255.956C130.509 242.66 119.73 231.882 106.434 231.882C93.1385 231.882 82.36 242.66 82.36 255.956C82.36 269.252 93.1385 280.031 106.434 280.031Z" fill="#FBE62E" stroke="black" stroke-miterlimit="10"/>
<path d="M102.079 279.916C115.374 279.916 126.153 269.137 126.153 255.841C126.153 242.545 115.374 231.767 102.079 231.767C88.7826 231.767 78.0041 242.545 78.0041 255.841C78.0041 269.137 88.7826 279.916 102.079 279.916Z" fill="#FBE62E" stroke="black" stroke-miterlimit="10"/>
<path d="M102.076 276.018C90.9563 276.018 81.8997 266.961 81.8997 255.841C81.8997 244.721 90.9563 235.665 102.076 235.665C113.197 235.665 122.253 244.721 122.253 255.841C122.253 266.961 113.197 276.018 102.076 276.018Z" fill="#FBE62E" stroke="black" stroke-miterlimit="10"/>
<path d="M359.477 147.733C372.488 147.733 383.035 137.186 383.035 124.176C383.035 111.165 372.488 100.618 359.477 100.618C346.467 100.618 335.92 111.165 335.92 124.176C335.92 137.186 346.467 147.733 359.477 147.733Z" fill="#FBE62E" stroke="black" stroke-miterlimit="10"/>
<path d="M355.337 147.618C368.348 147.618 378.895 137.071 378.895 124.061C378.895 111.05 368.348 100.503 355.337 100.503C342.327 100.503 331.78 111.05 331.78 124.061C331.78 137.071 342.327 147.618 355.337 147.618Z" fill="#FBE62E" stroke="black" stroke-miterlimit="10"/>
<path d="M355.337 143.713C344.535 143.713 335.687 134.865 335.687 124.063C335.687 113.261 344.535 104.412 355.337 104.412C366.139 104.412 374.987 113.261 374.987 124.063C374.987 134.865 366.139 143.713 355.337 143.713Z" fill="#FBE62E" stroke="black" stroke-miterlimit="10"/>
<path d="M333.655 228.017C344.082 253.943 344.045 273.182 331.997 285.159C308.466 308.691 246.256 284.525 192.923 231.263C139.59 178 115.495 115.72 139.026 92.1884C150.158 81.0569 177.552 85.4552 200.872 93.6277" stroke="black" stroke-miterlimit="10"/>
<path d="M284.734 246.154C297.744 246.154 308.291 235.607 308.291 222.597C308.291 209.587 297.744 199.04 284.734 199.04C271.723 199.04 261.176 209.587 261.176 222.597C261.176 235.607 271.723 246.154 284.734 246.154Z" fill="#FBE62E" stroke="black" stroke-miterlimit="10"/>
<path d="M280.594 246.039C293.604 246.039 304.151 235.492 304.151 222.482C304.151 209.472 293.604 198.925 280.594 198.925C267.584 198.925 257.037 209.472 257.037 222.482C257.037 235.492 267.584 246.039 280.594 246.039Z" fill="#FBE62E" stroke="black" stroke-miterlimit="10"/>
<path d="M280.594 242.134C269.792 242.134 260.943 233.285 260.943 222.484C260.943 211.682 269.792 202.833 280.594 202.833C291.395 202.833 300.244 211.682 300.244 222.484C300.129 233.285 291.395 242.134 280.594 242.134Z" fill="#FBE62E" stroke="black" stroke-miterlimit="10"/>
<path d="M336.975 314C349.985 314 360.532 303.453 360.532 290.443C360.532 277.432 349.985 266.885 336.975 266.885C323.964 266.885 313.417 277.432 313.417 290.443C313.417 303.453 323.964 314 336.975 314Z" fill="#FBE62E" stroke="black" stroke-miterlimit="10"/>
<path d="M332.835 313.885C345.845 313.885 356.392 303.338 356.392 290.328C356.392 277.317 345.845 266.771 332.835 266.771C319.824 266.771 309.277 277.317 309.277 290.328C309.277 303.338 319.824 313.885 332.835 313.885Z" fill="#FBE62E" stroke="black" stroke-miterlimit="10"/>
<path d="M332.834 309.978C322.032 309.978 313.184 301.13 313.184 290.328C313.184 279.526 322.032 270.678 332.834 270.678C343.636 270.678 352.485 279.526 352.485 290.328C352.485 301.13 343.636 309.978 332.834 309.978Z" fill="#FBE62E" stroke="black" stroke-miterlimit="10"/>
<path d="M140.435 115.23C153.445 115.23 163.993 104.683 163.993 91.6724C163.993 78.6619 153.445 68.1147 140.435 68.1147C127.424 68.1147 116.877 78.6619 116.877 91.6724C116.877 104.683 127.424 115.23 140.435 115.23Z" fill="#FBE62E" stroke="black" stroke-miterlimit="10"/>
<path d="M136.295 115.115C149.306 115.115 159.853 104.568 159.853 91.5577C159.853 78.5471 149.306 68 136.295 68C123.285 68 112.737 78.5471 112.737 91.5577C112.737 104.568 123.285 115.115 136.295 115.115Z" fill="#FBE62E" stroke="black" stroke-miterlimit="10"/>
<path d="M136.293 111.093C125.491 111.093 116.643 102.245 116.643 91.4426C116.643 80.6405 125.491 71.792 136.293 71.792C147.095 71.792 155.944 80.6405 155.944 91.4426C155.944 102.245 147.095 111.093 136.293 111.093Z" fill="#FBE62E" stroke="black" stroke-miterlimit="10"/>
</svg>
