<svg width="494" height="518" viewBox="0 0 494 518" fill="none" xmlns="http://www.w3.org/2000/svg">
<circle cx="230.857" cy="293.788" r="133.357" fill="#8727E6" stroke="black"/>
<path d="M379.698 298.313L376.269 295.863L372.839 298.313L375.289 294.883L372.839 291.454L376.269 293.903L379.698 291.454L377.249 294.883L379.698 298.313Z" fill="#2E42A5"/>
<path d="M6.99293 442.367L3.56338 439.917L0.133789 442.367L2.58348 438.938L0.133789 435.508L3.56338 437.958L6.99293 435.508L4.54324 438.938L6.99293 442.367Z" fill="#2E42A5"/>
<path d="M108.955 10.5667L108.262 6.40945L104.104 5.71655L108.262 5.02369L108.955 0.866408L109.647 5.02369L113.805 5.71655L109.647 6.40945L108.955 10.5667Z" fill="#2E42A5"/>
<path d="M486.313 369.454L480.433 370.434L479.454 376.313L478.474 370.434L472.839 369.454L478.474 368.474L479.454 362.839L480.433 368.474L486.313 369.454Z" fill="#2E42A5" stroke="#2E42A5" stroke-miterlimit="10" stroke-linejoin="round"/>
<path d="M461.993 118.827L459.483 119.283C457.316 119.625 455.605 121.337 455.262 123.504L454.806 126.014L454.35 123.504C454.007 121.337 452.296 119.625 450.129 119.283L447.619 118.827L450.129 118.371C452.296 118.028 454.007 116.317 454.35 114.15L454.806 111.64L455.262 114.15C455.605 116.317 457.316 118.028 459.483 118.371L461.993 118.827Z" fill="#2E42A5" stroke="black" stroke-miterlimit="10" stroke-linejoin="round"/>
<path d="M326.537 475.964C326.537 472.044 323.353 468.615 319.188 468.615C315.024 468.615 311.839 471.799 311.839 475.964C311.839 480.128 315.024 483.313 319.188 483.313C323.353 483.313 326.537 479.883 326.537 475.964Z" stroke="#2E42A5" stroke-miterlimit="10" stroke-linejoin="round"/>
<path d="M157.492 151.828L155.969 142.987L147.141 141.392L155.981 139.869L157.576 131.041L159.099 139.882L167.927 141.477L159.087 143L157.492 151.828Z" fill="#2E42A5"/>
<path d="M401.19 401.312L399.667 392.472L390.839 390.877L399.68 389.354L401.275 380.526L402.798 389.367L411.625 390.961L402.785 392.485L401.19 401.312Z" fill="#2E42A5"/>
<path d="M199.986 517.313L195.413 514.111L190.839 517.313L194.041 512.739L190.839 508.166L195.413 511.367L199.986 508.166L196.785 512.739L199.986 517.313Z" fill="#2E42A5"/>
<path d="M347.598 163.434C347.598 160.004 344.903 157.554 341.719 157.554C338.289 157.554 335.839 160.249 335.839 163.434C335.839 166.863 338.534 169.313 341.719 169.313C344.903 169.313 347.598 166.618 347.598 163.434Z" stroke="#2E42A5" stroke-miterlimit="10" stroke-linejoin="round"/>
<path d="M140.081 339.609C140.081 337.894 138.857 336.669 137.142 336.669C135.427 336.669 134.202 337.894 134.202 339.609C134.202 341.324 135.427 342.549 137.142 342.549C138.612 342.793 140.081 341.324 140.081 339.609Z" stroke="#2E42A5" stroke-miterlimit="10" stroke-linejoin="round"/>
<path d="M208.921 203.38L202.189 199.013L195.456 203.38L200.187 197.012L195.456 190.643L202.189 195.01L208.921 190.643L204.19 197.012L208.921 203.38Z" fill="#2E42A5"/>
<path d="M85.2004 218.491C85.2004 215.062 82.5057 212.612 79.3211 212.612C75.8916 212.612 73.4419 215.307 73.4419 218.491C73.4419 221.921 76.1365 224.37 79.3211 224.37C82.5057 224.37 85.2004 221.676 85.2004 218.491Z" stroke="#2E42A5" stroke-miterlimit="10" stroke-linejoin="round"/>
<path d="M36.1626 348.112L32.8498 348.715C29.9888 349.166 27.7301 351.425 27.2784 354.286L26.6761 357.599L26.0738 354.286C25.622 351.425 23.3633 349.166 20.5023 348.715L17.1896 348.112L20.5023 347.51C23.3633 347.058 25.622 344.8 26.0738 341.939L26.6761 338.626L27.2784 341.939C27.7301 344.8 29.9888 347.058 32.8498 347.51L36.1626 348.112Z" fill="#2E42A5" stroke="black" stroke-miterlimit="10" stroke-linejoin="round"/>
<path d="M283.839 89.8127L277.728 90.9239C272.45 91.7572 268.284 95.9239 267.45 101.202L266.339 107.313L265.228 101.202C264.395 95.9239 260.228 91.7572 254.95 90.9239L248.839 89.8127L254.95 88.7017C260.228 87.8683 264.395 83.7017 265.228 78.4239L266.339 72.3127L267.45 78.4239C268.284 83.7017 272.45 87.8683 277.728 88.7016L283.839 89.8127Z" fill="#2E42A5" stroke="black" stroke-miterlimit="10" stroke-linejoin="round"/>
<path d="M292.831 206.957C246.814 224.232 212.486 251.389 191.921 287.009L179.387 308.718C178.365 310.488 179.765 312.66 181.809 312.439L235.144 306.875L292.831 206.957Z" fill="#F8BC20" stroke="black" stroke-miterlimit="10"/>
<path d="M376.613 255.326C384.646 303.843 378.29 347.151 357.725 382.77L345.192 404.479C344.17 406.249 341.589 406.124 340.758 404.243L318.909 355.271L376.613 255.326Z" fill="#F8BC20" stroke="black" stroke-miterlimit="10"/>
<path d="M240.651 394.12L237.516 360.931C236.471 349.782 242.586 339.19 252.776 334.564L286.166 353.842C287.254 364.979 281.139 375.571 270.962 380.24L240.651 394.12Z" fill="#F8BC20" stroke="black" stroke-miterlimit="10"/>
<path d="M252.998 351.798C252.557 347.008 254.38 342.382 257.733 339.193L279.68 351.864C278.594 356.362 275.499 360.254 271.13 362.267L254.704 369.782L252.998 351.798Z" fill="white" stroke="black" stroke-miterlimit="10"/>
<path d="M299.008 363.134L238.309 328.089L263.443 310.152L301.947 332.382L299.008 363.134Z" fill="white" stroke="black" stroke-miterlimit="10"/>
<path d="M412.404 100.982C412.302 99.1158 410.312 97.9667 408.645 98.8112C324.195 142.053 266.468 209.868 224.921 289.681C224.29 290.902 224.742 292.416 225.931 293.103C240.166 301.321 321.21 348.112 335.473 356.347C336.661 357.033 338.199 356.667 338.941 355.51C387.299 279.667 417.153 195.722 412.404 100.982Z" fill="white" stroke="black" stroke-miterlimit="10"/>
<path d="M349.591 205.428C361.407 212.25 376.518 208.197 383.344 196.375C390.169 184.553 386.123 169.44 374.308 162.618C362.492 155.796 347.381 159.85 340.555 171.671C333.73 183.493 337.776 198.606 349.591 205.428Z" fill="#8727E6" stroke="black" stroke-miterlimit="10"/>
<path d="M365.033 159.472C356.481 159.476 348.177 163.9 343.595 171.837C336.761 183.673 340.828 198.78 352.631 205.594C355.589 207.301 358.732 208.305 361.925 208.71C357.72 208.716 353.465 207.661 349.567 205.411C337.737 198.58 333.714 183.462 340.531 171.654C345.657 162.776 355.481 158.271 365.033 159.472Z" fill="black" stroke="black" stroke-miterlimit="10"/>
<path d="M306.041 220.477L359.637 251.421" stroke="black" stroke-miterlimit="10"/>
<path d="M296.561 236.902L350.157 267.846" stroke="black" stroke-miterlimit="10"/>
<path d="M273.911 276.12L327.507 307.064" stroke="black" stroke-miterlimit="10"/>
<path d="M284.502 271.759C293.604 281.144 314.415 264.951 310.698 258.749C307.63 253.659 300.503 262.044 297.899 267.768C296.299 271.306 295.066 274.908 295.68 277.549C296.708 282.088 301.064 283.607 303.24 275.498C302.753 278.83 307.231 281.415 309.874 279.328C299.536 286.892 321.561 293.044 319.117 284C317.179 276.761 304.178 293.406 327.569 294.448" stroke="black" stroke-miterlimit="10" stroke-linecap="round" stroke-linejoin="round"/>
</svg>
