<svg width="16" height="16" viewBox="0 0 16 16" fill="none" xmlns="http://www.w3.org/2000/svg">
<g clip-path="url(#clip0_4116_73723)">
<path d="M0.757199 7.2987L0.757542 7.29806C1.19585 6.48993 1.79044 5.86167 2.54167 5.41093L2.54167 5.41093L2.5428 5.41024C3.29299 4.94648 4.14642 4.71369 5.10599 4.71369C5.87468 4.71369 6.54242 4.85777 7.11204 5.14258C7.68309 5.4281 8.14429 5.82844 8.49721 6.34425L8.67974 6.61103V6.28778V1.06017L11.1583 0.623084V15.1442H8.95492L8.67786 13.7391L8.63356 13.5144L8.49887 13.6996C8.17267 14.1481 7.7363 14.5443 7.18746 14.8874L7.1865 14.888C6.66335 15.2233 5.97244 15.3953 5.10599 15.3953C4.14642 15.3953 3.29299 15.1625 2.5428 14.6988C1.79091 14.234 1.19598 13.5984 0.757542 12.79C0.319952 11.9832 0.1 11.0652 0.1 10.0336C0.1 9.00189 0.319961 8.09119 0.757199 7.2987ZM5.671 13.2516C6.56041 13.2516 7.2921 12.9564 7.85696 12.3626C8.43489 11.7557 8.7216 10.9836 8.7216 10.0545C8.7216 9.12588 8.43517 8.36048 7.85699 7.76738C7.29244 7.15988 6.56078 6.85742 5.671 6.85742C4.795 6.85742 4.06405 7.15294 3.48588 7.74556C2.90712 8.33879 2.62041 9.10449 2.62041 10.0336C2.62041 10.9627 2.90711 11.7348 3.48504 12.3416C4.06301 12.9485 4.79422 13.2516 5.671 13.2516Z" fill="#FFC664" stroke="#01090F" stroke-width="0.2"/>
<circle cx="14.1808" cy="13.5341" r="1.71946" fill="#97DDE5" stroke="#01090F" stroke-width="0.2"/>
</g>
<defs>
<clipPath id="clip0_4116_73723">
<rect width="16" height="16" fill="white"/>
</clipPath>
</defs>
</svg>
