<svg width="25" height="24" viewBox="0 0 25 24" fill="none" xmlns="http://www.w3.org/2000/svg">
<g clip-path="url(#clip0_385_16244)">
<path d="M21.1042 20.2083H20.7083V8.7291C20.7083 8.5106 20.531 8.33325 20.3125 8.33325H17.9375C17.719 8.33325 17.5416 8.5106 17.5416 8.7291V20.2083H15.9583V13.4791C15.9583 13.2606 15.7809 13.0833 15.5624 13.0833H13.1874C12.9689 13.0833 12.7916 13.2606 12.7916 13.4791V20.2083H11.2082V11.8958C11.2082 11.6773 11.0309 11.4999 10.8124 11.4999H8.43739C8.21889 11.4999 8.04154 11.6773 8.04154 11.8958V20.2083H6.4582V15.8541C6.4582 15.6356 6.28085 15.4583 6.06235 15.4583H3.6875C3.469 15.4583 3.29165 15.6356 3.29165 15.8541V20.2083H2.89585C2.67735 20.2083 2.5 20.3856 2.5 20.6041C2.5 20.8226 2.67735 20.9999 2.89585 20.9999H3.6875H6.0625H8.4375H10.8125H13.1875H15.5625H17.9375H20.3125H21.1042C21.3227 20.9999 21.5 20.8226 21.5 20.6041C21.5 20.3856 21.3227 20.2083 21.1042 20.2083Z" fill="white"/>
<path d="M19.1253 2C18.2521 2 17.542 2.71012 17.542 3.58335C17.542 3.87625 17.6275 4.147 17.766 4.38294L15.1749 6.97407C14.939 6.8355 14.6682 6.75 14.3753 6.75C13.879 6.75 13.4404 6.98435 13.1498 7.34297L11.2047 6.788C11.2047 6.77535 11.2087 6.76347 11.2087 6.75C11.2087 5.87678 10.4986 5.16665 9.62534 5.16665C8.75212 5.16665 8.04199 5.87678 8.04199 6.75C8.04199 6.98037 8.09346 7.19728 8.18212 7.3944L5.70815 9.36803C5.46593 9.21603 5.18171 9.125 4.87534 9.125C4.00212 9.125 3.29199 9.83513 3.29199 10.7083C3.29199 11.5816 4.00212 12.2917 4.87534 12.2917C5.74856 12.2917 6.45868 11.5816 6.45868 10.7083C6.45868 10.4305 6.38031 10.1724 6.25365 9.94519L8.67853 8.01116C8.94375 8.21066 9.26912 8.33338 9.62537 8.33338C10.2057 8.33338 10.7092 8.01591 10.9847 7.54885L12.8189 8.07213C12.8039 8.15763 12.792 8.24391 12.792 8.33338C12.792 9.2066 13.5022 9.91673 14.3754 9.91673C15.2486 9.91673 15.9587 9.2066 15.9587 8.33338C15.9587 8.04048 15.8732 7.76973 15.7347 7.53379L18.3266 4.94188C18.5617 5.08123 18.8325 5.16673 19.1254 5.16673C19.9986 5.16673 20.7087 4.4566 20.7087 3.58338C20.7087 2.71012 19.9986 2 19.1253 2Z" fill="white"/>
</g>
<defs>
<clipPath id="clip0_385_16244">
<rect width="19" height="19" fill="white" transform="translate(2.5 2)"/>
</clipPath>
</defs>
</svg>
