<svg width="45" height="46" viewBox="0 0 45 46" fill="none" xmlns="http://www.w3.org/2000/svg">
<path d="M31.4195 28.2452L3.04004 29.4348V10.3168C3.04004 9.8495 3.4224 9.46715 3.84724 9.46715L30.5274 8.99982C30.9947 8.99982 31.3771 9.38218 31.3771 9.8495L31.4195 28.2452Z" fill="#97DDE5" stroke="#01090F" stroke-width="0.5" stroke-miterlimit="10" stroke-linecap="round" stroke-linejoin="round"/>
<path d="M4.78174 11.0392L29.635 10.6569V26.7584L4.78174 27.778V11.0392Z" fill="#4AC7D3" stroke="#01090F" stroke-width="0.5" stroke-miterlimit="10" stroke-linecap="round" stroke-linejoin="round"/>
<path d="M2.99707 29.4774C2.99707 30.327 3.50688 32.4088 4.31408 32.7486L13.6606 36.5722V33.6833L3.03955 29.4349V29.4774H2.99707Z" fill="#4AC7D3" stroke="#01090F" stroke-width="0.5" stroke-miterlimit="10" stroke-linecap="round" stroke-linejoin="round"/>
<path d="M31.079 32.8763L23.1769 33.2586L13.6604 33.7259V36.5724L40.7229 35.3404C41.4451 35.2979 41.9974 33.4286 41.9974 32.7063V32.5789L31.079 32.8763Z" fill="#97DDE5" stroke="#01090F" stroke-width="0.5" stroke-miterlimit="10" stroke-linecap="round" stroke-linejoin="round"/>
<path d="M41.9557 32.5364L13.5761 33.726L2.99756 29.4351L31.4195 28.2455L41.9557 32.5364Z" fill="#97DDE5" stroke="#01090F" stroke-width="0.5" stroke-miterlimit="10" stroke-linecap="round" stroke-linejoin="round"/>
<path d="M13.7899 32.4964L8.58763 30.4015L31.2065 29.4742L36.4087 31.569L13.7899 32.4964Z" fill="#FFC664" stroke="#01090F" stroke-width="0.5"/>
</svg>
