<svg width="40" height="40" viewBox="0 0 40 40" fill="none" xmlns="http://www.w3.org/2000/svg">
<path d="M30.9383 35.6H8.68667C6.58 35.6 5 33.8883 5 31.9133V7.68667C5 5.58 6.71167 4 8.68667 4H30.8067C32.9133 4 34.625 5.58 34.625 7.68667V31.7817C34.625 33.8883 32.9133 35.6 30.9383 35.6Z" fill="#9BCDFB" stroke="#01090F" stroke-width="0.5" stroke-miterlimit="10" stroke-linecap="round" stroke-linejoin="round"/>
<path d="M29.7532 13.7437H9.60819C9.08152 13.7437 8.68652 13.3487 8.68652 12.822V9.0037C8.68652 8.47703 9.08152 8.08203 9.60819 8.08203H29.8849C30.4115 8.08203 30.8065 8.47703 30.8065 9.0037V12.6904C30.6749 13.217 30.2799 13.7437 29.7532 13.7437Z" fill="#519AF4" stroke="#01090F" stroke-width="0.5" stroke-miterlimit="10" stroke-linecap="round" stroke-linejoin="round"/>
<path d="M12.6373 22.1694H9.47733C8.95066 22.1694 8.55566 21.7744 8.55566 21.2477V18.0877C8.55566 17.561 8.95066 17.166 9.47733 17.166H12.6373C13.164 17.166 13.559 17.561 13.559 18.0877V21.2477C13.4273 21.7744 13.0323 22.1694 12.6373 22.1694Z" fill="#FFC664" stroke="#01090F" stroke-width="0.5" stroke-miterlimit="10" stroke-linecap="round" stroke-linejoin="round"/>
<path d="M21.0631 22.1694H17.9031C17.3764 22.1694 16.9814 21.7744 16.9814 21.2477V18.0877C16.9814 17.561 17.3764 17.166 17.9031 17.166H21.0631C21.5898 17.166 21.9848 17.561 21.9848 18.0877V21.2477C21.9848 21.7744 21.5898 22.1694 21.0631 22.1694Z" fill="#FFC664" stroke="#01090F" stroke-width="0.5" stroke-miterlimit="10" stroke-linecap="round" stroke-linejoin="round"/>
<path d="M12.6373 30.7279H9.47733C8.95066 30.7279 8.55566 30.3329 8.55566 29.8063V26.6463C8.55566 26.1196 8.95066 25.7246 9.47733 25.7246H12.6373C13.164 25.7246 13.559 26.1196 13.559 26.6463V29.8063C13.4273 30.3329 13.0323 30.7279 12.6373 30.7279Z" fill="#FFC664" stroke="#01090F" stroke-width="0.5" stroke-miterlimit="10" stroke-linecap="round" stroke-linejoin="round"/>
<path d="M21.0631 30.7279H17.9031C17.3764 30.7279 16.9814 30.3329 16.9814 29.8063V26.6463C16.9814 26.1196 17.3764 25.7246 17.9031 25.7246H21.0631C21.5898 25.7246 21.9848 26.1196 21.9848 26.6463V29.8063C21.9848 30.3329 21.5898 30.7279 21.0631 30.7279Z" fill="#FFC664" stroke="#01090F" stroke-width="0.5" stroke-miterlimit="10" stroke-linecap="round" stroke-linejoin="round"/>
<path d="M29.0949 30.7269H26.7249C26.0665 30.7269 25.4082 30.2002 25.4082 29.4102V18.6135C25.4082 17.9552 25.9349 17.2969 26.7249 17.2969H29.0949C29.7532 17.2969 30.4115 17.8235 30.4115 18.6135V29.4102C30.4115 30.0685 29.8849 30.7269 29.0949 30.7269Z" fill="#519AF4" stroke="#01090F" stroke-width="0.5" stroke-miterlimit="10" stroke-linecap="round" stroke-linejoin="round"/>
</svg>
