<svg width="16" height="16" viewBox="0 0 16 16" fill="none" xmlns="http://www.w3.org/2000/svg">
<path d="M4.09756 15.8783L0.784816 2.97629L11.9023 0.121742L15.215 13.0237L4.09756 15.8783Z" fill="#9BCDFB" stroke="#01090F" stroke-width="0.2" stroke-miterlimit="10" stroke-linecap="round" stroke-linejoin="round"/>
<path d="M4.33725 13.344L1.79287 3.43454L11.3454 0.9818L13.8898 10.8913L4.33725 13.344Z" fill="#519AF4" stroke="#01090F" stroke-width="0.2"/>
<path d="M6.121 8.84013C6.16032 8.81888 6.18076 8.77412 6.17108 8.73049C6.16139 8.68686 6.12394 8.65495 6.07933 8.65233C5.15464 8.59794 4.31569 7.97236 4.07266 7.08264C3.77481 5.91666 4.45227 4.75346 5.61638 4.45566C6.78253 4.15735 7.94608 4.83472 8.24405 5.99892C8.46033 6.86448 8.10897 7.75893 7.40332 8.2746C7.36739 8.30085 7.35314 8.34769 7.36835 8.38952C7.38356 8.43134 7.42457 8.45808 7.46898 8.45512C8.65914 8.37577 9.77488 8.98447 10.3964 9.96418L4.45025 11.4847C4.52108 10.3798 5.14403 9.36822 6.121 8.84013Z" fill="#FFC664" stroke="#01090F" stroke-width="0.2" stroke-miterlimit="10" stroke-linecap="round" stroke-linejoin="round"/>
<path d="M13.2321 9.65152L13.232 9.65154L13.2331 9.65572L13.3739 10.1911C13.391 10.2831 13.3349 10.3663 13.2535 10.3825L13.2534 10.3824L13.2479 10.3838L8.88292 11.5176L8.88286 11.5174L8.87643 11.5195C8.83654 11.5328 8.7879 11.5251 8.71868 11.4812C8.71376 11.4748 8.70661 11.4642 8.69726 11.4478C8.68615 11.4284 8.67474 11.4059 8.6622 11.3809L8.09866 9.15493C8.08138 9.06273 8.1375 8.97934 8.21906 8.96303L8.21909 8.96319L8.22459 8.96176L12.5772 7.8312H12.5773H12.5775H12.5777H12.578H12.5782H12.5784H12.5786H12.5788H12.579H12.5792H12.5794H12.5796H12.5798H12.58H12.5803H12.5805H12.5807H12.5809H12.5811H12.5813H12.5815H12.5817H12.582H12.5822H12.5824H12.5826H12.5828H12.583H12.5833H12.5835H12.5837H12.5839H12.5841H12.5843H12.5846H12.5848H12.585H12.5852H12.5854H12.5857H12.5859H12.5861H12.5863H12.5866H12.5868H12.587H12.5872H12.5874H12.5877H12.5879H12.5881H12.5883H12.5886H12.5888H12.589H12.5893H12.5895H12.5897H12.5899H12.5902H12.5904H12.5906H12.5908H12.5911H12.5913H12.5915H12.5918H12.592H12.5922H12.5925H12.5927H12.5929H12.5932H12.5934H12.5936H12.5939H12.5941H12.5943H12.5946H12.5948H12.595H12.5953H12.5955H12.5957H12.596H12.5962H12.5964H12.5967H12.5969H12.5971H12.5974H12.5976H12.5979H12.5981H12.5983H12.5986H12.5988H12.5991H12.5993H12.5995H12.5998H12.6H12.6002H12.6005H12.6007H12.601H12.6012H12.6014H12.6017H12.6019H12.6022H12.6024H12.6027H12.6029H12.6031H12.6034H12.6036H12.6039H12.6041H12.6044H12.6046H12.6048H12.6051H12.6053H12.6056H12.6058H12.6061H12.6063H12.6066H12.6068H12.607H12.6073H12.6075H12.6078H12.608H12.6083H12.6085H12.6088H12.609H12.6093H12.6095H12.6097H12.61H12.6102H12.6105H12.6107H12.611H12.6112H12.6115H12.6117H12.612H12.6122H12.6125H12.6127H12.613H12.6132H12.6135H12.6137H12.6139H12.6142H12.6144H12.6147H12.6149H12.6152H12.6154H12.6157H12.6159H12.6162H12.6164H12.6167H12.6169H12.6172H12.6174H12.6177H12.6179H12.6182H12.6184H12.6187H12.6189H12.6192H12.6194H12.6197H12.6199H12.6202H12.6204H12.6207H12.6209H12.6212H12.6214H12.6217H12.6219H12.6222H12.6224H12.6227H12.6229H12.6232H12.6234H12.6237H12.6239H12.6242H12.6244H12.6246H12.6249H12.6251H12.6254H12.6256H12.6259H12.6261H12.6264H12.6266H12.6269H12.6271H12.6274H12.6276H12.6279H12.6281H12.6284H12.6286H12.6289H12.6291H12.6294H12.6296H12.6299H12.6301H12.6304H12.6306H12.6309H12.6311H12.6313H12.6316H12.6318H12.6321H12.6323H12.6326H12.6328H12.6331H12.6333H12.6336H12.6338H12.6341H12.6343H12.6345H12.6348H12.635H12.6353H12.6355H12.6358H12.636H12.6363H12.6365H12.6368H12.637H12.6372H12.6375H12.6377H12.638H12.6382H12.6385H12.6387H12.6389H12.6392H12.6394H12.6397H12.6399H12.6402H12.6404H12.6406H12.6409H12.6411H12.6414H12.6416H12.6418H12.6421H12.6423H12.6426H12.6428H12.643H12.6433H12.6435H12.6438H12.644H12.6442H12.6445H12.6447H12.6449H12.6452H12.6454H12.6457H12.6459H12.6461H12.6464H12.6466H12.6468H12.6471H12.6473H12.6475H12.6478H12.648H12.6482H12.6485H12.6487H12.6489H12.6492H12.6494H12.6496H12.6499H12.6501H12.6503H12.6506H12.6508H12.651H12.6512H12.6515H12.6517H12.6519H12.6522H12.6524H12.6526H12.6528H12.6531H12.6533H12.6535H12.6538H12.654H12.6542H12.6544H12.6547H12.6549H12.6551H12.6553H12.6556H12.6558H12.656H12.6562H12.6564H12.6567H12.6569H12.6571H12.6573H12.6575H12.6578H12.658H12.6582H12.6584H12.6586H12.6589H12.6591H12.6593H12.6595H12.6597H12.6599H12.6602H12.6604H12.6606H12.6608H12.661H12.6612H12.6614H12.6617H12.6619H12.6621H12.6623H12.6625H12.6627H12.6629H12.6631H12.6633H12.6635H12.6637H12.664H12.6642H12.6644H12.6646H12.6648H12.665H12.6652H12.6654H12.6656H12.6658H12.666H12.6662H12.6664H12.6666H12.6668H12.667H12.6672H12.6674H12.6676H12.6678H12.668H12.6682H12.6684H12.6686H12.6688H12.669H12.6692H12.6694H12.6696H12.6698H12.67H12.6701H12.6703H12.6705H12.6707H12.6709H12.6711H12.6713H12.6715H12.6717H12.6718H12.672H12.6722H12.6724H12.6726H12.6728H12.673H12.6731H12.6733H12.6735H12.6737C12.6745 7.8314 12.6757 7.83169 12.6772 7.83211C12.6838 7.83389 12.6916 7.83648 12.7029 7.84024L12.704 7.84061C12.7139 7.8439 12.7268 7.84819 12.7392 7.85159C12.7441 7.85292 12.7503 7.85452 12.7575 7.85595C12.7731 7.86833 12.7873 7.89093 12.8106 7.93685L13.0908 9.0017L13.2321 9.65152Z" fill="#9BCDFB" stroke="#01090F" stroke-width="0.2" stroke-miterlimit="10" stroke-linecap="round" stroke-linejoin="round"/>
<path d="M11.1755 8.87549C11.1782 8.87795 11.1813 8.88125 11.1846 8.8855C11.1857 8.88686 11.1868 8.88826 11.1878 8.8897C11.1873 8.89446 11.1866 8.89872 11.1858 8.90247C11.1854 8.90453 11.185 8.90635 11.1846 8.90796L11.1781 8.9097L10.4411 9.10812L10.439 9.10869C10.4364 9.10623 10.4333 9.10294 10.4299 9.09869C10.4276 9.09582 10.4254 9.09275 10.4233 9.08955C10.4255 9.08738 10.4282 9.08497 10.4314 9.0824C10.4363 9.07851 10.4418 9.07482 10.4475 9.07151L11.1734 8.87607L11.1755 8.87549Z" fill="#EAF1FE" stroke="#01090F" stroke-width="0.2"/>
<path d="M10.5275 9.41989L10.5242 9.42075C10.5215 9.41829 10.5185 9.41501 10.5151 9.41078C10.5128 9.4079 10.5106 9.40483 10.5085 9.40163C10.5107 9.39946 10.5134 9.39705 10.5166 9.39449C10.5214 9.3907 10.5267 9.3871 10.5322 9.38386L11.6259 9.10343L11.6293 9.10257C11.6319 9.10503 11.635 9.10832 11.6383 9.11255C11.6386 9.11292 11.6389 9.1133 11.6392 9.11368C11.6354 9.12463 11.6287 9.13357 11.6198 9.13981L10.5275 9.41989Z" fill="#EAF1FE" stroke="#01090F" stroke-width="0.2"/>
<path d="M11.7431 9.49883C11.7457 9.50129 11.7488 9.50457 11.7521 9.50879C11.7527 9.50955 11.7533 9.51032 11.7539 9.5111C11.7538 9.51147 11.7537 9.51183 11.7537 9.5122C11.7519 9.52025 11.7495 9.52723 11.7471 9.53259L10.6135 9.81599L10.6096 9.81697C10.607 9.81452 10.6039 9.81124 10.6005 9.80702C10.5983 9.80414 10.5961 9.80107 10.5939 9.79787C10.5961 9.7957 10.5988 9.79329 10.602 9.79073C10.6068 9.78699 10.612 9.78344 10.6174 9.78024L11.7391 9.49982L11.7431 9.49883Z" fill="#EAF1FE" stroke="#01090F" stroke-width="0.2"/>
<path d="M10.698 10.1282L10.6941 10.1292C10.6914 10.1268 10.6884 10.1235 10.685 10.1193C10.6827 10.1164 10.6805 10.1133 10.6784 10.1101C10.6806 10.108 10.6833 10.1056 10.6865 10.103C10.6912 10.0993 10.6965 10.0957 10.7019 10.0925L11.8236 9.81207L11.8275 9.81109C11.8302 9.81354 11.8332 9.81682 11.8366 9.82104C11.8369 9.82142 11.8372 9.8218 11.8375 9.82218C11.8337 9.83305 11.827 9.84194 11.8183 9.84817L10.698 10.1282Z" fill="#EAF1FE" stroke="#01090F" stroke-width="0.2"/>
<path d="M10.7549 10.4403L10.7509 10.4412C10.7483 10.4388 10.7452 10.4355 10.7419 10.4313C10.7396 10.4284 10.7374 10.4253 10.7353 10.4221C10.7375 10.42 10.7402 10.4176 10.7434 10.415C10.7481 10.4113 10.7533 10.4077 10.7588 10.4045L11.8805 10.1241L11.8844 10.1231C11.887 10.1256 11.8901 10.1288 11.8935 10.1331C11.8938 10.1334 11.8941 10.1338 11.8944 10.1342C11.8906 10.1451 11.8839 10.1539 11.8752 10.1602L10.7549 10.4403Z" fill="#EAF1FE" stroke="#01090F" stroke-width="0.2"/>
<path d="M12.4668 8.71419L12.4694 8.72732L12.4754 8.7393L12.4769 8.74233L12.0406 8.85615L11.9798 8.62832L12.43 8.53045L12.4668 8.71419Z" fill="#FFC664" stroke="#01090F" stroke-width="0.2"/>
<mask id="path-11-inside-1_4116_73747" fill="white">
<path d="M8.73852 10.5096L8.51177 9.57424C8.48342 9.4892 8.54011 9.40417 8.62515 9.37583L9.95733 9.03569C10.0424 9.00735 10.1274 9.06404 10.1557 9.14907L10.4959 10.5096C10.5242 10.5946 10.4675 10.6797 10.3825 10.708L9.05031 11.0481C8.96528 11.0765 8.88024 11.0198 8.8519 10.9348"/>
</mask>
<path d="M8.73852 10.5096L8.51177 9.57424C8.48342 9.4892 8.54011 9.40417 8.62515 9.37583L9.95733 9.03569C10.0424 9.00735 10.1274 9.06404 10.1557 9.14907L10.4959 10.5096C10.5242 10.5946 10.4675 10.6797 10.3825 10.708L9.05031 11.0481C8.96528 11.0765 8.88024 11.0198 8.8519 10.9348" fill="#519AF4"/>
<path d="M8.51177 9.57424L8.70614 9.52712L8.70416 9.51896L8.7015 9.51099L8.51177 9.57424ZM8.62515 9.37583L8.57567 9.18204L8.56871 9.18382L8.5619 9.18609L8.62515 9.37583ZM9.95733 9.03569L10.0068 9.22948L10.0138 9.2277L10.0206 9.22543L9.95733 9.03569ZM10.1557 9.14907L10.3498 9.10056L10.3479 9.09311L10.3455 9.08583L10.1557 9.14907ZM10.4959 10.5096L10.3018 10.5581L10.3037 10.5656L10.3061 10.5728L10.4959 10.5096ZM10.3825 10.708L10.432 10.9018L10.4389 10.9L10.4457 10.8977L10.3825 10.708ZM9.05031 11.0481L9.00083 10.8544L8.99388 10.8561L8.98707 10.8584L9.05031 11.0481ZM8.93289 10.4625L8.70614 9.52712L8.3174 9.62136L8.54415 10.5567L8.93289 10.4625ZM8.7015 9.51099C8.70411 9.51881 8.70508 9.52804 8.70389 9.53722C8.70274 9.54601 8.69992 9.55254 8.69744 9.55667C8.69301 9.56406 8.68905 9.56534 8.68839 9.56556L8.5619 9.18609C8.40057 9.23986 8.24996 9.42127 8.32203 9.63748L8.7015 9.51099ZM8.67462 9.56961L10.0068 9.22948L9.90785 8.84191L8.57567 9.18204L8.67462 9.56961ZM10.0206 9.22543C10.0128 9.22804 10.0035 9.22901 9.99435 9.22781C9.98556 9.22667 9.97902 9.22384 9.97489 9.22136C9.96751 9.21693 9.96622 9.21297 9.966 9.21232L10.3455 9.08583C10.2917 8.9245 10.1103 8.77389 9.89408 8.84596L10.0206 9.22543ZM9.96171 9.19758L10.3018 10.5581L10.6899 10.4611L10.3498 9.10056L9.96171 9.19758ZM10.3061 10.5728C10.3035 10.565 10.3026 10.5558 10.3038 10.5466C10.3049 10.5378 10.3077 10.5313 10.3102 10.5272C10.3146 10.5198 10.3186 10.5185 10.3192 10.5183L10.4457 10.8977C10.6071 10.844 10.7577 10.6626 10.6856 10.4464L10.3061 10.5728ZM10.333 10.5142L9.00083 10.8544L9.09979 11.2419L10.432 10.9018L10.333 10.5142ZM8.98707 10.8584C8.99489 10.8558 9.00412 10.8548 9.01329 10.856C9.02208 10.8572 9.02862 10.86 9.03275 10.8625C9.04013 10.8669 9.04142 10.8709 9.04164 10.8715L8.66216 10.998C8.71594 11.1593 8.89735 11.3099 9.11356 11.2379L8.98707 10.8584Z" fill="#01090F" mask="url(#path-11-inside-1_4116_73747)"/>
<path d="M8.95642 10.9378L8.83301 10.4692" stroke="#01090F" stroke-width="0.2"/>
<path d="M9.50423 10.5046C9.54355 10.4834 9.56399 10.4386 9.5543 10.395C9.54462 10.3514 9.50717 10.3195 9.46255 10.3168C9.34068 10.3097 9.2337 10.2272 9.20317 10.1166C9.16506 9.96597 9.25222 9.8181 9.40101 9.78003C9.55184 9.74145 9.70008 9.82852 9.73832 9.97741C9.76569 10.0874 9.72129 10.2026 9.62956 10.2697C9.59363 10.2959 9.57938 10.3428 9.59459 10.3846C9.6098 10.4264 9.65081 10.4531 9.69521 10.4502C9.82061 10.4418 9.94108 10.4881 10.0307 10.5708L9.29201 10.7597C9.32812 10.6517 9.40293 10.5594 9.50423 10.5046Z" fill="#FFC664" stroke="#01090F" stroke-width="0.2" stroke-miterlimit="10" stroke-linecap="round" stroke-linejoin="round"/>
</svg>
