<svg width="16" height="16" viewBox="0 0 16 16" fill="none" xmlns="http://www.w3.org/2000/svg">
<g clip-path="url(#clip0_4116_73263)">
<rect x="0.76278" y="5.11487" width="6.94892" height="4.65587" transform="rotate(-41.7824 0.76278 5.11487)" fill="#519AF4" stroke="#01090F" stroke-width="0.2"/>
<path d="M7.62154 5.27323C7.33926 2.84358 6.33579 0.912456 5.86934 0.2506L9.14274 3.91397L7.62154 5.27323Z" fill="#FFC664" stroke="#01090F" stroke-width="0.2"/>
<path d="M2.20682 3.81857C2.48911 6.24822 3.49258 8.17934 3.95903 8.8412L0.685629 5.17783L2.20682 3.81857Z" fill="#FFC664" stroke="#01090F" stroke-width="0.2"/>
<path d="M0.0505297 6.5903C-0.498332 5.97605 -0.468909 5.04604 0.101296 4.4674L4.35642 9.22946C3.71753 9.73121 2.79008 9.65622 2.24122 9.04197L0.0505297 6.5903Z" fill="#9BCDFB" stroke="#01090F" stroke-width="0.2"/>
<path d="M7.49026 -0.0572048C6.9414 -0.671454 6.01395 -0.746452 5.37506 -0.244694L9.63018 4.51736C10.2004 3.93873 10.2298 3.00872 9.68095 2.39447L7.49026 -0.0572048Z" fill="#9BCDFB" stroke="#01090F" stroke-width="0.2"/>
<path fill-rule="evenodd" clip-rule="evenodd" d="M13.4518 11.7989C13.4519 11.799 13.4519 11.799 13.452 11.7991C14.0166 12.4309 13.962 13.4009 13.3302 13.9655C12.6983 14.5301 11.7283 14.4756 11.1637 13.8437C11.1149 13.789 11.0706 13.7318 11.031 13.6725L5.78815 6.91166L7.14086 5.70295L13.2884 11.641C13.3457 11.6888 13.4003 11.7413 13.4515 11.7985L13.4519 11.7989L13.4518 11.7989Z" fill="#519AF4"/>
<path d="M13.4518 11.7989L13.3852 11.7244L13.3106 11.791L13.3773 11.8656L13.4518 11.7989ZM13.452 11.7991L13.5265 11.7324L13.452 11.7991ZM11.031 13.6725L11.1144 13.6168L11.11 13.6112L11.031 13.6725ZM5.78815 6.91166L5.72152 6.8371L5.65197 6.89924L5.70913 6.97294L5.78815 6.91166ZM7.14086 5.70295L7.21034 5.63103L7.14351 5.56648L7.07423 5.62838L7.14086 5.70295ZM13.2884 11.641L13.2188 11.7132L13.2244 11.7179L13.2884 11.641ZM13.4515 11.7985L13.3767 11.8654L13.382 11.8705L13.4515 11.7985ZM13.4519 11.7989L13.5185 11.8735L13.5988 11.8017L13.5213 11.727L13.4519 11.7989ZM13.3773 11.8656C13.3773 11.8656 13.3773 11.8656 13.3773 11.8656C13.3773 11.8657 13.3774 11.8657 13.3774 11.8657L13.5265 11.7324C13.5265 11.7324 13.5265 11.7324 13.5265 11.7324C13.5264 11.7323 13.5264 11.7323 13.5264 11.7323L13.3773 11.8656ZM13.3774 11.8657C13.9052 12.4564 13.8542 13.3631 13.2635 13.8909L13.3968 14.0401C14.0699 13.4387 14.1279 12.4055 13.5265 11.7324L13.3774 11.8657ZM13.2635 13.8909C12.6728 14.4187 11.7661 14.3678 11.2383 13.7771L11.0892 13.9103C11.6906 14.5834 12.7237 14.6415 13.3968 14.0401L13.2635 13.8909ZM11.2383 13.7771C11.1926 13.7259 11.1512 13.6724 11.1142 13.617L10.9479 13.7281C10.9901 13.7912 11.0372 13.8522 11.0892 13.9103L11.2383 13.7771ZM11.11 13.6112L5.86718 6.85038L5.70913 6.97294L10.952 13.7338L11.11 13.6112ZM5.85478 6.98623L7.20749 5.77752L7.07423 5.62838L5.72152 6.8371L5.85478 6.98623ZM7.07139 5.77488L13.219 11.713L13.3579 11.5691L7.21034 5.63103L7.07139 5.77488ZM13.2244 11.7179C13.278 11.7625 13.329 11.8116 13.3769 11.8652L13.526 11.7319C13.4715 11.671 13.4135 11.6151 13.3524 11.5642L13.2244 11.7179ZM13.382 11.8705L13.3824 11.8708L13.5213 11.727L13.521 11.7266L13.382 11.8705ZM13.3852 11.7243L13.3852 11.7244L13.5185 11.8735L13.5185 11.8735L13.3852 11.7243Z" fill="#01090F"/>
<mask id="mask0_4116_73263" style="mask-type:alpha" maskUnits="userSpaceOnUse" x="5" y="5" width="9" height="10">
<path fill-rule="evenodd" clip-rule="evenodd" d="M13.4518 11.7999C13.4519 11.8 13.4519 11.8 13.452 11.8C14.0166 12.4319 13.962 13.4019 13.3302 13.9665C12.6983 14.5311 11.7283 14.4766 11.1637 13.8447C11.1149 13.79 11.0706 13.7328 11.031 13.6735L5.78815 6.91264L7.14086 5.70393L13.2884 11.642C13.3457 11.6898 13.4003 11.7423 13.4515 11.7995L13.4519 11.7999L13.4518 11.7999Z" fill="#4AC7D3"/>
<path d="M13.4518 11.7999L13.3852 11.7253L13.3106 11.792L13.3773 11.8665L13.4518 11.7999ZM13.452 11.8L13.5265 11.7334L13.452 11.8ZM11.031 13.6735L11.1144 13.6178L11.11 13.6122L11.031 13.6735ZM5.78815 6.91264L5.72152 6.83807L5.65197 6.90022L5.70913 6.97392L5.78815 6.91264ZM7.14086 5.70393L7.21034 5.632L7.14351 5.56746L7.07423 5.62936L7.14086 5.70393ZM13.2884 11.642L13.2188 11.7141L13.2244 11.7189L13.2884 11.642ZM13.4515 11.7995L13.3767 11.8664L13.382 11.8715L13.4515 11.7995ZM13.4519 11.7999L13.5185 11.8745L13.5988 11.8027L13.5213 11.7279L13.4519 11.7999ZM13.3773 11.8665L13.3773 11.8665C13.3773 11.8665 13.3773 11.8665 13.3773 11.8665C13.3773 11.8665 13.3773 11.8665 13.3773 11.8665L13.3773 11.8665C13.3773 11.8665 13.3773 11.8665 13.3773 11.8665C13.3773 11.8665 13.3773 11.8665 13.3773 11.8665L13.3773 11.8665C13.3773 11.8665 13.3773 11.8665 13.3773 11.8665C13.3773 11.8665 13.3773 11.8665 13.3773 11.8665L13.3773 11.8665C13.3773 11.8665 13.3773 11.8665 13.3773 11.8665C13.3773 11.8665 13.3773 11.8665 13.3773 11.8665L13.3773 11.8665C13.3773 11.8665 13.3773 11.8665 13.3773 11.8665C13.3773 11.8665 13.3773 11.8665 13.3773 11.8665L13.3773 11.8666C13.3773 11.8666 13.3773 11.8666 13.3773 11.8666C13.3773 11.8666 13.3773 11.8666 13.3773 11.8666L13.3773 11.8666C13.3773 11.8666 13.3773 11.8666 13.3773 11.8666C13.3773 11.8666 13.3773 11.8666 13.3773 11.8666L13.3773 11.8666C13.3773 11.8666 13.3773 11.8666 13.3773 11.8666C13.3773 11.8666 13.3773 11.8666 13.3773 11.8666L13.3773 11.8666C13.3773 11.8666 13.3773 11.8666 13.3773 11.8666C13.3773 11.8666 13.3773 11.8666 13.3773 11.8666L13.3773 11.8666C13.3773 11.8666 13.3773 11.8666 13.3773 11.8666C13.3773 11.8666 13.3773 11.8666 13.3773 11.8666L13.3773 11.8666C13.3773 11.8666 13.3773 11.8666 13.3773 11.8666C13.3773 11.8666 13.3773 11.8666 13.3773 11.8666L13.3773 11.8666C13.3773 11.8666 13.3773 11.8666 13.3773 11.8666C13.3773 11.8666 13.3773 11.8666 13.3773 11.8666L13.3773 11.8666C13.3773 11.8666 13.3773 11.8666 13.3773 11.8666C13.3773 11.8666 13.3773 11.8666 13.3773 11.8666L13.3773 11.8666C13.3773 11.8666 13.3773 11.8666 13.3773 11.8666C13.3773 11.8666 13.3773 11.8666 13.3773 11.8666C13.3773 11.8666 13.3773 11.8666 13.3773 11.8666L13.3773 11.8666C13.3773 11.8666 13.3773 11.8666 13.3773 11.8666C13.3773 11.8666 13.3773 11.8666 13.3773 11.8666L13.3773 11.8666C13.3773 11.8666 13.3773 11.8666 13.3773 11.8666C13.3773 11.8666 13.3773 11.8666 13.3773 11.8666L13.3773 11.8666C13.3773 11.8666 13.3773 11.8666 13.3773 11.8666C13.3773 11.8666 13.3773 11.8666 13.3773 11.8666L13.3773 11.8666C13.3773 11.8666 13.3773 11.8666 13.3773 11.8666C13.3773 11.8666 13.3773 11.8666 13.3773 11.8666L13.3773 11.8666C13.3773 11.8666 13.3773 11.8666 13.3773 11.8666C13.3773 11.8666 13.3773 11.8666 13.3773 11.8666L13.3773 11.8666C13.3773 11.8666 13.3773 11.8666 13.3773 11.8666C13.3773 11.8666 13.3773 11.8666 13.3773 11.8666L13.3773 11.8666L13.3773 11.8666C13.3773 11.8666 13.3773 11.8666 13.3773 11.8666C13.3773 11.8666 13.3773 11.8666 13.3773 11.8666L13.3773 11.8666C13.3773 11.8666 13.3773 11.8666 13.3773 11.8666C13.3773 11.8666 13.3773 11.8666 13.3773 11.8666L13.3773 11.8666C13.3773 11.8666 13.3773 11.8666 13.3773 11.8666C13.3773 11.8666 13.3773 11.8666 13.3773 11.8666L13.3773 11.8666C13.3773 11.8666 13.3773 11.8666 13.3773 11.8666C13.3773 11.8666 13.3773 11.8666 13.3773 11.8666L13.3773 11.8666C13.3773 11.8666 13.3773 11.8666 13.3773 11.8666C13.3773 11.8666 13.3773 11.8666 13.3773 11.8666L13.3773 11.8666C13.3773 11.8666 13.3773 11.8666 13.3773 11.8666C13.3773 11.8666 13.3773 11.8666 13.3773 11.8666C13.3773 11.8666 13.3773 11.8666 13.3773 11.8666L13.3773 11.8666C13.3773 11.8666 13.3773 11.8666 13.3773 11.8666C13.3773 11.8666 13.3773 11.8666 13.3773 11.8666L13.3773 11.8666C13.3773 11.8666 13.3773 11.8666 13.3773 11.8666C13.3773 11.8666 13.3773 11.8666 13.3773 11.8666L13.3773 11.8666C13.3773 11.8666 13.3773 11.8666 13.3773 11.8666C13.3773 11.8666 13.3773 11.8666 13.3773 11.8666L13.3773 11.8666C13.3773 11.8666 13.3773 11.8666 13.3773 11.8666C13.3773 11.8666 13.3773 11.8666 13.3773 11.8666L13.3773 11.8666C13.3773 11.8666 13.3773 11.8666 13.3773 11.8666C13.3773 11.8666 13.3773 11.8666 13.3773 11.8666C13.3773 11.8666 13.3773 11.8666 13.3773 11.8666L13.3773 11.8666C13.3773 11.8666 13.3773 11.8666 13.3773 11.8666C13.3773 11.8666 13.3773 11.8666 13.3773 11.8666L13.3773 11.8666C13.3773 11.8666 13.3773 11.8666 13.3773 11.8666C13.3773 11.8666 13.3773 11.8666 13.3773 11.8666L13.3773 11.8666C13.3773 11.8666 13.3773 11.8666 13.3773 11.8666C13.3773 11.8666 13.3773 11.8666 13.3773 11.8666L13.3773 11.8666C13.3773 11.8666 13.3773 11.8666 13.3773 11.8666C13.3773 11.8666 13.3773 11.8666 13.3773 11.8666L13.3773 11.8666C13.3773 11.8666 13.3773 11.8666 13.3773 11.8666C13.3773 11.8666 13.3773 11.8666 13.3773 11.8666C13.3773 11.8666 13.3773 11.8666 13.3773 11.8666L13.3773 11.8666C13.3773 11.8666 13.3773 11.8666 13.3773 11.8666C13.3773 11.8666 13.3773 11.8666 13.3773 11.8666L13.3773 11.8666C13.3773 11.8666 13.3773 11.8666 13.3773 11.8666C13.3773 11.8666 13.3773 11.8666 13.3773 11.8666L13.3773 11.8666C13.3773 11.8666 13.3773 11.8666 13.3773 11.8666C13.3773 11.8666 13.3773 11.8666 13.3773 11.8666L13.3773 11.8666C13.3773 11.8666 13.3773 11.8666 13.3773 11.8666C13.3773 11.8666 13.3773 11.8666 13.3773 11.8666L13.3773 11.8666C13.3773 11.8666 13.3773 11.8666 13.3773 11.8666C13.3773 11.8666 13.3773 11.8666 13.3773 11.8666L13.3774 11.8666L13.3774 11.8666C13.3774 11.8666 13.3774 11.8666 13.3774 11.8666C13.3774 11.8666 13.3774 11.8666 13.3774 11.8666L13.3774 11.8666C13.3774 11.8666 13.3774 11.8666 13.3774 11.8666C13.3774 11.8666 13.3774 11.8666 13.3774 11.8666L13.3774 11.8666C13.3774 11.8666 13.3774 11.8666 13.3774 11.8666C13.3774 11.8666 13.3774 11.8666 13.3774 11.8666L13.3774 11.8666C13.3774 11.8666 13.3774 11.8666 13.3774 11.8666C13.3774 11.8666 13.3774 11.8666 13.3774 11.8666L13.3774 11.8666C13.3774 11.8666 13.3774 11.8666 13.3774 11.8666C13.3774 11.8666 13.3774 11.8666 13.3774 11.8666L13.3774 11.8666C13.3774 11.8666 13.3774 11.8666 13.3774 11.8666C13.3774 11.8666 13.3774 11.8666 13.3774 11.8666L13.3774 11.8666C13.3774 11.8666 13.3774 11.8666 13.3774 11.8666C13.3774 11.8666 13.3774 11.8666 13.3774 11.8666C13.3774 11.8666 13.3774 11.8666 13.3774 11.8666L13.3774 11.8666C13.3774 11.8666 13.3774 11.8666 13.3774 11.8666C13.3774 11.8666 13.3774 11.8666 13.3774 11.8666L13.3774 11.8666C13.3774 11.8666 13.3774 11.8666 13.3774 11.8666C13.3774 11.8666 13.3774 11.8666 13.3774 11.8667L13.3774 11.8667C13.3774 11.8667 13.3774 11.8667 13.3774 11.8667C13.3774 11.8667 13.3774 11.8667 13.3774 11.8667L13.3774 11.8667C13.3774 11.8667 13.3774 11.8667 13.3774 11.8667C13.3774 11.8667 13.3774 11.8667 13.3774 11.8667L13.3774 11.8667C13.3774 11.8667 13.3774 11.8667 13.3774 11.8667C13.3774 11.8667 13.3774 11.8667 13.3774 11.8667L13.3774 11.8667C13.3774 11.8667 13.3774 11.8667 13.3774 11.8667C13.3774 11.8667 13.3774 11.8667 13.3774 11.8667L13.3774 11.8667C13.3774 11.8667 13.3774 11.8667 13.3774 11.8667C13.3774 11.8667 13.3774 11.8667 13.3774 11.8667L13.3774 11.8667C13.3774 11.8667 13.3774 11.8667 13.3774 11.8667C13.3774 11.8667 13.3774 11.8667 13.3774 11.8667L13.3774 11.8667C13.3774 11.8667 13.3774 11.8667 13.3774 11.8667C13.3774 11.8667 13.3774 11.8667 13.3774 11.8667L13.3774 11.8667C13.3774 11.8667 13.3774 11.8667 13.3774 11.8667C13.3774 11.8667 13.3774 11.8667 13.3774 11.8667L13.3774 11.8667C13.3774 11.8667 13.3774 11.8667 13.3774 11.8667C13.3774 11.8667 13.3774 11.8667 13.3774 11.8667L13.3774 11.8667C13.3774 11.8667 13.3774 11.8667 13.3774 11.8667C13.3774 11.8667 13.3774 11.8667 13.3774 11.8667L13.3774 11.8667C13.3774 11.8667 13.3774 11.8667 13.3774 11.8667C13.3774 11.8667 13.3774 11.8667 13.3774 11.8667L13.3774 11.8667L13.5265 11.7334L13.5265 11.7334C13.5265 11.7334 13.5265 11.7334 13.5265 11.7334C13.5265 11.7334 13.5265 11.7334 13.5265 11.7334L13.5265 11.7334C13.5265 11.7334 13.5265 11.7334 13.5265 11.7334C13.5265 11.7334 13.5265 11.7334 13.5265 11.7334L13.5265 11.7334C13.5265 11.7334 13.5265 11.7334 13.5265 11.7334C13.5265 11.7334 13.5265 11.7334 13.5265 11.7334L13.5265 11.7334C13.5265 11.7334 13.5265 11.7334 13.5265 11.7334C13.5265 11.7334 13.5265 11.7334 13.5265 11.7334L13.5265 11.7334C13.5265 11.7334 13.5265 11.7334 13.5265 11.7334C13.5265 11.7334 13.5265 11.7334 13.5265 11.7334L13.5265 11.7334C13.5265 11.7334 13.5265 11.7334 13.5265 11.7334C13.5265 11.7334 13.5265 11.7334 13.5265 11.7334L13.5265 11.7334C13.5265 11.7334 13.5265 11.7334 13.5265 11.7334C13.5265 11.7334 13.5265 11.7334 13.5265 11.7334L13.5265 11.7334C13.5265 11.7334 13.5265 11.7334 13.5265 11.7334C13.5265 11.7334 13.5265 11.7334 13.5265 11.7334L13.5265 11.7334C13.5265 11.7334 13.5265 11.7334 13.5265 11.7334C13.5265 11.7334 13.5265 11.7334 13.5265 11.7334L13.5265 11.7334C13.5265 11.7334 13.5265 11.7334 13.5265 11.7334C13.5265 11.7334 13.5265 11.7334 13.5265 11.7334L13.5265 11.7334C13.5265 11.7334 13.5265 11.7334 13.5265 11.7334C13.5265 11.7334 13.5265 11.7334 13.5265 11.7334L13.5265 11.7334C13.5265 11.7334 13.5265 11.7334 13.5265 11.7334C13.5265 11.7334 13.5265 11.7334 13.5265 11.7334L13.5265 11.7334C13.5265 11.7334 13.5265 11.7334 13.5265 11.7334C13.5265 11.7334 13.5265 11.7334 13.5265 11.7334L13.5265 11.7334C13.5265 11.7334 13.5265 11.7334 13.5265 11.7334C13.5265 11.7334 13.5265 11.7334 13.5265 11.7334C13.5265 11.7334 13.5265 11.7334 13.5265 11.7334L13.5265 11.7334C13.5265 11.7334 13.5265 11.7334 13.5265 11.7334C13.5265 11.7334 13.5265 11.7334 13.5265 11.7334L13.5265 11.7334C13.5265 11.7334 13.5265 11.7334 13.5265 11.7334C13.5265 11.7334 13.5265 11.7334 13.5265 11.7334L13.5265 11.7334C13.5265 11.7334 13.5265 11.7334 13.5265 11.7334C13.5265 11.7334 13.5265 11.7334 13.5265 11.7334L13.5265 11.7334C13.5265 11.7334 13.5265 11.7334 13.5265 11.7334C13.5265 11.7334 13.5265 11.7334 13.5265 11.7334L13.5265 11.7334C13.5265 11.7334 13.5265 11.7334 13.5265 11.7334C13.5265 11.7334 13.5265 11.7334 13.5265 11.7334L13.5265 11.7334C13.5265 11.7334 13.5265 11.7334 13.5265 11.7334C13.5265 11.7334 13.5265 11.7334 13.5265 11.7334L13.5265 11.7334L13.5265 11.7334C13.5265 11.7334 13.5265 11.7334 13.5265 11.7334C13.5265 11.7334 13.5265 11.7334 13.5265 11.7334L13.5265 11.7334C13.5265 11.7334 13.5265 11.7334 13.5265 11.7334C13.5265 11.7334 13.5265 11.7334 13.5265 11.7334L13.5265 11.7334C13.5265 11.7334 13.5265 11.7334 13.5265 11.7334C13.5265 11.7334 13.5265 11.7334 13.5265 11.7334L13.5265 11.7334C13.5265 11.7334 13.5265 11.7334 13.5265 11.7334C13.5265 11.7334 13.5265 11.7334 13.5265 11.7334L13.5265 11.7334C13.5265 11.7334 13.5265 11.7334 13.5265 11.7334C13.5265 11.7334 13.5265 11.7334 13.5265 11.7334L13.5265 11.7334C13.5265 11.7334 13.5265 11.7334 13.5265 11.7334C13.5265 11.7334 13.5265 11.7334 13.5265 11.7334C13.5265 11.7334 13.5265 11.7334 13.5265 11.7334L13.5265 11.7334C13.5265 11.7334 13.5265 11.7334 13.5265 11.7334C13.5265 11.7334 13.5265 11.7334 13.5265 11.7334L13.5265 11.7334C13.5265 11.7334 13.5265 11.7334 13.5265 11.7334C13.5265 11.7334 13.5265 11.7334 13.5265 11.7334L13.5265 11.7334C13.5265 11.7334 13.5265 11.7334 13.5265 11.7334C13.5265 11.7334 13.5265 11.7334 13.5265 11.7334L13.5265 11.7333C13.5265 11.7333 13.5265 11.7333 13.5265 11.7333C13.5265 11.7333 13.5265 11.7333 13.5265 11.7333L13.5265 11.7333C13.5265 11.7333 13.5265 11.7333 13.5265 11.7333C13.5265 11.7333 13.5265 11.7333 13.5265 11.7333C13.5265 11.7333 13.5265 11.7333 13.5265 11.7333L13.5265 11.7333C13.5265 11.7333 13.5265 11.7333 13.5265 11.7333C13.5265 11.7333 13.5265 11.7333 13.5265 11.7333L13.5265 11.7333C13.5265 11.7333 13.5265 11.7333 13.5265 11.7333C13.5265 11.7333 13.5265 11.7333 13.5265 11.7333L13.5265 11.7333C13.5265 11.7333 13.5265 11.7333 13.5265 11.7333C13.5265 11.7333 13.5265 11.7333 13.5265 11.7333L13.5265 11.7333C13.5265 11.7333 13.5265 11.7333 13.5265 11.7333C13.5265 11.7333 13.5265 11.7333 13.5265 11.7333L13.5265 11.7333C13.5265 11.7333 13.5265 11.7333 13.5265 11.7333C13.5265 11.7333 13.5265 11.7333 13.5265 11.7333C13.5265 11.7333 13.5265 11.7333 13.5265 11.7333L13.5265 11.7333C13.5265 11.7333 13.5265 11.7333 13.5265 11.7333C13.5265 11.7333 13.5265 11.7333 13.5265 11.7333L13.5265 11.7333C13.5265 11.7333 13.5265 11.7333 13.5265 11.7333C13.5265 11.7333 13.5265 11.7333 13.5265 11.7333L13.5264 11.7333C13.5264 11.7333 13.5264 11.7333 13.5264 11.7333C13.5264 11.7333 13.5264 11.7333 13.5264 11.7333L13.5264 11.7333C13.5264 11.7333 13.5264 11.7333 13.5264 11.7333C13.5264 11.7333 13.5264 11.7333 13.5264 11.7333L13.5264 11.7333C13.5264 11.7333 13.5264 11.7333 13.5264 11.7333C13.5264 11.7333 13.5264 11.7333 13.5264 11.7333L13.5264 11.7333L13.5264 11.7333C13.5264 11.7333 13.5264 11.7333 13.5264 11.7333C13.5264 11.7333 13.5264 11.7333 13.5264 11.7333L13.5264 11.7333C13.5264 11.7333 13.5264 11.7333 13.5264 11.7333C13.5264 11.7333 13.5264 11.7333 13.5264 11.7333L13.5264 11.7333C13.5264 11.7333 13.5264 11.7333 13.5264 11.7333C13.5264 11.7333 13.5264 11.7333 13.5264 11.7333L13.5264 11.7333C13.5264 11.7333 13.5264 11.7333 13.5264 11.7333C13.5264 11.7333 13.5264 11.7333 13.5264 11.7333L13.5264 11.7333C13.5264 11.7333 13.5264 11.7333 13.5264 11.7333C13.5264 11.7333 13.5264 11.7333 13.5264 11.7333L13.5264 11.7333C13.5264 11.7333 13.5264 11.7333 13.5264 11.7333C13.5264 11.7333 13.5264 11.7333 13.5264 11.7333L13.5264 11.7333C13.5264 11.7333 13.5264 11.7333 13.5264 11.7333C13.5264 11.7333 13.5264 11.7333 13.5264 11.7333C13.5264 11.7333 13.5264 11.7333 13.5264 11.7333L13.5264 11.7333C13.5264 11.7333 13.5264 11.7333 13.5264 11.7333C13.5264 11.7333 13.5264 11.7333 13.5264 11.7333L13.5264 11.7333C13.5264 11.7333 13.5264 11.7333 13.5264 11.7333C13.5264 11.7333 13.5264 11.7333 13.5264 11.7333L13.5264 11.7333C13.5264 11.7333 13.5264 11.7333 13.5264 11.7333C13.5264 11.7333 13.5264 11.7333 13.5264 11.7333L13.5264 11.7333C13.5264 11.7333 13.5264 11.7333 13.5264 11.7333C13.5264 11.7333 13.5264 11.7333 13.5264 11.7333L13.5264 11.7333C13.5264 11.7333 13.5264 11.7333 13.5264 11.7333C13.5264 11.7333 13.5264 11.7333 13.5264 11.7333L13.5264 11.7333C13.5264 11.7333 13.5264 11.7333 13.5264 11.7333C13.5264 11.7333 13.5264 11.7333 13.5264 11.7333L13.5264 11.7333C13.5264 11.7333 13.5264 11.7333 13.5264 11.7333C13.5264 11.7333 13.5264 11.7333 13.5264 11.7333L13.5264 11.7333C13.5264 11.7333 13.5264 11.7333 13.5264 11.7333C13.5264 11.7333 13.5264 11.7333 13.5264 11.7333L13.5264 11.7333C13.5264 11.7333 13.5264 11.7333 13.5264 11.7333C13.5264 11.7333 13.5264 11.7333 13.5264 11.7333L13.5264 11.7333C13.5264 11.7333 13.5264 11.7333 13.5264 11.7333C13.5264 11.7333 13.5264 11.7333 13.5264 11.7333L13.5264 11.7333C13.5264 11.7333 13.5264 11.7333 13.5264 11.7333C13.5264 11.7333 13.5264 11.7333 13.5264 11.7333L13.5264 11.7333C13.5264 11.7333 13.5264 11.7333 13.5264 11.7333C13.5264 11.7333 13.5264 11.7333 13.5264 11.7333L13.5264 11.7333C13.5264 11.7333 13.5264 11.7333 13.5264 11.7333C13.5264 11.7333 13.5264 11.7333 13.5264 11.7333L13.5264 11.7333L13.3773 11.8665ZM13.3774 11.8667C13.9052 12.4574 13.8542 13.3641 13.2635 13.8919L13.3968 14.041C14.0699 13.4396 14.1279 12.4065 13.5265 11.7334L13.3774 11.8667ZM13.2635 13.8919C12.6728 14.4197 11.7661 14.3688 11.2383 13.7781L11.0892 13.9113C11.6906 14.5844 12.7237 14.6425 13.3968 14.041L13.2635 13.8919ZM11.2383 13.7781C11.1926 13.7269 11.1512 13.6733 11.1142 13.6179L10.9479 13.7291C10.9901 13.7922 11.0372 13.8531 11.0892 13.9113L11.2383 13.7781ZM11.11 13.6122L5.86718 6.85136L5.70913 6.97392L10.952 13.7348L11.11 13.6122ZM5.85478 6.98721L7.20749 5.7785L7.07423 5.62936L5.72152 6.83807L5.85478 6.98721ZM7.07139 5.77585L13.219 11.7139L13.3579 11.5701L7.21034 5.632L7.07139 5.77585ZM13.2244 11.7189C13.278 11.7635 13.329 11.8126 13.3769 11.8662L13.526 11.7329C13.4715 11.6719 13.4135 11.616 13.3524 11.5652L13.2244 11.7189ZM13.382 11.8715L13.3824 11.8718L13.5213 11.7279L13.521 11.7276L13.382 11.8715ZM13.3852 11.7253L13.3852 11.7253L13.5185 11.8745L13.5185 11.8745L13.3852 11.7253Z" fill="black"/>
</mask>
<g mask="url(#mask0_4116_73263)">
<path d="M12.5132 13.2207C11.8105 13.8485 11.2886 13.6732 10.6747 13.2348L11.3259 15.096L13.0895 15.0257L14.4619 13.7994L13.8145 11.6386C11.3104 9.26899 6.8296 5.11983 8.9388 7.4803C11.5753 10.4309 13.3915 12.4358 12.5132 13.2207Z" fill="#FFC664"/>
<path d="M10.6747 13.2348L10.7328 13.1534L10.4762 12.9701L10.5803 13.2678L10.6747 13.2348ZM13.8145 11.6386L13.9103 11.6099L13.9026 11.5843L13.8832 11.566L13.8145 11.6386ZM14.4619 13.7994L14.5285 13.874L14.5759 13.8316L14.5576 13.7707L14.4619 13.7994ZM13.0895 15.0257L13.0935 15.1256L13.1293 15.1242L13.1561 15.1003L13.0895 15.0257ZM11.3259 15.096L11.2315 15.129L11.2559 15.1989L11.3299 15.1959L11.3259 15.096ZM10.6166 13.3162C10.9265 13.5375 11.2296 13.7052 11.5538 13.7273C11.884 13.7499 12.2155 13.6208 12.5798 13.2952L12.4465 13.1461C12.1082 13.4484 11.8274 13.5455 11.5675 13.5278C11.3016 13.5096 11.0368 13.3705 10.7328 13.1534L10.6166 13.3162ZM12.5798 13.2952C12.8362 13.0661 12.8866 12.7499 12.7929 12.3828C12.7003 12.0204 12.4647 11.592 12.1261 11.1055C11.448 10.1311 10.3296 8.88669 9.01337 7.41367L8.86424 7.54693C10.1845 9.02452 11.2925 10.2579 11.962 11.2198C12.2972 11.7015 12.5157 12.1058 12.5991 12.4323C12.6812 12.754 12.6293 12.9828 12.4465 13.1461L12.5798 13.2952ZM9.01337 7.41367C8.74931 7.11815 8.5927 6.9292 8.52232 6.82726C8.5048 6.80189 8.4948 6.78498 8.48991 6.77499C8.48741 6.76991 8.48767 6.76947 8.48847 6.7725C8.48869 6.77332 8.4935 6.7898 8.48702 6.81221C8.47796 6.84358 8.4528 6.8668 8.4235 6.87472C8.40254 6.88038 8.38734 6.87613 8.38678 6.87599C8.38383 6.87525 8.3897 6.87661 8.4086 6.88754C8.4812 6.92955 8.62541 7.04008 8.83037 7.21075C9.03277 7.37928 9.28822 7.60114 9.58028 7.86045C10.7486 8.89777 12.4938 10.5266 13.7457 11.7113L13.8832 11.566C12.6311 10.3811 10.8839 8.75044 9.71306 7.71089C9.42033 7.45098 9.16309 7.22754 8.95834 7.05705C8.75615 6.88869 8.59875 6.76649 8.50875 6.71443C8.487 6.70184 8.46092 6.68836 8.43521 6.68194C8.42327 6.67896 8.399 6.67417 8.37134 6.68164C8.33534 6.69136 8.30584 6.71875 8.29488 6.75671C8.2865 6.78571 8.29184 6.8112 8.29508 6.8235C8.29891 6.83803 8.3047 6.85156 8.3103 6.86299C8.3216 6.88604 8.33803 6.91235 8.35774 6.94089C8.43624 7.0546 8.601 7.25234 8.86424 7.54693L9.01337 7.41367ZM13.7187 11.6673L14.3661 13.8281L14.5576 13.7707L13.9103 11.6099L13.7187 11.6673ZM14.3952 13.7249L13.0229 14.9511L13.1561 15.1003L14.5285 13.874L14.3952 13.7249ZM13.0855 14.9258L11.3219 14.9961L11.3299 15.1959L13.0935 15.1256L13.0855 14.9258ZM11.4203 15.063L10.7691 13.2018L10.5803 13.2678L11.2315 15.129L11.4203 15.063Z" fill="#01090F"/>
</g>
<path d="M13.4518 11.7989L13.3852 11.7244L13.3106 11.791L13.3773 11.8656L13.4518 11.7989ZM13.452 11.7991L13.5265 11.7324L13.452 11.7991ZM11.031 13.6725L11.1144 13.6168L11.11 13.6112L11.031 13.6725ZM5.78815 6.91166L5.72152 6.8371L5.65197 6.89924L5.70913 6.97294L5.78815 6.91166ZM7.14086 5.70295L7.21034 5.63103L7.14351 5.56648L7.07423 5.62838L7.14086 5.70295ZM13.2884 11.641L13.2188 11.7132L13.2244 11.7179L13.2884 11.641ZM13.4515 11.7985L13.3767 11.8654L13.382 11.8705L13.4515 11.7985ZM13.4519 11.7989L13.5185 11.8735L13.5988 11.8017L13.5213 11.727L13.4519 11.7989ZM13.3773 11.8656C13.3773 11.8656 13.3773 11.8656 13.3773 11.8656C13.3773 11.8657 13.3774 11.8657 13.3774 11.8657L13.5265 11.7324C13.5265 11.7324 13.5265 11.7324 13.5265 11.7324C13.5264 11.7323 13.5264 11.7323 13.5264 11.7323L13.3773 11.8656ZM13.3774 11.8657C13.9052 12.4564 13.8542 13.3631 13.2635 13.8909L13.3968 14.0401C14.0699 13.4387 14.1279 12.4055 13.5265 11.7324L13.3774 11.8657ZM13.2635 13.8909C12.6728 14.4187 11.7661 14.3678 11.2383 13.7771L11.0892 13.9103C11.6906 14.5834 12.7237 14.6415 13.3968 14.0401L13.2635 13.8909ZM11.2383 13.7771C11.1926 13.7259 11.1512 13.6724 11.1142 13.617L10.9479 13.7281C10.9901 13.7912 11.0372 13.8522 11.0892 13.9103L11.2383 13.7771ZM11.11 13.6112L5.86718 6.85038L5.70913 6.97294L10.952 13.7338L11.11 13.6112ZM5.85478 6.98623L7.20749 5.77752L7.07423 5.62838L5.72152 6.8371L5.85478 6.98623ZM7.07139 5.77488L13.219 11.713L13.3579 11.5691L7.21034 5.63103L7.07139 5.77488ZM13.2244 11.7179C13.278 11.7625 13.329 11.8116 13.3769 11.8652L13.526 11.7319C13.4715 11.671 13.4135 11.6151 13.3524 11.5642L13.2244 11.7179ZM13.382 11.8705L13.3824 11.8708L13.5213 11.727L13.521 11.7266L13.382 11.8705ZM13.3852 11.7243L13.3852 11.7244L13.5185 11.8735L13.5185 11.8735L13.3852 11.7243Z" fill="#01090F"/>
</g>
<defs>
<clipPath id="clip0_4116_73263">
<rect width="16" height="16" fill="white"/>
</clipPath>
</defs>
</svg>
