<svg width="16" height="16" viewBox="0 0 16 16" fill="none" xmlns="http://www.w3.org/2000/svg">
<g clip-path="url(#clip0_4116_73385)">
<rect x="1.55054" y="6.34326" width="1.12342" height="1.43083" transform="rotate(-35.6403 1.55054 6.34326)" fill="#97DDE5"/>
<rect x="13.657" y="5.63062" width="1.02133" height="1.61292" transform="rotate(35.8535 13.657 5.63062)" fill="#97DDE5"/>
<path d="M6.18748 12.675L1.67456 8.44116H14.3088L9.99797 12.5211L6.18748 12.675Z" fill="#4AC7D3" stroke="#01090F" stroke-width="0.2"/>
<rect x="7.42847" y="10.0386" width="1.12342" height="1.27978" fill="#FFC664"/>
<path d="M15.9695 7.74407L15.6881 8.29579C15.6395 8.38943 15.5426 8.44807 15.437 8.4475H0.563189C0.457553 8.44807 0.360688 8.38942 0.312083 8.29579L0.0307165 7.74407C-0.012694 7.65783 -0.00796044 7.55507 0.043416 7.47322C0.0947903 7.39137 0.185189 7.34242 0.281706 7.34403H15.7183C15.8148 7.34242 15.9052 7.39137 15.9565 7.47322C16.0079 7.55508 16.0127 7.65783 15.9692 7.74407H15.9695Z" fill="#FFC664" stroke="#01090F" stroke-width="0.2" stroke-linecap="round" stroke-linejoin="round"/>
<path d="M10.2061 13.4129C10.2061 14.6316 9.21809 15.6196 7.99931 15.6196C6.78052 15.6196 5.79248 14.6316 5.79248 13.4129C5.79248 12.1941 6.78052 11.2061 7.99931 11.2061C9.21809 11.2061 10.2061 12.1941 10.2061 13.4129Z" fill="#97DDE5" stroke="#01090F" stroke-width="0.2" stroke-linecap="round" stroke-linejoin="round"/>
<path d="M9.10323 13.4126C9.10323 14.0219 8.60921 14.5159 7.99986 14.5159C7.3905 14.5159 6.89648 14.0219 6.89648 13.4126C6.89648 12.8031 7.3905 12.3091 7.99986 12.3091C8.60921 12.3091 9.10323 12.8031 9.10323 13.4126Z" fill="#FFC664" stroke="#01090F" stroke-width="0.2" stroke-linecap="round" stroke-linejoin="round"/>
<path d="M3.40405 8.448C3.80409 9.31422 5.42882 9.98454 7.44801 10.0866C7.6273 10.0977 7.81213 10.1031 7.99974 10.1031C8.18734 10.1031 8.3694 10.0976 8.55146 10.0866C10.5707 9.98454 12.1954 9.31425 12.5954 8.448" fill="#97DDE5"/>
<path d="M3.40405 8.448C3.80409 9.31422 5.42882 9.98454 7.44801 10.0866C7.6273 10.0977 7.81213 10.1031 7.99974 10.1031C8.18734 10.1031 8.3694 10.0976 8.55146 10.0866C10.5707 9.98454 12.1954 9.31425 12.5954 8.448" stroke="#01090F" stroke-width="0.2" stroke-linecap="round" stroke-linejoin="round"/>
<path d="M7.44849 11.2749V10.0859V11.2749Z" fill="#97DDE5"/>
<path d="M7.44849 11.2749V10.0859" stroke="#01090F" stroke-width="0.2" stroke-linecap="round" stroke-linejoin="round"/>
<path d="M8.55103 11.2749V10.0859V11.2749Z" fill="#97DDE5"/>
<path d="M8.55103 11.2749V10.0859" stroke="#01090F" stroke-width="0.2" stroke-linecap="round" stroke-linejoin="round"/>
<path d="M5.98316 12.5195L1.67163 8.448L5.98316 12.5195Z" fill="#97DDE5"/>
<path d="M5.98316 12.5195L1.67163 8.448" stroke="#01090F" stroke-width="0.2" stroke-linecap="round" stroke-linejoin="round"/>
<path d="M14.3279 8.448L10.0164 12.5195L14.3279 8.448Z" fill="#97DDE5"/>
<path d="M14.3279 8.448L10.0164 12.5195" stroke="#01090F" stroke-width="0.2" stroke-linecap="round" stroke-linejoin="round"/>
<path d="M13.2408 7.34406C13.2408 6.43097 10.8961 5.68896 7.99961 5.68896C5.837 5.68896 3.98048 6.10274 3.18051 6.69027V6.69039C2.94419 6.82904 2.78751 7.07161 2.75854 7.34407" fill="#97DDE5"/>
<path d="M13.2408 7.34406C13.2408 6.43097 10.8961 5.68896 7.99961 5.68896C5.837 5.68896 3.98048 6.10274 3.18051 6.69027V6.69039C2.94419 6.82904 2.78751 7.07161 2.75854 7.34407" stroke="#01090F" stroke-width="0.2" stroke-linecap="round" stroke-linejoin="round"/>
<path d="M10.1785 5.83822C10.126 5.55192 9.99888 5.28465 9.81001 5.06331C9.62114 4.84187 9.37707 4.67436 9.10265 4.57748C8.9259 4.51317 8.73911 4.4805 8.55104 4.48096H7.44755C7.25949 4.4805 7.07267 4.51317 6.89594 4.57748C6.62151 4.67434 6.37745 4.84186 6.18858 5.06331C5.9997 5.28463 5.87259 5.55189 5.82007 5.83822" fill="#4AC7D3"/>
<path d="M10.1785 5.83822C10.126 5.55192 9.99888 5.28465 9.81001 5.06331C9.62114 4.84187 9.37707 4.67436 9.10265 4.57748C8.9259 4.51317 8.73911 4.4805 8.55104 4.48096H7.44755C7.25949 4.4805 7.07267 4.51317 6.89594 4.57748C6.62151 4.67434 6.37745 4.84186 6.18858 5.06331C5.9997 5.28463 5.87259 5.55189 5.82007 5.83822" stroke="#01090F" stroke-width="0.2" stroke-linecap="round" stroke-linejoin="round"/>
<path d="M9.10319 4.57779V3.92954C9.10285 3.78338 9.04455 3.64335 8.94122 3.53991C8.83777 3.43658 8.69773 3.37827 8.55158 3.37793H7.4481C7.30194 3.37828 7.1619 3.43658 7.05846 3.53991C6.95513 3.64335 6.89683 3.78339 6.89648 3.92954V4.57779" fill="#97DDE5"/>
<path d="M9.10319 3.92954H9.20319L9.20319 3.92931L9.10319 3.92954ZM8.94122 3.53991L9.01197 3.46923L9.01189 3.46916L8.94122 3.53991ZM8.55158 3.37793L8.55182 3.27793H8.55158V3.37793ZM7.4481 3.37793V3.27793L7.44786 3.27793L7.4481 3.37793ZM7.05846 3.53991L6.98779 3.46916L6.98771 3.46924L7.05846 3.53991ZM6.89648 3.92954L6.79648 3.92931V3.92954H6.89648ZM9.20319 4.57779V3.92954H9.00319V4.57779H9.20319ZM9.20319 3.92931C9.20279 3.75665 9.13392 3.59132 9.01197 3.46924L8.87047 3.61058C8.95518 3.69538 9.00291 3.81011 9.00319 3.92978L9.20319 3.92931ZM9.01189 3.46916C8.88981 3.34721 8.72446 3.27834 8.55182 3.27793L8.55134 3.47793C8.671 3.47821 8.78574 3.52595 8.87055 3.61066L9.01189 3.46916ZM8.55158 3.27793H7.4481V3.47793H8.55158V3.27793ZM7.44786 3.27793C7.27521 3.27834 7.10987 3.34721 6.98779 3.46916L7.12913 3.61066C7.21394 3.52595 7.32867 3.47821 7.44834 3.47793L7.44786 3.27793ZM6.98771 3.46924C6.86576 3.59132 6.79689 3.75666 6.79648 3.92931L6.99648 3.92978C6.99677 3.81012 7.0445 3.69538 7.12921 3.61058L6.98771 3.46924ZM6.79648 3.92954V4.57779H6.99648V3.92954H6.79648Z" fill="#01090F"/>
<path d="M8.55195 3.37754V2.93064C8.55091 2.78459 8.49238 2.64489 8.38916 2.54169C8.28595 2.4385 8.14626 2.37994 8.00022 2.37891C7.85405 2.37937 7.71391 2.43767 7.61058 2.541C7.50725 2.64433 7.44895 2.78448 7.44849 2.93064V3.37754" fill="#FFC664"/>
<path d="M8.55195 3.37754V2.93064C8.55091 2.78459 8.49238 2.64489 8.38916 2.54169C8.28595 2.4385 8.14626 2.37994 8.00022 2.37891C7.85405 2.37937 7.71391 2.43767 7.61058 2.541C7.50725 2.64433 7.44895 2.78448 7.44849 2.93064V3.37754" stroke="#01090F" stroke-width="0.2" stroke-linecap="round" stroke-linejoin="round"/>
<path d="M2.75855 4.8611C2.75855 5.62283 2.14101 6.24038 1.37928 6.24038C0.617545 6.24038 0 5.62283 0 4.8611C0 4.09937 0.617545 3.48193 1.37928 3.48193C2.14101 3.48193 2.75855 4.09937 2.75855 4.8611Z" fill="#4AC7D3" stroke="#01090F" stroke-width="0.2" stroke-linecap="round" stroke-linejoin="round"/>
<path d="M2.29006 7.34473L1.479 6.23584L2.29006 7.34473Z" fill="#97DDE5"/>
<path d="M2.29006 7.34473L1.479 6.23584" stroke="#01090F" stroke-width="0.2" stroke-linecap="round" stroke-linejoin="round"/>
<path d="M3.18056 6.68997L2.46338 5.71338L3.18056 6.68997Z" fill="#97DDE5"/>
<path d="M3.18056 6.68997L2.46338 5.71338" stroke="#01090F" stroke-width="0.2" stroke-linecap="round" stroke-linejoin="round"/>
<path d="M2.20703 3.75851L2.75876 3.20679L2.20703 3.75851Z" fill="#97DDE5"/>
<path d="M2.20703 3.75851L2.75876 3.20679" stroke="#01090F" stroke-width="0.2" stroke-linecap="round" stroke-linejoin="round"/>
<path d="M0.551727 3.75851L0 3.20679L0.551727 3.75851Z" fill="#97DDE5"/>
<path d="M0.551727 3.75851L0 3.20679" stroke="#01090F" stroke-width="0.2" stroke-linecap="round" stroke-linejoin="round"/>
<path d="M15.9995 4.8611C15.9995 5.62283 15.382 6.24038 14.6202 6.24038C13.8585 6.24038 13.241 5.62283 13.241 4.8611C13.241 4.09937 13.8585 3.48193 14.6202 3.48193C15.382 3.48193 15.9995 4.09937 15.9995 4.8611Z" fill="#4AC7D3" stroke="#01090F" stroke-width="0.2" stroke-linecap="round" stroke-linejoin="round"/>
<path d="M14.5205 6.23584L13.7095 7.34473L14.5205 6.23584Z" fill="#97DDE5"/>
<path d="M14.5205 6.23584L13.7095 7.34473" stroke="#01090F" stroke-width="0.2" stroke-linecap="round" stroke-linejoin="round"/>
<path d="M13.5363 5.71338L12.8191 6.68997L13.5363 5.71338Z" fill="#97DDE5"/>
<path d="M13.5363 5.71338L12.8191 6.68997" stroke="#01090F" stroke-width="0.2" stroke-linecap="round" stroke-linejoin="round"/>
<path d="M13.7927 3.75851L13.241 3.20679L13.7927 3.75851Z" fill="#97DDE5"/>
<path d="M13.7927 3.75851L13.241 3.20679" stroke="#01090F" stroke-width="0.2" stroke-linecap="round" stroke-linejoin="round"/>
<path d="M15.4485 3.75851L16.0002 3.20679L15.4485 3.75851Z" fill="#97DDE5"/>
<path d="M15.4485 3.75851L16.0002 3.20679" stroke="#01090F" stroke-width="0.2" stroke-linecap="round" stroke-linejoin="round"/>
<line x1="6.94775" y1="4.54014" x2="9.10318" y2="4.54014" stroke="#01090F" stroke-width="0.2"/>
<line x1="7.49829" y1="3.35312" x2="8.55195" y2="3.35313" stroke="#01090F" stroke-width="0.2"/>
<line x1="5.84375" y1="5.73789" x2="10.2063" y2="5.73789" stroke="#01090F" stroke-width="0.2"/>
</g>
<defs>
<clipPath id="clip0_4116_73385">
<rect width="16" height="16" fill="white"/>
</clipPath>
</defs>
</svg>
