<svg width="45" height="46" viewBox="0 0 45 46" fill="none" xmlns="http://www.w3.org/2000/svg">
<g clip-path="url(#clip0_4398_6460)">
<path d="M39.8627 23.1257C39.8627 31.7749 32.8511 38.7865 24.2018 38.7865C15.5526 38.7865 8.54102 31.7749 8.54102 23.1257C8.54102 14.4764 15.5526 7.46484 24.2018 7.46484C32.8511 7.46484 39.8627 14.4764 39.8627 23.1257Z" fill="#BD80FF" stroke="black" stroke-width="0.5"/>
<path d="M20.5716 14.5883L20.5827 14.6031L20.5959 14.6162C20.7074 14.7264 20.7774 14.9498 20.7398 15.3463C20.7032 15.732 20.5698 16.2214 20.3577 16.7868C19.9345 17.9149 19.2191 19.2911 18.437 20.6419C17.6562 21.9904 16.8145 23.3041 16.1436 24.3047C15.8082 24.8049 15.516 25.2261 15.2962 25.5334C15.1862 25.6872 15.0949 25.8117 15.0256 25.903C14.991 25.9487 14.9625 25.9851 14.9405 26.0122C14.9295 26.0258 14.9207 26.0363 14.9139 26.0441C14.9135 26.0446 14.9132 26.045 14.9128 26.0455C14.5513 26.3104 14.0835 26.5653 13.5077 26.6543C13.3774 26.6562 13.2249 26.6771 13.0798 26.6969C13.0614 26.6994 13.0433 26.7019 13.0252 26.7043C12.8475 26.7282 12.6683 26.75 12.4927 26.75H10.0906C9.73774 25.5712 9.50002 24.3086 9.37821 23.0445L9.37619 23.0236L9.37073 23.0034C9.25173 22.5623 9.25 22.0231 9.25 21.4384C9.25 20.379 9.25115 19.3543 9.50152 18.3335L9.52201 18.25L9.48676 18.1715C9.44169 18.0712 9.46039 17.9882 9.50915 17.8889C9.52182 17.8631 9.53564 17.8381 9.55106 17.8106C9.55256 17.808 9.55411 17.8052 9.5557 17.8024C9.56893 17.7789 9.58518 17.75 9.59854 17.723C9.61249 17.6947 9.63407 17.6477 9.64325 17.5929C9.64737 17.5682 9.64946 17.5384 9.64622 17.506C10.0174 16.0519 10.5053 14.6071 11.2198 13.25H17.5377C18.8952 13.25 19.9794 13.7982 20.5716 14.5883Z" fill="#A041FF" stroke="#01090F" stroke-width="0.5"/>
<mask id="path-4-inside-1_4398_6460" fill="white">
<path d="M39.842 19.4343C39.7097 18.839 39.5774 18.2438 39.3129 17.7146C38.9822 16.7226 38.4531 15.7305 37.9239 14.8706C37.5271 14.1431 36.998 13.4817 36.4027 12.8203H33.5587C33.2942 12.8203 33.0296 12.8865 32.8312 12.9526C32.7651 13.0187 32.6989 13.0187 32.5666 13.0849C32.1037 13.3494 31.1777 13.9447 30.7809 15.0029C30.1195 16.6564 28.466 17.6485 26.6802 17.6485H23.2409C21.9843 17.6485 20.9922 18.7067 20.9922 20.0957C20.9922 20.0957 21.1245 20.9555 21.389 22.2783C21.6536 23.4688 21.7197 24.6593 21.6536 25.8498C21.5874 27.5695 22.0504 29.6198 23.1748 31.5378C25.159 34.9771 28.3998 36.8952 30.9131 36.2338C31.1116 36.366 31.4631 36.8538 31.7276 36.92C31.7276 36.92 33.0917 36.4446 35.6547 33.8817C35.7869 33.7494 36.0598 33.5014 36.192 33.3029C37.118 32.377 37.7917 31.0749 38.4531 29.8843C38.916 29.0907 39.3129 28.1647 39.5774 27.3049C40.0404 25.8498 40.305 24.3286 40.305 22.7413C40.1727 21.5507 40.0404 20.4925 39.842 19.4343Z"/>
</mask>
<path d="M39.842 19.4343C39.7097 18.839 39.5774 18.2438 39.3129 17.7146C38.9822 16.7226 38.4531 15.7305 37.9239 14.8706C37.5271 14.1431 36.998 13.4817 36.4027 12.8203H33.5587C33.2942 12.8203 33.0296 12.8865 32.8312 12.9526C32.7651 13.0187 32.6989 13.0187 32.5666 13.0849C32.1037 13.3494 31.1777 13.9447 30.7809 15.0029C30.1195 16.6564 28.466 17.6485 26.6802 17.6485H23.2409C21.9843 17.6485 20.9922 18.7067 20.9922 20.0957C20.9922 20.0957 21.1245 20.9555 21.389 22.2783C21.6536 23.4688 21.7197 24.6593 21.6536 25.8498C21.5874 27.5695 22.0504 29.6198 23.1748 31.5378C25.159 34.9771 28.3998 36.8952 30.9131 36.2338C31.1116 36.366 31.4631 36.8538 31.7276 36.92C31.7276 36.92 33.0917 36.4446 35.6547 33.8817C35.7869 33.7494 36.0598 33.5014 36.192 33.3029C37.118 32.377 37.7917 31.0749 38.4531 29.8843C38.916 29.0907 39.3129 28.1647 39.5774 27.3049C40.0404 25.8498 40.305 24.3286 40.305 22.7413C40.1727 21.5507 40.0404 20.4925 39.842 19.4343Z" fill="#A041FF"/>
<path d="M39.842 19.4343L40.3334 19.3421L40.3319 19.3339L40.3301 19.3258L39.842 19.4343ZM39.3129 17.7146L38.8385 17.8728L38.8498 17.9065L38.8657 17.9383L39.3129 17.7146ZM37.9239 14.8706L37.485 15.1101L37.4913 15.1216L37.4981 15.1327L37.9239 14.8706ZM36.4027 12.8203L36.7744 12.4858L36.6254 12.3203H36.4027V12.8203ZM32.8312 12.9526L32.6731 12.4783L32.5611 12.5156L32.4776 12.599L32.8312 12.9526ZM32.5666 13.0849L32.343 12.6377L32.3306 12.6439L32.3186 12.6507L32.5666 13.0849ZM30.7809 15.0029L31.2452 15.1887L31.249 15.1785L30.7809 15.0029ZM20.9922 20.0957H20.4922V20.1339L20.498 20.1717L20.9922 20.0957ZM21.389 22.2783L20.8986 22.3764L20.9009 22.3868L21.389 22.2783ZM21.6536 25.8498L21.1543 25.8221L21.154 25.8306L21.6536 25.8498ZM23.1748 31.5378L23.6079 31.288L23.6061 31.285L23.1748 31.5378ZM30.9131 36.2338L31.1905 35.8177L31.0034 35.693L30.7859 35.7502L30.9131 36.2338ZM31.7276 36.92L31.6063 37.405L31.7512 37.4412L31.8922 37.3921L31.7276 36.92ZM36.192 33.3029L35.8385 32.9494L35.8035 32.9844L35.776 33.0256L36.192 33.3029ZM38.4531 29.8843L38.0211 29.6324L38.016 29.6415L38.4531 29.8843ZM39.5774 27.3049L39.101 27.1533L39.0996 27.1579L39.5774 27.3049ZM40.305 22.7413H40.805V22.7136L40.8019 22.686L40.305 22.7413ZM40.3301 19.3258C40.2004 18.7424 40.057 18.0848 39.7601 17.491L38.8657 17.9383C39.0979 18.4027 39.219 18.9357 39.3539 19.5427L40.3301 19.3258ZM39.7872 17.5565C39.4393 16.5129 38.8884 15.4839 38.3498 14.6086L37.4981 15.1327C38.0177 15.977 38.525 16.9322 38.8385 17.8728L39.7872 17.5565ZM38.3629 14.6312C37.9387 13.8535 37.3798 13.1585 36.7744 12.4858L36.0311 13.1548C36.6162 13.8049 37.1155 14.4327 37.485 15.1101L38.3629 14.6312ZM36.4027 12.3203H33.5587V13.3203H36.4027V12.3203ZM33.5587 12.3203C33.2185 12.3203 32.8965 12.4038 32.6731 12.4783L32.9893 13.4269C33.1628 13.3691 33.3698 13.3203 33.5587 13.3203V12.3203ZM32.4776 12.599C32.4924 12.5843 32.5098 12.571 32.527 12.5609C32.5413 12.5525 32.5495 12.5499 32.538 12.5545C32.5224 12.5607 32.434 12.5922 32.343 12.6377L32.7902 13.5321C32.8316 13.5114 32.8423 13.5098 32.9094 13.483C32.9772 13.4558 33.0822 13.4087 33.1847 13.3061L32.4776 12.599ZM32.3186 12.6507C31.8387 12.9249 30.775 13.5945 30.3127 14.8274L31.249 15.1785C31.5804 14.2949 32.3686 13.7739 32.8147 13.519L32.3186 12.6507ZM30.3166 14.8172C29.7403 16.258 28.2874 17.1485 26.6802 17.1485V18.1485C28.6446 18.1485 30.4986 17.0549 31.2451 15.1886L30.3166 14.8172ZM26.6802 17.1485H23.2409V18.1485H26.6802V17.1485ZM23.2409 17.1485C21.6719 17.1485 20.4922 18.4683 20.4922 20.0957H21.4922C21.4922 18.9452 22.2966 18.1485 23.2409 18.1485V17.1485ZM20.9922 20.0957C20.498 20.1717 20.498 20.1717 20.498 20.1717C20.498 20.1718 20.498 20.1718 20.498 20.1718C20.498 20.1719 20.498 20.1719 20.498 20.172C20.4981 20.1721 20.4981 20.1723 20.4981 20.1726C20.4982 20.1731 20.4983 20.1738 20.4985 20.1748C20.4988 20.1766 20.4992 20.1793 20.4997 20.1828C20.5008 20.1898 20.5024 20.2 20.5045 20.2134C20.5088 20.2403 20.5151 20.2798 20.5235 20.3313C20.5403 20.4341 20.5654 20.5847 20.5988 20.7766C20.6656 21.1605 20.7655 21.7103 20.8987 22.3763L21.8793 22.1802C21.748 21.5235 21.6495 20.982 21.584 20.6053C21.5512 20.4169 21.5267 20.2698 21.5105 20.1701C21.5023 20.1203 21.4962 20.0823 21.4922 20.057C21.4902 20.0443 21.4887 20.0348 21.4878 20.0285C21.4873 20.0254 21.4869 20.0231 21.4867 20.0216C21.4866 20.0209 21.4865 20.0203 21.4864 20.02C21.4864 20.0198 21.4864 20.0197 21.4864 20.0197C21.4864 20.0196 21.4864 20.0196 21.4864 20.0196C21.4864 20.0196 21.4864 20.0196 21.4864 20.0196C21.4864 20.0196 21.4864 20.0196 20.9922 20.0957ZM20.9009 22.3868C21.1539 23.5249 21.2184 24.6687 21.1544 25.8221L22.1528 25.8776C22.221 24.65 22.1533 23.4127 21.8771 22.1698L20.9009 22.3868ZM21.154 25.8306C21.084 27.6491 21.5726 29.7934 22.7434 31.7907L23.6061 31.285C22.5282 29.4462 22.0909 27.4898 22.1532 25.869L21.154 25.8306ZM22.7417 31.7877C23.7709 33.5716 25.1341 34.9763 26.5875 35.8518C28.0365 36.7247 29.6147 37.0925 31.0404 36.7173L30.7859 35.7502C29.6982 36.0364 28.3994 35.7759 27.1036 34.9953C25.8122 34.2173 24.5629 32.9434 23.6079 31.288L22.7417 31.7877ZM30.6358 36.6498C30.6327 36.6477 30.64 36.6525 30.6603 36.6707C30.6794 36.6878 30.7029 36.7104 30.7323 36.74C30.7617 36.7695 30.7929 36.8019 30.8285 36.8388C30.8631 36.8746 30.9015 36.9144 30.9408 36.954C31.0179 37.0316 31.1106 37.1209 31.2093 37.1978C31.3007 37.269 31.4384 37.363 31.6063 37.405L31.8489 36.4349C31.8845 36.4438 31.8791 36.452 31.824 36.4091C31.7762 36.3718 31.719 36.3185 31.6503 36.2493C31.6168 36.2156 31.5833 36.1809 31.5481 36.1444C31.5138 36.1089 31.4771 36.0708 31.4415 36.0349C31.3777 35.9708 31.2868 35.8819 31.1905 35.8177L30.6358 36.6498ZM31.7276 36.92C31.8922 37.3921 31.8924 37.392 31.8927 37.3919C31.8928 37.3919 31.893 37.3918 31.8932 37.3917C31.8936 37.3916 31.894 37.3915 31.8944 37.3913C31.8952 37.391 31.8962 37.3907 31.8972 37.3903C31.8992 37.3896 31.9015 37.3888 31.9041 37.3878C31.9094 37.3859 31.9161 37.3834 31.924 37.3803C31.9398 37.3742 31.9608 37.3657 31.987 37.3546C32.0394 37.3323 32.1125 37.2992 32.2058 37.2522C32.3925 37.1581 32.6603 37.0084 33.0066 36.7784C33.6993 36.3185 34.7065 35.5369 36.0082 34.2352L35.3011 33.5281C34.0399 34.7893 33.0836 35.5269 32.4534 35.9454C32.1384 36.1546 31.905 36.2839 31.7558 36.3591C31.6812 36.3967 31.6277 36.4207 31.5954 36.4345C31.5793 36.4413 31.5686 36.4456 31.5632 36.4477C31.5604 36.4487 31.5591 36.4492 31.5591 36.4492C31.5591 36.4492 31.5594 36.4491 31.5601 36.4489C31.5604 36.4487 31.5608 36.4486 31.5613 36.4484C31.5616 36.4483 31.5618 36.4482 31.5621 36.4481C31.5623 36.4481 31.5625 36.448 31.5626 36.448C31.5628 36.4479 31.5631 36.4478 31.7276 36.92ZM36.0082 34.2352C36.0493 34.1942 36.1861 34.0634 36.2805 33.9671C36.385 33.8604 36.5143 33.7209 36.6081 33.5803L35.776 33.0256C35.7375 33.0834 35.6643 33.1671 35.5662 33.2671C35.4581 33.3775 35.3923 33.4369 35.3011 33.5281L36.0082 34.2352ZM36.5456 33.6565C37.5334 32.6687 38.245 31.2883 38.8901 30.1272L38.016 29.6415C37.3383 30.8614 36.7026 32.0853 35.8385 32.9494L36.5456 33.6565ZM38.885 30.1363C39.3685 29.3073 39.7803 28.3459 40.0553 27.4519L39.0996 27.1579C38.8455 27.9836 38.4636 28.874 38.0212 29.6324L38.885 30.1363ZM40.0539 27.4565C40.5309 25.9574 40.805 24.3851 40.805 22.7413H39.805C39.805 24.2722 39.5499 25.7422 39.101 27.1533L40.0539 27.4565ZM40.8019 22.686C40.6693 21.4928 40.5354 20.4194 40.3334 19.3421L39.3506 19.5264C39.5454 20.5656 39.6761 21.6087 39.808 22.7965L40.8019 22.686Z" fill="#01090F" mask="url(#path-4-inside-1_4398_6460)"/>
<path d="M0.175556 17.1339C-0.928035 22.8216 3.31655 27.8302 8.8345 28H16.8992C17.4934 28 18.0028 27.4907 18.0028 26.8964V19.0015C18.0028 13.3986 12.9942 9.06917 7.22156 10.1728C3.741 10.8519 0.854689 13.6533 0.175556 17.1339Z" fill="#01090F"/>
<path d="M9.00412 27.6391C13.7752 27.6391 17.643 23.7713 17.643 19.0002C17.643 14.2291 13.7752 10.3613 9.00412 10.3613C4.23299 10.3613 0.365234 14.2291 0.365234 19.0002C0.365234 23.7713 4.23299 27.6391 9.00412 27.6391Z" fill="#FFC664"/>
<path d="M10.7561 16.3212C10.6895 15.8609 10.49 15.4993 10.1241 15.2691C9.75824 15.0061 9.25935 14.8746 8.69393 14.8746C8.29481 14.8746 7.92894 14.9404 7.6296 15.0719C7.33026 15.2034 7.09745 15.3678 6.93115 15.5979C6.76485 15.828 6.69833 16.0582 6.69833 16.3541C6.69833 16.5842 6.76485 16.7815 6.86463 16.9458C6.96441 17.1102 7.1307 17.2746 7.297 17.3732C7.49656 17.4719 7.66286 17.5705 7.89568 17.6691C8.09524 17.7349 8.29479 17.8006 8.49436 17.8664L9.4589 18.1294C9.79151 18.1952 10.0908 18.3267 10.4567 18.4582C10.7893 18.5897 11.0886 18.7541 11.388 18.9842C11.6873 19.2143 11.9202 19.4774 12.0865 19.7732C12.2528 20.0691 12.3525 20.4637 12.3525 20.9239C12.3525 21.4828 12.2195 21.976 11.9202 22.4034C11.6208 22.8308 11.2217 23.1924 10.6563 23.4226C10.0908 23.6856 9.42564 23.7842 8.66066 23.7842C7.92893 23.7842 7.26374 23.6527 6.73158 23.4226C6.19942 23.1924 5.76705 22.8636 5.43445 22.4363C5.13511 22.0089 4.96881 21.4828 4.93555 20.891H6.4655C6.49876 21.2527 6.59853 21.5486 6.83135 21.7787C7.03091 22.0089 7.297 22.2061 7.6296 22.3047C7.9622 22.4034 8.29481 22.4691 8.69393 22.4691C9.12631 22.4691 9.49216 22.4034 9.82476 22.2719C10.1574 22.1404 10.4234 21.9431 10.623 21.713C10.8226 21.4828 10.9224 21.1869 10.9224 20.8582C10.9224 20.5623 10.8226 20.3321 10.6563 20.1349C10.49 19.9376 10.2571 19.8061 9.99106 19.6746C9.69172 19.5431 9.39239 19.4445 9.02653 19.3458L7.82915 19.0171C7.03091 18.7869 6.39899 18.491 5.93335 18.0636C5.46771 17.6363 5.23488 17.0773 5.23488 16.4198C5.23488 15.8609 5.40118 15.3678 5.70052 14.9404C5.99986 14.513 6.43224 14.1842 6.9644 13.9541C7.49656 13.7239 8.09525 13.5924 8.76045 13.5924C9.42565 13.5924 10.0243 13.7239 10.5565 13.9541C11.0886 14.1842 11.4878 14.513 11.7871 14.9075C12.0864 15.302 12.2528 15.7952 12.2528 16.3212H10.7561ZM8.19503 24.8363L8.22828 12.4746H9.15956L9.1263 24.8363H8.19503Z" fill="#7304E2"/>
<path d="M41.0212 15.5577C36.0175 11.9346 29.2671 13.788 26.6233 19.0472L22.9992 26.8452C22.7321 27.4197 22.9957 28.1411 23.5703 28.4082L31.2041 31.956C36.6217 34.4738 43.0587 31.5765 44.5858 25.4988C45.4932 21.8282 44.0815 17.7784 41.0212 15.5577Z" fill="#01090F"/>
<path d="M26.8939 19.374C24.7499 23.9873 26.7516 29.4653 31.3649 31.6093C35.9782 33.7534 41.4562 31.7517 43.6003 27.1383C45.7443 22.525 43.7426 17.0471 39.1293 14.903C34.5159 12.7589 29.038 14.7607 26.8939 19.374Z" fill="#FFC664"/>
<path d="M38.2369 21.0366L37.6775 22.2354H29.9648L30.4044 21.0366H38.2369ZM37.1979 23.3943L36.6384 24.6331H30.0048L30.4444 23.3943H37.1979ZM39.6755 17.8396L38.9962 19.3182C38.7964 19.1184 38.5566 18.9586 38.2769 18.7987C38.0371 18.6389 37.7574 18.519 37.4377 18.4391C37.1579 18.3591 36.8383 18.3192 36.4786 18.3192C35.8392 18.3192 35.2797 18.479 34.8002 18.8387C34.3207 19.1584 33.921 19.6779 33.6413 20.3572C33.3616 21.0366 33.2417 21.8758 33.2417 22.8748C33.2417 23.8739 33.3616 24.7131 33.6413 25.3924C33.921 26.0718 34.3207 26.5513 34.8002 26.911C35.2797 27.2306 35.8392 27.4305 36.4786 27.4305C36.8383 27.4305 37.1579 27.3905 37.4377 27.3106C37.7174 27.2306 37.9972 27.1108 38.2769 26.9509C38.5167 26.7911 38.7564 26.6312 38.9562 26.4714L39.6755 27.95C39.2759 28.3096 38.7964 28.5893 38.2369 28.7892C37.6774 28.989 37.118 29.0689 36.5186 29.0689C35.5195 29.0689 34.6803 28.8291 33.921 28.3096C33.1618 27.8301 32.5623 27.1108 32.1228 26.1916C31.6832 25.2725 31.4834 24.1536 31.4834 22.9148C31.4834 21.636 31.6832 20.5171 32.1228 19.598C32.5623 18.6788 33.1618 17.9595 33.921 17.48C34.6803 17.0004 35.5595 16.7207 36.5186 16.7207C37.1579 16.7207 37.7174 16.8406 38.2769 17.0404C38.7564 17.1603 39.236 17.48 39.6755 17.8396Z" fill="#7304E2"/>
</g>
<defs>
<clipPath id="clip0_4398_6460">
<rect y="0.285156" width="45" height="45" rx="8" fill="white"/>
</clipPath>
</defs>
</svg>
