<svg width="16" height="16" viewBox="0 0 16 16" fill="none" xmlns="http://www.w3.org/2000/svg">
<g clip-path="url(#clip0_4116_73324)">
<path d="M1.56595 7.69403V7.69396C1.56587 7.57816 1.50898 7.47073 1.43247 7.39423C1.35598 7.31773 1.24855 7.26084 1.13276 7.26084H0.333191C0.210513 7.26084 0.10051 7.30218 0.0209253 7.38177C-0.0586593 7.46135 -0.1 7.57135 -0.1 7.69403V10.7589C-0.1 10.8816 -0.0586593 10.9916 0.0209253 11.0712C0.10051 11.1508 0.210513 11.1921 0.333191 11.1921H1.13276C1.25543 11.1921 1.36544 11.1508 1.44502 11.0712C1.52461 10.9916 1.56595 10.8816 1.56595 10.7589V7.69403Z" fill="#97DDE5" stroke="#01090F" stroke-width="0.2"/>
<path d="M13.0931 10.1928C13.0931 10.521 12.9163 10.8125 12.5959 10.9306C12.3634 10.9969 12.1105 11.059 11.8938 11.059H10.8278C10.3415 11.059 9.85739 10.9618 9.40668 10.7364L9.40668 10.7364L9.40509 10.7356C8.62035 10.3603 7.73271 10.3232 6.94454 10.6259H6.82995H6.8137L6.79829 10.631C6.76506 10.6421 6.74191 10.6384 6.73315 10.6345C6.732 10.634 6.73127 10.6336 6.73083 10.6333C6.73052 10.6322 6.73006 10.6299 6.73006 10.6259V10.6097L6.72491 10.5943C6.71382 10.5611 6.71752 10.5379 6.72142 10.5291C6.72193 10.528 6.72235 10.5273 6.72264 10.5268C6.72372 10.5265 6.726 10.5261 6.73 10.5261H6.74625L6.76166 10.5209L6.8616 10.4876L6.86164 10.4877L6.86585 10.486C7.7037 10.1637 8.64149 10.2269 9.45264 10.5832C9.86737 10.7901 10.3485 10.8925 10.8278 10.8925H11.8938C12.1033 10.8925 12.3474 10.8577 12.5585 10.7874L12.5585 10.7875L12.562 10.7862C12.7147 10.7289 12.8174 10.6396 12.8802 10.5298C12.9418 10.422 12.96 10.303 12.96 10.1928C12.96 9.99434 12.8414 9.71198 12.5211 9.63025L11.6911 9.36471L11.6762 9.35995H11.6609C11.661 9.35995 11.6611 9.35995 11.6611 9.35995C11.661 9.35992 11.6582 9.35978 11.651 9.35905C11.6433 9.35825 11.6332 9.35705 11.6209 9.35551L11.5797 9.35023L11.5314 9.34405C11.4658 9.33585 11.3847 9.3266 11.3274 9.3266V9.32654L11.3241 9.32665C10.3514 9.35911 9.41059 9.00245 8.69642 8.35342C7.37141 7.1305 5.504 6.68971 3.77335 7.13089L3.77335 7.13089L3.77288 7.13101L2.10716 7.56415L2.03232 7.58361L2.03232 7.66093L2.03244 10.7258L2.03244 10.8258H2.13244H2.46563C2.82131 10.8258 3.20815 10.8907 3.52776 11.0185C3.5278 11.0185 3.52784 11.0186 3.52789 11.0186L7.15842 12.484C7.15854 12.4841 7.15865 12.4841 7.15877 12.4842C8.31914 12.9618 9.58103 12.893 10.7041 12.3486C11.2006 12.1169 11.7585 11.8876 12.4132 11.7566L12.4132 11.7568L12.4179 11.7556C13.1119 11.5821 13.7325 11.098 14.1114 10.478L14.1116 10.4777L16.0106 7.34601L16.0108 7.3456C16.1912 7.04493 16.0775 6.74015 15.86 6.57709C15.6435 6.41477 15.3142 6.38414 15.0576 6.62112L15.0015 6.67286L15.002 6.67371L12.727 8.81864C12.5323 8.9806 12.3457 9.10303 12.1329 9.16379L11.8087 9.25635L12.1309 9.35552L12.564 9.48882L12.564 9.48887L12.5671 9.48972C12.8894 9.57763 13.0931 9.83747 13.0931 10.1928Z" fill="#97DDE5" stroke="#01090F" stroke-width="0.2"/>
<path d="M9.46447 5.53914L9.46449 5.53916C9.66975 5.71017 9.99318 5.842 10.3946 5.94105V6.86835C10.1193 6.79239 9.84042 6.64324 9.55761 6.41705L9.48254 6.35701L9.41958 6.42964L8.98645 6.92937L8.92016 7.00585L8.99742 7.07121C9.41986 7.42859 9.87496 7.63394 10.3613 7.71408V8.06103V8.16103H10.4613H10.8277H10.9277V8.06103V7.75192C11.2962 7.71018 11.59 7.6059 11.8256 7.40399C12.0828 7.18362 12.227 6.85518 12.227 6.49514C12.227 6.14312 12.121 5.84363 11.8911 5.6521C11.6803 5.47645 11.3428 5.34127 10.9277 5.21175V4.34658C11.1619 4.3941 11.3804 4.5057 11.6076 4.64773L11.6888 4.69848L11.743 4.61958L12.1094 4.08649L12.1646 4.00625L12.0858 3.94897C11.7294 3.68975 11.3425 3.55141 10.9277 3.50564V3.29688V3.19687H10.8277H10.4613H10.3613V3.29688V3.5069C10.0214 3.54929 9.73027 3.65377 9.49667 3.85397C9.23647 4.07697 9.12855 4.37404 9.12855 4.72947L9.12855 4.7295C9.12867 5.0852 9.23689 5.34941 9.46447 5.53914ZM11.071 6.8751C11.0366 6.88657 10.9999 6.89621 10.961 6.90513V6.09715C11.0199 6.11663 11.0709 6.13616 11.1139 6.15654C11.1868 6.19108 11.2257 6.22306 11.2442 6.25075L11.2553 6.26742L11.272 6.27852C11.328 6.31589 11.3607 6.40317 11.3607 6.52849C11.3607 6.62249 11.3162 6.69823 11.2235 6.79097C11.1889 6.8255 11.1387 6.85253 11.071 6.8751ZM10.0615 4.66276V4.65048L10.0586 4.63857C10.0389 4.55985 10.0704 4.49537 10.1655 4.40028C10.2216 4.34423 10.2929 4.31343 10.3946 4.28754V5.02168C10.3484 5.00463 10.3061 4.98779 10.2687 4.97117C10.1952 4.9385 10.1516 4.91125 10.1321 4.89183C10.0909 4.85059 10.0615 4.78058 10.0615 4.66276Z" fill="#FFC664" stroke="#01090F" stroke-width="0.2"/>
</g>
<defs>
<clipPath id="clip0_4116_73324">
<rect width="16" height="16" fill="white"/>
</clipPath>
</defs>
</svg>
