<svg width="45" height="46" viewBox="0 0 45 46" fill="none" xmlns="http://www.w3.org/2000/svg">
<rect y="0.5" width="45" height="45" rx="8" fill="#15357A"/>
<path d="M21.8686 15.3826C19.1952 15.4843 18.866 17.2375 18.3236 18.4736C17.9139 19.4079 17.1968 20.081 17.133 21.0967C17.0641 22.2073 17.5007 22.9652 18.5352 23.2297C19.6486 23.5145 20.6813 23.9707 21.971 23.9384C23.2607 23.9062 24.0634 23.5688 25.0828 23.3484C26.1021 23.128 26.5824 22.2615 26.6613 21.3866C26.7973 19.8758 25.7898 19.1993 25.4606 18.3312C24.9669 17.0324 24.5185 15.4046 22.0449 15.3859L21.8686 15.3809V15.3826Z" fill="#FFC664" stroke="black" stroke-width="0.261895" stroke-miterlimit="10"/>
<path d="M22.6684 14.8747L24.2772 13.842C24.8079 13.4334 24.4586 12.6619 23.9598 12.5331C23.7936 12.4907 23.6794 12.333 23.6643 12.1566C23.6055 11.4716 22.5408 11.2309 21.9598 11.882C21.8624 11.9922 21.7163 12.0312 21.5786 11.9854C21.1436 11.843 20.5055 12.1329 20.3544 12.5839C20.3141 12.7043 20.2049 12.7823 20.084 12.8044C19.5265 12.9044 19.1638 13.5521 19.6138 13.9811L20.8884 14.8628L22.6668 14.8764L22.6684 14.8747Z" fill="#FFC664" stroke="black" stroke-width="0.261895" stroke-miterlimit="10"/>
<path d="M22.5801 14.309L23.6699 12.2031" stroke="black" stroke-width="0.261895" stroke-miterlimit="10"/>
<path d="M20.2705 12.6641L20.9187 13.9595" stroke="black" stroke-width="0.261895" stroke-miterlimit="10"/>
<path d="M21.7284 14.8428L21.5303 13.7949" stroke="black" stroke-width="0.261895" stroke-miterlimit="10"/>
<path d="M23.0709 14.7168H20.7367C20.4965 14.7168 20.3018 14.9134 20.3018 15.156V15.1576C20.3018 15.4002 20.4965 15.5968 20.7367 15.5968H23.0709C23.3111 15.5968 23.5059 15.4002 23.5059 15.1576V15.156C23.5059 14.9134 23.3111 14.7168 23.0709 14.7168Z" fill="#FFA9C6" stroke="black" stroke-width="0.261895" stroke-miterlimit="10"/>
<path d="M22.2524 22.0923V22.6179H21.7033V22.0923C20.7394 21.9855 20.1113 21.3462 20.1113 20.4425H21.0198C21.0265 20.8121 21.2734 21.1106 21.7033 21.2038V19.8745C21.0064 19.7117 20.2591 19.4692 20.2591 18.3807C20.2591 17.655 20.7797 17.0513 21.7033 16.9581V16.5664H22.2524V16.9581C23.0551 17.0513 23.6966 17.5481 23.7235 18.479H22.7864C22.7797 18.1518 22.5967 17.9025 22.2507 17.8245V19.0335C22.9896 19.2047 23.8427 19.4252 23.8427 20.5612C23.8427 21.3717 23.265 21.9973 22.2507 22.0889L22.2524 22.0923ZM21.7033 18.8995V17.8194C21.359 17.8907 21.1894 18.1111 21.1894 18.3671C21.1894 18.6587 21.401 18.8012 21.7033 18.8995ZM22.8788 20.6341C22.8788 20.2712 22.6118 20.1152 22.2524 20.0084V21.2242C22.6403 21.1597 22.8788 20.9461 22.8788 20.6341Z" fill="#FFA9C6" stroke="black" stroke-width="0.261895" stroke-miterlimit="10"/>
<path d="M14.1196 19.4665C11.4461 19.5683 11.117 21.3215 10.5746 22.5576C10.1648 23.4918 9.44777 24.165 9.38396 25.1806C9.31511 26.2912 9.75172 27.0492 10.7862 27.3137C11.8995 27.5985 12.9323 28.0546 14.222 28.0224C15.5117 27.9902 16.3144 27.6528 17.3337 27.4324C18.3531 27.2119 18.8334 26.3455 18.9123 25.4706C19.0483 23.9598 18.0407 23.2833 17.7116 22.4151C17.2179 21.1163 16.7695 19.4886 14.2959 19.4699L14.1196 19.4648V19.4665Z" fill="#FFC664" stroke="black" stroke-width="0.261895" stroke-miterlimit="10"/>
<path d="M10.9795 26.2773C11.6865 27.3574 12.6655 28.073 14.2894 28.017C15.9133 27.9611 16.8554 27.2269 17.5338 26.3519" fill="#FFC664"/>
<path d="M10.9795 26.2773C11.6865 27.3574 12.6655 28.073 14.2894 28.017C15.9133 27.9611 16.8554 27.2269 17.5338 26.3519" stroke="black" stroke-width="0.261895" stroke-miterlimit="10"/>
<path d="M14.9204 18.9567L16.5292 17.9241C17.0598 17.5154 16.7105 16.744 16.2118 16.6151C16.0455 16.5727 15.9313 16.415 15.9162 16.2387C15.8574 15.5537 14.7928 15.3129 14.2117 15.964C14.1143 16.0742 13.9682 16.1132 13.8305 16.0674C13.3956 15.925 12.7575 16.2149 12.6063 16.666C12.566 16.7863 12.4569 16.8643 12.336 16.8864C11.7784 16.9864 11.4157 17.6341 11.8658 18.0631L13.1403 18.9448L14.9187 18.9584L14.9204 18.9567Z" fill="#FFC664" stroke="black" stroke-width="0.261895" stroke-miterlimit="10"/>
<path d="M14.8301 18.3911L15.9216 16.2852" stroke="black" stroke-width="0.261895" stroke-miterlimit="10"/>
<path d="M12.5225 16.7461L13.169 18.0432" stroke="black" stroke-width="0.261895" stroke-miterlimit="10"/>
<path d="M13.9794 18.9248L13.7812 17.877" stroke="black" stroke-width="0.261895" stroke-miterlimit="10"/>
<path d="M15.3238 18.7988H12.9896C12.7494 18.7988 12.5547 18.9954 12.5547 19.238V19.2397C12.5547 19.4822 12.7494 19.6788 12.9896 19.6788H15.3238C15.5641 19.6788 15.7588 19.4822 15.7588 19.2397V19.238C15.7588 18.9954 15.5641 18.7988 15.3238 18.7988Z" fill="#FFA9C6" stroke="black" stroke-width="0.261895" stroke-miterlimit="10"/>
<path d="M14.5034 26.1763V26.7019H13.9543V26.1763C12.9904 26.0695 12.3623 25.4302 12.3623 24.5265H13.2708C13.2775 24.8961 13.5244 25.1945 13.9543 25.2878V23.9585C13.2574 23.7957 12.5101 23.5532 12.5101 22.4647C12.5101 21.739 13.0307 21.1353 13.9543 21.0421V20.6504H14.5034V21.0421C15.3061 21.1353 15.9476 21.6321 15.9745 22.563H15.0374C15.0307 22.2358 14.8477 21.9865 14.5017 21.9085V23.1175C15.2406 23.2887 16.0937 23.5091 16.0937 24.6452C16.0937 25.4557 15.516 26.0813 14.5017 26.1729L14.5034 26.1763ZM13.9543 22.9835V21.9034C13.61 21.9746 13.4404 22.1951 13.4404 22.4511C13.4404 22.7427 13.652 22.8852 13.9543 22.9835ZM15.1298 24.7181C15.1298 24.3552 14.8628 24.1992 14.5034 24.0924V25.3081C14.8913 25.2437 15.1298 25.0301 15.1298 24.7181Z" fill="#FFA9C6" stroke="black" stroke-width="0.261895" stroke-miterlimit="10"/>
<path opacity="0.35" d="M26.6036 20.4724C26.4877 19.901 25.9083 19.082 25.9083 19.082C25.9083 19.082 25.5087 19.4228 25.1879 20.0587C24.9847 20.4605 24.8537 20.937 24.6959 21.3015C24.4641 21.834 24.2441 22.1849 24.2441 22.1849L25.1678 23.4973L26.6926 20.6521L26.6036 20.4724Z" fill="#42210B"/>
<path d="M30.2017 18.9783C26.3712 19.1224 25.8993 21.6352 25.1235 23.4071C24.5374 24.7449 23.5097 25.7097 23.4173 27.1645C23.3183 28.7567 23.9446 29.8418 25.4275 30.2216C27.0228 30.6303 28.5006 31.2831 30.3512 31.2373C32.2017 31.1915 33.3487 30.7083 34.8097 30.3912C36.227 30.0843 36.9575 28.8347 37.07 27.5799C37.2648 25.4164 35.8206 24.4448 35.3488 23.2019C34.6418 21.3402 33.9986 19.0088 30.4553 18.9833L30.2017 18.9766V18.9783Z" fill="#FFC664" stroke="black" stroke-width="0.261895" stroke-miterlimit="10"/>
<path d="M31.3468 18.2535L33.6525 16.7732C34.4115 16.1865 33.9111 15.0827 33.1991 14.8962C32.9623 14.8352 32.7977 14.6114 32.7759 14.357C32.6919 13.3753 31.1654 13.0311 30.3342 13.9619C30.1931 14.1196 29.9849 14.1756 29.7867 14.1112C29.162 13.9077 28.2502 14.3231 28.0318 14.9691C27.9731 15.1421 27.8186 15.254 27.6456 15.2845C26.8463 15.4269 26.3274 16.3561 26.9722 16.9699L28.7976 18.2331L31.3468 18.2518V18.2535Z" fill="#FFC664" stroke="black" stroke-width="0.261895" stroke-miterlimit="10"/>
<path d="M31.2207 17.4403L32.7841 14.4238" stroke="black" stroke-width="0.261895" stroke-miterlimit="10"/>
<path d="M27.9131 15.084L28.8401 16.9423" stroke="black" stroke-width="0.261895" stroke-miterlimit="10"/>
<path d="M29.9996 18.2057L29.7158 16.7051" stroke="black" stroke-width="0.261895" stroke-miterlimit="10"/>
<path d="M31.9228 18.0254H28.5827C28.2377 18.0254 27.958 18.3078 27.958 18.6561C27.958 19.0045 28.2377 19.2869 28.5827 19.2869H31.9228C32.2678 19.2869 32.5475 19.0045 32.5475 18.6561C32.5475 18.3078 32.2678 18.0254 31.9228 18.0254Z" fill="#FFA9C6" stroke="black" stroke-width="0.261895" stroke-miterlimit="10"/>
<path d="M30.7507 28.5932V29.3477H29.9631V28.5932C28.581 28.4406 27.6826 27.5233 27.6826 26.2296H28.9841C28.9942 26.7586 29.3468 27.1876 29.9631 27.3198V25.4157C28.9639 25.1817 27.8959 24.8358 27.8959 23.2776C27.8959 22.2382 28.6432 21.3734 29.9631 21.2412V20.6816H30.7507V21.2412C31.901 21.3734 32.8179 22.0873 32.8582 23.4217H31.5165C31.5064 22.9537 31.2444 22.5959 30.749 22.484V24.2152C31.8087 24.4594 33.0295 24.7748 33.0295 26.4059C33.0295 27.5674 32.2016 28.4626 30.749 28.5966L30.7507 28.5932ZM29.9631 24.0202V22.4722C29.4694 22.5739 29.2276 22.8893 29.2276 23.2572C29.2276 23.6743 29.5298 23.8778 29.9631 24.0219V24.0202ZM31.6474 26.5059C31.6474 25.9871 31.2646 25.7616 30.749 25.609V27.3503C31.3032 27.2588 31.6474 26.9536 31.6474 26.5043V26.5059Z" fill="#FFA9C6" stroke="black" stroke-width="0.261895" stroke-miterlimit="10"/>
<path d="M35.9456 30.0223C35.7206 27.9282 34.0061 25.3136 31.0992 24.7931C27.7322 24.1912 26.0412 26.3327 26.0412 26.3327C25.8077 22.7686 22.8051 19.9675 19.1846 20.1065C15.9133 20.232 13.1861 22.8178 12.862 26.1072C12.7797 26.938 12.8519 27.74 13.0501 28.4912C12.2827 26.8719 10.5916 25.7833 8.66546 25.9224C6.4639 26.0817 4.67377 27.8841 4.51255 30.107C4.36645 32.1095 5.51006 33.8594 7.18767 34.6037C7.6646 34.8157 8.18686 34.9462 8.73431 34.9784H39.0003C41.5747 34.9784 42.3673 31.1023 40.4059 29.5305C38.4915 27.996 36.3033 29.3067 35.944 30.0206L35.9456 30.0223Z" fill="#9BCDFB" stroke="black" stroke-width="0.261895" stroke-linecap="round" stroke-linejoin="round"/>
<path d="M24.5879 28.9289C24.8633 27.8828 25.4158 26.9485 26.1597 26.2109L24.5879 28.9289Z" fill="#9BCDFB"/>
<path d="M24.5879 28.9289C24.8633 27.8828 25.4158 26.9485 26.1597 26.2109" stroke="black" stroke-width="0.261895" stroke-linecap="round" stroke-linejoin="round"/>
<path d="M13.8868 30.3183C13.2772 29.4281 12.9296 28.3989 12.8574 27.3477L13.8868 30.3183Z" fill="#9BCDFB"/>
<path d="M13.8868 30.3183C13.2772 29.4281 12.9296 28.3989 12.8574 27.3477" stroke="black" stroke-width="0.261895" stroke-linecap="round" stroke-linejoin="round"/>
</svg>
