<svg width="45" height="46" viewBox="0 0 45 46" fill="none" xmlns="http://www.w3.org/2000/svg">
<path fill-rule="evenodd" clip-rule="evenodd" d="M10.0159 32.5648L9.60807 32.1716C9.50993 32.0774 9.43131 31.9648 9.37671 31.8403C9.32211 31.7157 9.29261 31.5816 9.28989 31.4457C9.28717 31.3097 9.31129 31.1745 9.36086 31.0479C9.41043 30.9212 9.48449 30.8056 9.57879 30.7076L10.6767 29.5609C10.8407 29.3916 10.941 29.1708 10.9606 28.9359C10.9802 28.7011 10.9178 28.4667 10.7841 28.2726C9.88532 26.964 9.22455 25.507 8.83219 23.9687C8.82797 23.9509 8.82376 23.9331 8.81955 23.9154C8.77993 23.7485 8.74108 23.5849 8.7102 23.4173L6.35815 23.4807C6.08666 23.4808 5.82592 23.3746 5.63168 23.1849C5.43744 22.9953 5.32513 22.7371 5.31876 22.4657L5.26996 20.5772C5.26606 20.442 5.28885 20.3073 5.33702 20.1809C5.38519 20.0545 5.4578 19.9388 5.5507 19.8405C5.64361 19.7421 5.75498 19.6631 5.87845 19.6078C6.00192 19.5525 6.13508 19.5221 6.27031 19.5183L7.62689 19.4842C7.86352 19.4751 8.08978 19.3847 8.26755 19.2283C8.44532 19.0718 8.56373 18.8589 8.60284 18.6253C8.86477 16.9438 9.44439 15.3275 10.3108 13.8627C10.4292 13.6642 10.4764 13.4312 10.4444 13.2023C10.4125 12.9734 10.3033 12.7622 10.1351 12.6037L9.47632 11.9693C9.37817 11.8752 9.29955 11.7626 9.24495 11.6381C9.19036 11.5135 9.16085 11.3794 9.15814 11.2434C9.15542 11.1075 9.17953 10.9723 9.22911 10.8457C9.27868 10.719 9.35274 10.6034 9.44704 10.5054L10.7499 9.13907C10.9414 8.94319 11.2021 8.83035 11.4759 8.82487C11.7497 8.8194 12.0148 8.92172 12.2139 9.10979L12.7946 9.69048C12.9658 9.85656 13.1897 9.95767 13.4276 9.97638C13.6654 9.99508 13.9023 9.93022 14.0975 9.79296C15.4319 8.85109 16.9292 8.16447 18.5136 7.76785C18.7479 7.7093 18.9723 7.65562 19.2017 7.6117L19.1578 5.91354C19.1499 5.77471 19.1701 5.63571 19.2174 5.50493C19.2647 5.37415 19.3379 5.2543 19.4328 5.15261C19.5276 5.05092 19.6421 4.9695 19.7693 4.91325C19.8965 4.85701 20.0337 4.82711 20.1728 4.82536L22.0564 4.77168C22.3296 4.7664 22.5939 4.86892 22.792 5.05706C22.9902 5.24519 23.1063 5.5038 23.1153 5.77691V6.52839C23.1219 6.76346 23.2095 6.98901 23.3634 7.16686C23.5172 7.34471 23.7278 7.46393 23.9595 7.50435C25.7127 7.80112 27.3896 8.44302 28.8929 9.39282C29.0933 9.51512 29.3297 9.5649 29.5624 9.53381C29.7951 9.50272 30.0101 9.39265 30.1714 9.22202L30.6594 8.70477C30.7528 8.60546 30.8652 8.52579 30.9898 8.47045C31.1144 8.41511 31.2489 8.38519 31.3852 8.38247C31.5215 8.37974 31.657 8.40425 31.7838 8.45457C31.9105 8.50489 32.026 8.57999 32.1233 8.67549L33.0065 9.52457L33.022 9.53914L28.2116 14.3495C27.4496 13.6302 26.5671 13.046 25.6019 12.6249C24.3267 12.0687 22.941 11.812 21.5512 11.8747C20.1613 11.9373 18.8043 12.3176 17.5844 12.9863C16.3644 13.6551 15.3139 14.5945 14.5134 15.7324C13.713 16.8704 13.184 18.1766 12.967 19.5508C12.75 20.925 12.8508 22.3307 13.2616 23.6599C13.6724 24.9891 14.3824 26.2065 15.3369 27.2186C15.341 27.2229 15.3451 27.2272 15.3492 27.2315L10.0159 32.5648Z" fill="#97DDE5" stroke="#01090F" stroke-width="0.5" stroke-linecap="round" stroke-linejoin="round"/>
<path d="M38.8662 16.0201L16.7023 39.0135L10.6367 40.5507L11.9347 34.4217L34.1035 11.4282L38.8662 16.0201Z" fill="#4AC7D3" stroke="#01090F" stroke-width="0.5" stroke-linecap="round" stroke-linejoin="round"/>
<path d="M37.1597 9.05752L41.1261 12.8811C41.2323 12.9835 41.2935 13.1239 41.2962 13.2714C41.2989 13.4189 41.2429 13.5615 41.1405 13.6677L38.8748 16.018L34.1109 11.4256L36.3732 9.07883C36.4235 9.02579 36.4837 8.98317 36.5504 8.95339C36.6171 8.92361 36.689 8.90727 36.7621 8.90529C36.8351 8.90331 36.9078 8.91573 36.976 8.94185C37.0442 8.96797 37.1067 9.00727 37.1597 9.05752Z" fill="#FFC664" stroke="#01090F" stroke-width="0.5" stroke-linecap="round" stroke-linejoin="round"/>
<path d="M40.6621 14.5305L41.9992 15.9115L36.0117 22.0942" stroke="#01090F" stroke-width="0.5" stroke-linecap="round" stroke-linejoin="round"/>
</svg>
