<svg width="45" height="46" viewBox="0 0 45 46" fill="none" xmlns="http://www.w3.org/2000/svg">
<path d="M35.7856 33.8245L22.1534 39.9051C19.8977 40.8858 17.2497 39.9051 16.1709 37.6494L12.0518 28.3324L33.9222 18.623L38.0413 27.9401C39.1202 30.0977 38.0413 32.8438 35.7856 33.8245Z" fill="#BD80FF" stroke="#01090F" stroke-width="0.5" stroke-miterlimit="10" stroke-linecap="round" stroke-linejoin="round"/>
<path d="M34.1181 18.525L11.8553 28.3324C10.188 29.117 8.22654 28.3324 7.44195 26.6652L6.46121 24.4095C5.67662 22.7422 6.46121 20.7807 8.12847 19.9961L30.3913 10.1887C32.0585 9.40416 34.02 10.1888 34.8046 11.856L35.7853 14.1117C36.5699 15.779 35.7853 17.7404 34.1181 18.525Z" fill="#A041FF" stroke="#01090F" stroke-width="0.5" stroke-miterlimit="10" stroke-linecap="round" stroke-linejoin="round"/>
<path d="M19.309 15.0926L17.5437 10.9735C16.7591 9.20818 17.1514 7.05054 18.7205 5.77558C19.309 5.28521 19.9955 4.89293 20.8782 4.69679C22.9377 4.20642 25.0954 5.08906 26.2722 6.85439C27.1549 8.12936 27.6453 9.99275 25.978 12.1504L19.309 15.0926Z" stroke="#01090F" stroke-width="0.5" stroke-miterlimit="10" stroke-linecap="round" stroke-linejoin="round"/>
<path d="M19.0143 15.1911L17.249 11.072C16.4644 9.30664 14.601 8.12974 12.6395 8.42396C11.8549 8.52204 11.1684 8.81625 10.3838 9.30662C8.6185 10.4835 7.83391 12.6411 8.32428 14.7007C8.71658 16.2699 9.79539 17.839 12.4434 18.0352L19.0143 15.1911Z" stroke="#01090F" stroke-width="0.5" stroke-miterlimit="10" stroke-linecap="round" stroke-linejoin="round"/>
<path d="M22.3611 13.7353L16.5332 16.3184L26.1899 38.1055L32.0178 35.5225L22.3611 13.7353Z" fill="#FFC664" stroke="#01090F" stroke-width="0.5" stroke-miterlimit="10" stroke-linecap="round" stroke-linejoin="round"/>
</svg>
