<svg width="45" height="46" viewBox="0 0 45 46" fill="none" xmlns="http://www.w3.org/2000/svg">
<path d="M17.0252 36.8105H12.8244C12.2192 36.8105 11.7285 37.313 11.7285 37.9329V38.1625C11.7285 38.7823 12.2192 39.2848 12.8244 39.2848H17.0252C17.6304 39.2848 18.1211 38.7823 18.1211 38.1625V37.9329C18.1211 37.313 17.6304 36.8105 17.0252 36.8105Z" fill="#FFA9C6" stroke="#01090F" stroke-width="0.5" stroke-linecap="round" stroke-linejoin="round"/>
<path d="M32.849 36.8105H28.2248C27.6195 36.8105 27.1289 37.313 27.1289 37.9329V38.1625C27.1289 38.7823 27.6195 39.2848 28.2248 39.2848H32.849C33.4542 39.2848 33.9448 38.7823 33.9448 38.1625V37.9329C33.9448 37.313 33.4542 36.8105 32.849 36.8105Z" fill="#FFA9C6" stroke="#01090F" stroke-width="0.5" stroke-linecap="round" stroke-linejoin="round"/>
<path d="M34.7087 6.58398H10.1846C8.27262 6.58398 6.72266 8.17139 6.72266 10.1295V34.1832C6.72266 36.1414 8.27262 37.7288 10.1846 37.7288H34.7087C36.6207 37.7288 38.1706 36.1414 38.1706 34.1832V10.1295C38.1706 8.17139 36.6207 6.58398 34.7087 6.58398Z" fill="#FFA9C6" stroke="#01090F" stroke-width="0.5" stroke-linecap="round" stroke-linejoin="round"/>
<path d="M33.9457 11.959H11.3643V33.2238H33.9457V11.959Z" fill="#FB5D96" stroke="#01090F" stroke-width="0.5" stroke-linecap="round" stroke-linejoin="round"/>
<path d="M23.0445 29.4132C26.818 29.4132 29.877 26.2802 29.877 22.4156C29.877 18.5509 26.818 15.418 23.0445 15.418C19.2709 15.418 16.2119 18.5509 16.2119 22.4156C16.2119 26.2802 19.2709 29.4132 23.0445 29.4132Z" fill="#FFA9C6" stroke="#01090F" stroke-width="0.5" stroke-linecap="round" stroke-linejoin="round"/>
<path d="M11.8361 14.6445H11.612C10.9563 14.6445 10.4248 15.1889 10.4248 15.8604V19.9756C10.4248 20.6471 10.9563 21.1915 11.612 21.1915H11.8361C12.4918 21.1915 13.0233 20.6471 13.0233 19.9756V15.8604C13.0233 15.1889 12.4918 14.6445 11.8361 14.6445Z" fill="#FFC664" stroke="#01090F" stroke-width="0.5" stroke-linecap="round" stroke-linejoin="round"/>
<path d="M11.8361 23.8613H11.612C10.9563 23.8613 10.4248 24.4057 10.4248 25.0772V29.1924C10.4248 29.8639 10.9563 30.4083 11.612 30.4083H11.8361C12.4918 30.4083 13.0233 29.8639 13.0233 29.1924V25.0772C13.0233 24.4057 12.4918 23.8613 11.8361 23.8613Z" fill="#FFC664" stroke="#01090F" stroke-width="0.5" stroke-linecap="round" stroke-linejoin="round"/>
<path d="M23.1363 16.8984H23.0699C22.8819 16.8984 22.7295 17.0545 22.7295 17.247V27.8412C22.7295 28.0337 22.8819 28.1898 23.0699 28.1898H23.1363C23.3243 28.1898 23.4767 28.0337 23.4767 27.8412V17.247C23.4767 17.0545 23.3243 16.8984 23.1363 16.8984Z" fill="#FFC664" stroke="#01090F" stroke-width="0.5" stroke-miterlimit="10"/>
<path d="M17.5889 22.5092V22.5772C17.5889 22.7697 17.7413 22.9258 17.9292 22.9258H28.2735C28.4615 22.9258 28.6139 22.7697 28.6139 22.5772V22.5092C28.6139 22.3166 28.4615 22.1606 28.2735 22.1606H17.9292C17.7413 22.1606 17.5889 22.3166 17.5889 22.5092Z" fill="#FFC664" stroke="#01090F" stroke-width="0.5" stroke-miterlimit="10"/>
<path d="M27.0201 18.5778L26.9731 18.5297C26.8402 18.3936 26.6247 18.3936 26.4917 18.5297L19.1772 26.0209C19.0443 26.157 19.0443 26.3778 19.1772 26.5139L19.2242 26.562C19.3571 26.6981 19.5726 26.6981 19.7056 26.562L27.0201 19.0708C27.153 18.9347 27.153 18.7139 27.0201 18.5778Z" fill="#FFC664" stroke="#01090F" stroke-width="0.5" stroke-miterlimit="10"/>
<path d="M19.231 18.5316L19.184 18.5797C19.0511 18.7158 19.0511 18.9365 19.184 19.0727L26.4986 26.5639C26.6315 26.7 26.847 26.7 26.9799 26.5639L27.0269 26.5158C27.1598 26.3796 27.1598 26.1589 27.0269 26.0228L19.7124 18.5316C19.5795 18.3954 19.3639 18.3954 19.231 18.5316Z" fill="#FFC664" stroke="#01090F" stroke-width="0.5" stroke-miterlimit="10"/>
<path d="M23.044 25.9274C24.9376 25.9274 26.4727 24.3552 26.4727 22.4158C26.4727 20.4765 24.9376 18.9043 23.044 18.9043C21.1503 18.9043 19.6152 20.4765 19.6152 22.4158C19.6152 24.3552 21.1503 25.9274 23.044 25.9274Z" fill="#FFC664" stroke="#01090F" stroke-width="0.5" stroke-linecap="round" stroke-linejoin="round"/>
</svg>
