<svg width="40" height="40" viewBox="0 0 40 40" fill="none" xmlns="http://www.w3.org/2000/svg">
<g clip-path="url(#clip0_4537_6488)">
<path d="M34.5008 13.7871V22.3261L20.002 24.3086V15.7685L34.5008 13.7871Z" fill="#4AC7D3" stroke="#1D1D1B" stroke-width="0.283738" stroke-linecap="round" stroke-linejoin="round"/>
<path d="M20.0153 7.09375C22.5499 7.09375 25.1197 7.47156 27.4704 8.26557C31.1664 9.5142 33.5946 11.5465 34.5008 13.7915L20.0009 15.7739L12.5324 23.2823C5.41727 20.8774 2.99218 15.5684 7.117 11.4209C9.87894 8.64441 14.8769 7.09375 20.0153 7.09375Z" fill="#97DDE5" stroke="#1D1D1B" stroke-width="0.283738" stroke-linecap="round" stroke-linejoin="round"/>
<path d="M20.0017 15.7734V24.3135L12.5332 31.8208V23.2818L20.0017 15.7734Z" fill="#4AC7D3" stroke="#1D1D1B" stroke-width="0.283738" stroke-linecap="round" stroke-linejoin="round"/>
<path d="M32.9032 22.204L32.9032 22.204C33.8809 21.2212 34.4969 20.1699 34.771 19.1038V24.3313C34.771 25.7822 34.135 27.2588 32.7854 28.6154C31.0383 30.3715 28.3821 31.6372 25.3545 32.3254V25.9672C28.4166 25.2775 31.1187 23.9976 32.9032 22.204Z" fill="#FB5D96" stroke="black" stroke-width="0.166116"/>
<path d="M34.5028 15.8066C35.3408 17.8856 34.8716 20.1473 32.8898 22.1401C31.1085 23.9305 28.3961 25.2103 25.317 25.8953L20.0039 17.7891L34.5028 15.8066Z" fill="#FFA9C6" stroke="#1D1D1B" stroke-width="0.283738" stroke-linecap="round" stroke-linejoin="round"/>
<path d="M25.317 25.9002V32.4288L20.0039 24.3226V17.793L25.317 25.9002Z" fill="#FB5D96" stroke="#1D1D1B" stroke-width="0.283738" stroke-linecap="round" stroke-linejoin="round"/>
<path d="M25.3149 28.6063L20.0008 20.5001L19.9904 20.5728L20.0008 20.498L12.5312 28.0064C14.4976 28.6707 16.6147 29.0423 18.7381 29.1471H18.7484C18.7484 29.1471 18.7546 29.1471 18.7577 29.1481C19.1618 29.1668 19.5844 29.1782 19.9873 29.1782C21.8111 29.1782 23.6172 28.9831 25.3138 28.6063H25.3149Z" fill="#BD80FF" stroke="#1D1D1B" stroke-width="0.283738" stroke-linecap="round" stroke-linejoin="round"/>
<path d="M19.9884 29.1718C19.5792 29.1718 19.1597 29.1604 18.7495 29.1407C16.623 29.0369 14.5017 28.6643 12.5312 28V31.8133C14.4996 32.4776 16.6199 32.8502 18.7453 32.954H18.7577C19.1638 32.9738 19.5823 32.9852 19.9873 32.9852C21.8111 32.9852 23.6172 32.79 25.3138 32.4133V28.5999C23.6183 28.9767 21.8121 29.1718 19.9873 29.1718H19.9884Z" fill="#A041FF" stroke="#1D1D1B" stroke-width="0.283738" stroke-linecap="round" stroke-linejoin="round"/>
</g>
<path d="M5.10449 24.3144V15.7754C5.10449 18.7698 7.7662 21.6822 12.5316 23.291V31.8301C7.7662 30.2202 5.10449 27.3078 5.10449 24.3144Z" fill="#4AC7D3" stroke="black" stroke-width="0.312631"/>
<defs>
<clipPath id="clip0_4537_6488">
<rect width="30" height="26.1039" fill="white" transform="translate(5 7)"/>
</clipPath>
</defs>
</svg>
