<svg width="45" height="46" viewBox="0 0 45 46" fill="none" xmlns="http://www.w3.org/2000/svg">
<rect y="0.5" width="45" height="45" rx="8" fill="#15357A"/>
<path d="M40.9626 23.8495C40.9626 23.5873 40.7506 23.3737 40.4881 23.3727C40.3187 23.3717 40.1603 23.3707 40.1206 23.3707H39.7759L39.9116 23.2599C40.3425 22.9038 40.6258 22.3874 40.6873 21.8344C40.7853 21.1458 40.3178 20.5068 39.6283 20.3841C39.5302 20.3722 39.4312 20.3594 39.3331 20.3594C38.8408 20.3712 38.398 20.6542 38.188 21.0964L38.1266 21.219L38.077 21.0835C37.9294 20.666 37.5233 20.3703 37.0676 20.3703C36.3415 20.3703 35.8363 20.948 35.8363 21.7839C35.8363 22.0293 35.873 22.2756 35.9591 22.509L36.0087 22.6446L35.873 22.5832C35.7868 22.5466 35.7006 22.4972 35.6144 22.4477C35.5778 22.4111 35.5282 22.3864 35.4916 22.3735C35.2459 22.2627 34.9626 22.3854 34.8516 22.6317C34.7407 22.877 34.8635 23.16 35.1102 23.2708C35.5044 23.529 35.9591 23.6764 36.4277 23.6882C36.5753 23.6882 36.711 23.6764 36.8467 23.6388H36.8715L36.8962 23.6507C37.241 23.8475 37.6352 23.9455 38.0285 23.9455C38.2623 23.9455 38.4961 23.9207 38.7179 23.8594L38.7546 23.8475L38.7794 23.8722C39.0538 24.1354 39.3886 24.4084 40.5198 24.3234C40.7695 24.3046 40.9626 24.0968 40.9626 23.8475V23.8495ZM37.0438 22.3389L36.9824 22.4368L36.9329 22.3389C36.8467 22.1668 36.7972 21.9699 36.7972 21.774C36.7972 21.4911 36.8952 21.3318 37.0676 21.3318C37.129 21.3318 37.1904 21.3684 37.2152 21.4298C37.3133 21.6019 37.2271 22.0194 37.0428 22.3389H37.0438ZM37.9304 22.9661L37.8324 22.9542L37.8819 22.8681C37.9185 22.8068 37.9562 22.7455 37.98 22.6841L38.0543 22.5486L38.1038 22.7089C38.1285 22.7702 38.1404 22.8315 38.1652 22.8929L38.19 22.9671H37.9314L37.9304 22.9661ZM39.7026 21.7374C39.6412 22.0936 39.4441 22.4012 39.1489 22.6099L39.0874 22.6594L39.0627 22.5733C38.927 22.1796 38.9398 21.7127 39.0874 21.4674C39.137 21.3694 39.235 21.3199 39.3331 21.3199C39.3698 21.3199 39.4074 21.32 39.4193 21.3318C39.6035 21.3684 39.7393 21.5534 39.7026 21.7374Z" fill="#A041FF" stroke="black" stroke-width="0.25" stroke-linejoin="round"/>
<path d="M36.8848 23.625C36.8848 23.625 38.436 23.2807 38.1161 21.1914" stroke="black" stroke-width="0.25" stroke-linejoin="round"/>
<path d="M39.0379 24.0402L40.1206 23.3646L39.7759 23.3398L38.7051 23.8196L39.0379 24.0412V24.0402Z" fill="black"/>
<path d="M35.875 22.5714C35.875 22.5714 36.6546 23.245 37.0855 22.2617" stroke="black" stroke-width="0.25" stroke-linejoin="round"/>
<path d="M38.6934 23.8502C38.6934 23.8502 39.5057 23.678 39.9732 23.1992" stroke="black" stroke-width="0.25" stroke-linejoin="round"/>
<path d="M38.1523 22.9642C38.5218 22.9642 38.9399 22.8415 39.2113 22.5586" stroke="black" stroke-width="0.25" stroke-linejoin="round"/>
<path d="M9.5293 12.5664H9.77595C10.4902 12.5664 12.3119 12.6772 13.6165 13.7585C13.9365 14.0038 14.1217 14.3728 14.1336 14.7665C14.1702 16.0081 12.6814 17.4949 12.3614 17.8026L9.53029 12.5674L9.5293 12.5664Z" fill="#BD80FF"/>
<path d="M12.3487 17.8849C10.9826 17.4546 9.94844 16.3238 9.65324 14.923C9.64136 14.8617 9.62848 14.7875 9.61659 14.7262C9.50565 13.9892 9.3947 13.3006 9.38281 12.5508C10.3308 13.1404 11.1431 13.9397 11.6235 14.9478C12.4358 16.6434 12.3497 17.8849 12.3497 17.8849H12.3487Z" fill="black" stroke="black" stroke-width="0.25" stroke-linejoin="round"/>
<path d="M9.9732 14.6035C9.96132 14.5422 9.94844 14.468 9.93655 14.4066C9.83848 13.8655 9.77608 13.3125 9.73942 12.7724C9.62848 12.6863 9.50565 12.6121 9.38281 12.5508C9.40758 13.2878 9.48088 14.0376 9.61659 14.7628C9.62947 14.8241 9.64136 14.8983 9.65324 14.9596C9.98608 16.3604 11.044 17.4664 12.423 17.8602C12.423 17.6999 12.4111 17.5406 12.3982 17.3804C11.1669 16.9134 10.2684 15.8688 9.9732 14.6025V14.6035Z" fill="#A041FF" stroke="black" stroke-width="0.25" stroke-linejoin="round"/>
<path d="M12.1504 29.6875V36.7222C12.1504 36.9556 13.1965 37.1396 14.4892 37.1396C15.7819 37.1396 16.8161 36.9556 16.8161 36.7222V29.6875H12.1504Z" fill="#A041FF" stroke="black" stroke-width="0.25" stroke-linejoin="round"/>
<path d="M27.6621 29.6875V36.7222C27.6621 36.9556 28.7082 37.1396 30.0009 37.1396C31.2936 37.1396 32.3397 36.9556 32.3397 36.7222V29.6875H27.6621Z" fill="#A041FF" stroke="black" stroke-width="0.25" stroke-linejoin="round"/>
<path d="M22.0364 35.7214C29.7729 35.7214 36.0454 30.687 36.0454 24.4764C36.0454 18.2658 29.7729 13.2305 22.0364 13.2305C14.2998 13.2305 8.02734 18.2648 8.02734 24.4764C8.02734 30.688 14.2988 35.7214 22.0364 35.7214Z" fill="#CFA4FF" stroke="black" stroke-width="0.25" stroke-linejoin="round"/>
<path d="M13.667 15.6495C13.7284 15.1331 13.5065 14.6167 13.0766 14.3219C11.7472 13.3019 10.084 12.7361 9.39453 12.5273H9.67883C10.5278 12.5273 12.1286 12.6629 13.347 13.6086C13.9622 14.0508 14.0612 14.7512 13.667 15.6485V15.6495Z" fill="#A041FF" stroke="black" stroke-width="0.25" stroke-linejoin="round"/>
<path d="M12.7676 12C13.2351 12.0742 15.3283 12.4669 16.5596 13.9419C16.8181 14.2367 16.941 14.6423 16.8677 15.036C16.6586 16.2528 14.9102 17.433 14.5536 17.6665L12.7686 12.001L12.7676 12Z" fill="#BD80FF" stroke="black" stroke-width="0.25" stroke-linejoin="round"/>
<path d="M16.4003 16.0207C16.5727 15.529 16.4746 14.9879 16.1299 14.5952C15.0591 13.3042 13.6554 12.4079 13.0273 12.0508C13.7663 12.1982 15.489 12.6651 16.5608 13.9561C17.0412 14.5338 16.9917 15.2224 16.4003 16.0207Z" fill="#A041FF" stroke="black" stroke-width="0.25" stroke-linejoin="round"/>
<path d="M14.515 17.7634C13.247 17.0878 12.4466 15.7721 12.4219 14.3347V14.1259C12.4466 13.3889 12.6309 12.7251 12.7666 12C13.5918 12.7617 14.0712 13.6471 14.3426 14.7284C14.835 16.5595 14.515 17.7644 14.515 17.7644V17.7634Z" fill="black" stroke="black" stroke-width="0.25" stroke-linejoin="round"/>
<path d="M12.8161 14.0646V13.8559C12.8409 13.3029 12.8904 12.7617 12.9637 12.2087C12.8657 12.1108 12.8647 12.0979 12.7666 12C12.6309 12.7251 12.4466 13.3889 12.4219 14.1259V14.3347C12.4466 15.773 13.247 17.0749 14.515 17.7634C14.5517 17.6032 14.5764 17.4558 14.5893 17.2965C13.5056 16.5714 12.8409 15.3675 12.8161 14.0646Z" fill="#A041FF" stroke="black" stroke-width="0.25" stroke-linejoin="round"/>
<path d="M11.5479 21.1216C11.854 21.1216 12.1016 20.8743 12.1016 20.5686C12.1016 20.2629 11.854 20.0156 11.5479 20.0156C11.2418 20.0156 10.9941 20.2629 10.9941 20.5686C10.9941 20.8743 11.2418 21.1216 11.5479 21.1216Z" fill="black"/>
<path d="M22.0364 35.7197C14.4038 35.7197 8.17494 30.7912 8.02734 24.6953C12.4959 31.639 18.2572 33.1021 22.3197 33.1021C28.0433 33.1021 33.3866 30.2263 35.344 27.9896C34.4703 30.1283 32.7586 32.0574 30.5188 33.4345C28.0691 34.9342 25.127 35.7206 22.0373 35.7206L22.0364 35.7197Z" fill="#A041FF" stroke="black" stroke-width="0.25" stroke-linejoin="round"/>
<path d="M12.9785 32.3008V36.8108C12.9785 37.0443 14.0246 37.2164 15.3173 37.2164C16.61 37.2164 17.6442 37.0324 17.6442 36.8108V34.402" fill="#A041FF"/>
<path d="M12.9785 32.3008V36.8108C12.9785 37.0443 14.0246 37.2164 15.3173 37.2164C16.61 37.2164 17.6442 37.0324 17.6442 36.8108V34.402" stroke="black" stroke-width="0.25" stroke-linecap="round" stroke-linejoin="round"/>
<path d="M28.4902 33.7041V36.8134C28.4902 37.0469 29.5363 37.219 30.829 37.219C32.1218 37.219 33.1678 37.035 33.1678 36.8134V30.582" fill="#A041FF"/>
<path d="M28.4902 33.7041V36.8134C28.4902 37.0469 29.5363 37.219 30.829 37.219C32.1218 37.219 33.1678 37.035 33.1678 36.8134V30.582" stroke="black" stroke-width="0.25" stroke-linecap="round" stroke-linejoin="round"/>
<path d="M25.5825 14.7021C24.4503 14.4686 23.2932 14.3578 22.1352 14.3578C21.8767 14.3578 21.6181 14.3697 21.3596 14.3697C20.584 14.4063 19.8212 14.4924 19.0574 14.6279C19.0079 14.616 18.8484 14.3944 18.7246 14.1244C19.5864 13.9522 20.4601 13.8543 21.3467 13.8048C21.6053 13.793 21.8638 13.793 22.1095 13.793C23.3031 13.793 24.4978 13.9156 25.6667 14.162C25.6419 14.346 25.6172 14.531 25.5805 14.7031L25.5825 14.7021Z" fill="#A041FF" stroke="black" stroke-width="0.25" stroke-linejoin="round"/>
<path d="M25.6469 14.7026C24.5146 14.4691 23.3576 14.3583 22.2006 14.3583C21.9421 14.3583 21.6835 14.3702 21.425 14.3702C20.6493 14.4068 19.8866 14.4929 19.1228 14.6284C19.1228 14.6284 19.0862 14.6165 19 14.5057C19.8004 14.3583 20.6127 14.2594 21.425 14.2228C21.6835 14.2109 21.9302 14.2109 22.1877 14.2109C23.3576 14.2109 24.5265 14.3336 25.6836 14.5671C25.6717 14.6165 25.6717 14.665 25.6469 14.7026Z" fill="black"/>
<path d="M6.38086 29.2794V21.5859H8.92867C9.64289 21.5859 10.2462 23.3439 10.2462 25.4332C10.2462 27.5225 9.64289 29.2804 8.92867 29.2804H6.38086V29.2794Z" fill="#BD80FF" stroke="black" stroke-width="0.25" stroke-linejoin="round"/>
<path d="M6.3175 29.2804C5.60328 29.2804 5 27.5225 5 25.4332C5 23.3439 5.60328 21.5859 6.3175 21.5859C7.03172 21.5859 7.62211 23.3439 7.62211 25.4332C7.62211 27.5225 7.03172 29.2804 6.3175 29.2804Z" fill="#A041FF" stroke="black" stroke-width="0.25" stroke-linejoin="round"/>
<path d="M5.7763 26.4679C5.92588 26.4679 6.04673 26.0059 6.04673 25.4351C6.04673 24.8643 5.92588 24.4023 5.7763 24.4023C5.62672 24.4023 5.50586 24.8643 5.50586 25.4351C5.50586 26.0059 5.62672 26.4679 5.7763 26.4679Z" fill="black"/>
<path d="M6.60051 26.7453C6.75009 26.7453 6.87094 26.2833 6.87094 25.7125C6.87094 25.1417 6.75009 24.6797 6.60051 24.6797C6.45093 24.6797 6.33008 25.1417 6.33008 25.7125C6.33008 26.2833 6.45093 26.7453 6.60051 26.7453Z" fill="black"/>
<rect x="31.9141" y="35.0469" width="4.95482" height="3.79596" fill="black"/>
<path d="M38.2312 29H35.8572C35.7933 29.5125 35.3569 29.91 34.8255 29.91C34.2941 29.91 33.8576 29.5125 33.7937 29H20.7688C20.3442 29 20 29.3438 20 29.7678V32.3592C20.8482 32.3592 21.5358 33.0458 21.5358 33.8929C21.5358 34.74 20.8482 35.4266 20 35.4266V38.0181C20 38.4421 20.3442 38.7858 20.7688 38.7858H33.7937C33.8576 38.2734 34.2941 37.8758 34.8255 37.8758C35.3569 37.8758 35.7933 38.2734 35.8572 38.7858H38.2312C38.6558 38.7858 39 38.4421 39 38.0181V29.7678C39 29.3438 38.6558 29 38.2312 29Z" fill="#FFC664" stroke="black" stroke-width="0.25" stroke-miterlimit="10"/>
<path d="M34.7988 30.9336V31.7688" stroke="black" stroke-width="0.25" stroke-miterlimit="10"/>
<path d="M34.7988 32.625V33.4602" stroke="black" stroke-width="0.25" stroke-miterlimit="10"/>
<path d="M34.7988 34.3164V35.1526" stroke="black" stroke-width="0.25" stroke-miterlimit="10"/>
<path d="M34.7988 36.0117V36.847" stroke="black" stroke-width="0.25" stroke-miterlimit="10"/>
<path d="M33.7261 33.8932C33.7261 33.8932 33.7261 33.8932 33.7261 33.8922C33.7261 33.8886 33.7252 33.885 33.7252 33.8813C33.7233 33.8147 33.7106 33.7482 33.685 33.6862C33.6576 33.6205 33.6174 33.5603 33.5672 33.5102C33.517 33.46 33.4567 33.4199 33.391 33.3926C33.3581 33.3789 33.3234 33.3689 33.2887 33.3616C33.254 33.3543 33.2184 33.3497 33.1828 33.3488H31.9237L31.5429 32.5509C31.5429 32.5509 31.5411 32.5519 31.5402 32.5528L30.7641 30.9297H30.1049L30.6317 33.3479H30.2875C29.904 33.3907 29.5241 33.4336 29.1407 33.4774L28.4568 32.7944H28.0167V32.7971L28.36 33.6552L27.982 33.7409C27.9546 33.7473 27.9299 33.76 27.9098 33.7792C27.8898 33.7983 27.8752 33.822 27.8669 33.8494C27.8669 33.8512 27.8669 33.853 27.8669 33.8549C27.8669 33.8576 27.8669 33.8594 27.8669 33.8622C27.8651 33.8722 27.8633 33.8822 27.8633 33.8922C27.8633 33.9023 27.8651 33.9123 27.8669 33.9223C27.8669 33.9251 27.8669 33.9269 27.8669 33.9296C27.8669 33.9315 27.8669 33.9333 27.8669 33.9351C27.8742 33.9615 27.8898 33.9862 27.9098 34.0053C27.9299 34.0245 27.9546 34.0372 27.982 34.0436L28.36 34.1293L28.0167 34.9874V34.9901H28.4559L29.1397 34.3071C29.5232 34.35 29.9031 34.3928 30.2866 34.4366H30.6317L30.1049 36.8548H30.7641L31.5402 35.2317C31.5402 35.2317 31.542 35.2327 31.5429 35.2336L31.9237 34.4357H33.1828C33.2184 34.4357 33.254 34.4311 33.2887 34.4229C33.3234 34.4156 33.3581 34.4056 33.391 34.3919C33.4567 34.3646 33.517 34.3245 33.5672 34.2743C33.6174 34.2242 33.6576 34.164 33.685 34.0983C33.7106 34.0363 33.7233 33.9707 33.7252 33.9032C33.7252 33.8995 33.7261 33.8959 33.7261 33.8922C33.7261 33.8922 33.7261 33.8922 33.7261 33.8913V33.8932Z" fill="#FB5D96" stroke="black" stroke-width="0.25"/>
<path d="M35.9512 32.1797H37.928" stroke="black" stroke-width="0.25" stroke-miterlimit="10"/>
<path d="M35.9512 33.0352H37.928" stroke="black" stroke-width="0.25" stroke-miterlimit="10"/>
<path d="M35.9512 33.8945H37.928" stroke="black" stroke-width="0.25" stroke-miterlimit="10"/>
<path d="M35.9512 34.75H37.928" stroke="black" stroke-width="0.25" stroke-miterlimit="10"/>
<path d="M35.9512 35.6055H37.928" stroke="black" stroke-width="0.25" stroke-miterlimit="10"/>
<path d="M22.5977 30.5195H27.7163" stroke="black" stroke-width="0.25" stroke-miterlimit="10"/>
<path d="M22.5977 31.375H27.7163" stroke="black" stroke-width="0.25" stroke-miterlimit="10"/>
<path d="M22.5977 32.2344H24.5744" stroke="black" stroke-width="0.25" stroke-miterlimit="10"/>
<path d="M22.5977 36.2695H27.7163" stroke="black" stroke-width="0.25" stroke-miterlimit="10"/>
<path d="M22.5977 37.125H27.7163" stroke="black" stroke-width="0.25" stroke-miterlimit="10"/>
<path d="M22.5 14C24.433 14 26 12.433 26 10.5C26 8.56701 24.433 7 22.5 7C20.567 7 19 8.56701 19 10.5C19 12.433 20.567 14 22.5 14Z" fill="#FFC664" stroke="black" stroke-width="0.302937" stroke-linecap="round" stroke-linejoin="round"/>
</svg>
