<svg width="32" height="32" viewBox="0 0 32 32" fill="none" xmlns="http://www.w3.org/2000/svg">
<path d="M29.1447 15.9723C29.1447 17.4918 28.8733 18.9027 28.4392 20.2594C28.1136 21.1277 27.7337 21.9417 27.2996 22.7014C26.6484 23.7868 25.7801 24.8178 24.8576 25.6861C24.6948 25.8489 24.532 25.9575 24.3692 26.1203C23.5009 26.8257 22.4698 27.4769 21.3845 27.9111C20.4077 28.3452 19.3223 28.6708 18.237 28.8336C17.5315 28.9421 16.8803 28.9964 16.1206 28.9964C10.4768 28.9964 5.64699 25.4148 3.85618 20.3679C3.69337 19.9338 3.58484 19.5539 3.47631 19.1198C3.3135 18.4143 3.20497 17.6546 3.1507 16.8948C3.09644 16.5692 3.09644 16.2979 3.09644 15.9723C3.09644 15.3754 3.1507 14.7784 3.20497 14.1815C3.20497 14.0187 3.25924 13.9101 3.25924 13.7473C3.42204 12.8791 3.63911 12.0108 3.96471 11.1968C4.34458 10.1657 4.88725 9.24317 5.53846 8.37489C7.92621 5.11886 11.7249 3.00244 16.1206 3.00244C19.5394 3.00244 22.6326 4.30485 24.9661 6.47554C25.0746 6.58407 25.1832 6.69261 25.2917 6.80114C25.8886 7.34382 26.377 7.99502 26.8112 8.64623C27.3539 9.46023 27.8423 10.3828 28.2221 11.3053C28.4392 11.848 28.602 12.3907 28.7105 12.9333C28.9819 13.9101 29.1447 14.9412 29.1447 15.9723Z" fill="#9BCDFB" stroke="#01090F" stroke-width="0.3" stroke-miterlimit="10" stroke-linecap="round" stroke-linejoin="round"/>
<path d="M7.7716 12.0294L7.77658 12.0384L7.78272 12.0466C7.82939 12.1088 7.86038 12.2425 7.84414 12.4732C7.82851 12.6952 7.77184 12.9747 7.68274 13.2951C7.50481 13.935 7.20433 14.7147 6.87626 15.4791C6.54863 16.2424 6.19544 16.986 5.91399 17.5523C5.77328 17.8354 5.65072 18.0737 5.55849 18.2477C5.51235 18.3347 5.47405 18.4051 5.44503 18.4567C5.43049 18.4826 5.4186 18.5031 5.40942 18.5184C5.40523 18.5254 5.40183 18.5309 5.39916 18.535C5.25072 18.6814 5.06655 18.8142 4.84688 18.8616C4.78727 18.8637 4.7202 18.8761 4.66298 18.8867C4.6552 18.8881 4.64759 18.8895 4.64021 18.8909C4.56563 18.9044 4.49612 18.9156 4.42962 18.9156H3.46421C3.31785 18.2516 3.2191 17.5412 3.1683 16.8299L3.16762 16.8205L3.16577 16.8112C3.115 16.5574 3.11441 16.248 3.11441 15.9181C3.11441 15.319 3.1148 14.7356 3.22053 14.1541L3.24065 14.0434L3.14003 13.9931C3.05686 13.9515 2.98221 13.9008 2.91088 13.8431H3.12721H3.2517L3.27464 13.7208C3.43011 12.8916 3.63456 12.0671 3.93482 11.2926H6.54604C7.08362 11.2926 7.52426 11.5842 7.7716 12.0294Z" fill="#519AF4" stroke="#01090F" stroke-width="0.3"/>
<mask id="path-3-inside-1_4116_72848" fill="white">
<path d="M29.0909 13.2041C28.9824 12.7157 28.8738 12.2273 28.6568 11.7931C28.3854 10.9791 27.9513 10.1651 27.5172 9.45963C27.1916 8.86269 26.7574 8.32002 26.269 7.77734H23.9355C23.7185 7.77734 23.5014 7.83161 23.3386 7.88588C23.2843 7.94015 23.23 7.94015 23.1215 7.99441C22.7416 8.21148 21.9819 8.69989 21.6563 9.56816C21.1136 10.9248 19.7569 11.7388 18.2917 11.7388H15.4698C14.4388 11.7388 13.6248 12.6071 13.6248 13.7467C13.6248 13.7467 13.7333 14.4522 13.9504 15.5375C14.1674 16.5144 14.2217 17.4912 14.1674 18.468C14.1132 19.8789 14.493 21.5612 15.4156 23.135C17.0436 25.9568 19.7027 27.5306 21.7648 26.9879C21.9276 27.0965 22.216 27.4967 22.4331 27.5509C22.4331 27.5509 23.5524 27.1609 25.6552 25.058C25.7638 24.9495 25.9876 24.746 26.0961 24.5832C26.8559 23.8235 27.4086 22.7551 27.9513 21.7783C28.3312 21.1271 28.6568 20.3673 28.8738 19.6619C29.2537 18.468 29.4708 17.2198 29.4708 15.9174C29.3622 14.9406 29.2537 14.0723 29.0909 13.2041Z"/>
</mask>
<path d="M29.0909 13.2041C28.9824 12.7157 28.8738 12.2273 28.6568 11.7931C28.3854 10.9791 27.9513 10.1651 27.5172 9.45963C27.1916 8.86269 26.7574 8.32002 26.269 7.77734H23.9355C23.7185 7.77734 23.5014 7.83161 23.3386 7.88588C23.2843 7.94015 23.23 7.94015 23.1215 7.99441C22.7416 8.21148 21.9819 8.69989 21.6563 9.56816C21.1136 10.9248 19.7569 11.7388 18.2917 11.7388H15.4698C14.4388 11.7388 13.6248 12.6071 13.6248 13.7467C13.6248 13.7467 13.7333 14.4522 13.9504 15.5375C14.1674 16.5144 14.2217 17.4912 14.1674 18.468C14.1132 19.8789 14.493 21.5612 15.4156 23.135C17.0436 25.9568 19.7027 27.5306 21.7648 26.9879C21.9276 27.0965 22.216 27.4967 22.4331 27.5509C22.4331 27.5509 23.5524 27.1609 25.6552 25.058C25.7638 24.9495 25.9876 24.746 26.0961 24.5832C26.8559 23.8235 27.4086 22.7551 27.9513 21.7783C28.3312 21.1271 28.6568 20.3673 28.8738 19.6619C29.2537 18.468 29.4708 17.2198 29.4708 15.9174C29.3622 14.9406 29.2537 14.0723 29.0909 13.2041Z" fill="#519AF4"/>
<path d="M29.0909 13.2041L29.3859 13.1487L29.3838 13.139L29.0909 13.2041ZM28.6568 11.7931L28.3722 11.888L28.3789 11.9082L28.3884 11.9273L28.6568 11.7931ZM27.5172 9.45963L27.2538 9.60328L27.2575 9.61017L27.2617 9.61686L27.5172 9.45963ZM26.269 7.77734L26.492 7.57665L26.4026 7.47734H26.269V7.77734ZM23.3386 7.88588L23.2437 7.60127L23.1765 7.62367L23.1264 7.67375L23.3386 7.88588ZM23.1215 7.99441L22.9873 7.72608L22.9799 7.72981L22.9727 7.73394L23.1215 7.99441ZM21.6563 9.56816L21.9349 9.6796L21.9372 9.6735L21.6563 9.56816ZM13.6248 13.7467H13.3248V13.7697L13.3282 13.7923L13.6248 13.7467ZM13.9504 15.5375L13.6561 15.5964L13.6575 15.6026L13.9504 15.5375ZM14.1674 18.468L13.8678 18.4513L13.8676 18.4564L14.1674 18.468ZM15.4156 23.135L15.6754 22.985L15.6744 22.9832L15.4156 23.135ZM21.7648 26.9879L21.9312 26.7383L21.819 26.6635L21.6885 26.6978L21.7648 26.9879ZM22.4331 27.5509L22.3603 27.842L22.4472 27.8637L22.5318 27.8342L22.4331 27.5509ZM25.6552 25.058L25.8673 25.2702L25.6552 25.058ZM26.0961 24.5832L25.884 24.3711L25.863 24.3921L25.8465 24.4168L26.0961 24.5832ZM27.9513 21.7783L27.6921 21.6271L27.689 21.6326L27.9513 21.7783ZM28.8738 19.6619L28.5879 19.5709L28.5871 19.5736L28.8738 19.6619ZM29.4708 15.9174H29.7708V15.9008L29.7689 15.8843L29.4708 15.9174ZM29.3838 13.139C29.2768 12.6577 29.1616 12.1319 28.9251 11.6589L28.3884 11.9273C28.5861 12.3226 28.6879 12.7737 28.798 13.2691L29.3838 13.139ZM28.9414 11.6982C28.6597 10.8533 28.2125 10.0172 27.7727 9.3024L27.2617 9.61686C27.6901 10.313 28.1111 11.1049 28.3722 11.888L28.9414 11.6982ZM27.7805 9.31597C27.4385 8.68892 26.9865 8.12608 26.492 7.57665L26.046 7.97803C26.5283 8.51395 26.9446 9.03645 27.2538 9.60328L27.7805 9.31597ZM26.269 7.47734H23.9355V8.07734H26.269V7.47734ZM23.9355 7.47734C23.6731 7.47734 23.4215 7.54202 23.2437 7.60127L23.4334 8.17048C23.5813 8.12121 23.7638 8.07734 23.9355 8.07734V7.47734ZM23.1264 7.67375C23.1317 7.66854 23.1385 7.66333 23.1449 7.65952C23.1496 7.65676 23.1504 7.65702 23.139 7.6616C23.1205 7.66899 23.0565 7.69151 22.9873 7.72608L23.2557 8.26274C23.2951 8.24305 23.3124 8.23843 23.3618 8.21869C23.4116 8.19877 23.4819 8.16681 23.5507 8.09801L23.1264 7.67375ZM22.9727 7.73394C22.5827 7.95679 21.7403 8.48977 21.3754 9.46282L21.9372 9.6735C22.2235 8.91 22.9006 8.46617 23.2704 8.25489L22.9727 7.73394ZM21.3778 9.45674C20.8861 10.6858 19.6498 11.4388 18.2917 11.4388V12.0388C19.8641 12.0388 21.3411 11.1639 21.9348 9.67958L21.3778 9.45674ZM18.2917 11.4388H15.4698V12.0388H18.2917V11.4388ZM15.4698 11.4388C14.2513 11.4388 13.3248 12.464 13.3248 13.7467H13.9248C13.9248 12.7502 14.6262 12.0388 15.4698 12.0388V11.4388ZM13.6248 13.7467C13.3282 13.7923 13.3282 13.7924 13.3282 13.7924C13.3283 13.7924 13.3283 13.7924 13.3283 13.7924C13.3283 13.7925 13.3283 13.7925 13.3283 13.7926C13.3283 13.7927 13.3283 13.7928 13.3283 13.793C13.3284 13.7934 13.3285 13.794 13.3286 13.7947C13.3288 13.7962 13.3292 13.7984 13.3296 13.8012C13.3305 13.8068 13.3318 13.8152 13.3335 13.8261C13.337 13.848 13.3422 13.8802 13.349 13.9223C13.3627 14.0063 13.3833 14.1294 13.4106 14.2865C13.4652 14.6007 13.5471 15.0509 13.6562 15.5964L14.2445 15.4787C14.1366 14.9388 14.0556 14.4936 14.0017 14.1837C13.9748 14.0288 13.9546 13.9077 13.9412 13.8256C13.9345 13.7845 13.9295 13.7532 13.9261 13.7322C13.9245 13.7217 13.9233 13.7139 13.9224 13.7087C13.922 13.706 13.9217 13.7041 13.9215 13.7028C13.9214 13.7022 13.9214 13.7018 13.9213 13.7015C13.9213 13.7013 13.9213 13.7012 13.9213 13.7012C13.9213 13.7011 13.9213 13.7011 13.9213 13.7011C13.9213 13.7011 13.9213 13.7011 13.9213 13.7011C13.9213 13.7011 13.9213 13.7011 13.6248 13.7467ZM13.6575 15.6026C13.8676 16.548 13.9209 17.4968 13.8679 18.4513L14.467 18.4846C14.5225 17.4855 14.4673 16.4807 14.2432 15.4725L13.6575 15.6026ZM13.8676 18.4564C13.8111 19.9267 14.2064 21.6654 15.1568 23.2867L15.6744 22.9832C14.7797 21.457 14.4152 19.8311 14.4672 18.4795L13.8676 18.4564ZM15.1557 23.2849C15.992 24.7344 17.0979 25.8725 18.2726 26.5801C19.4446 27.2861 20.7087 27.5761 21.8412 27.278L21.6885 26.6978C20.7588 26.9424 19.6623 26.7168 18.5822 26.0662C17.5048 25.4171 16.4672 24.3574 15.6754 22.985L15.1557 23.2849ZM21.5984 27.2375C21.6111 27.246 21.6406 27.2712 21.6947 27.3256C21.7194 27.3505 21.7456 27.3776 21.7747 27.4078C21.8032 27.4373 21.8341 27.4693 21.8658 27.5012C21.9281 27.5639 22.0002 27.6332 22.0756 27.692C22.1466 27.7473 22.245 27.8132 22.3603 27.842L22.5059 27.2599C22.5127 27.2616 22.4937 27.2571 22.4444 27.2187C22.3996 27.1838 22.3488 27.1361 22.2915 27.0784C22.2633 27.05 22.2353 27.021 22.2065 26.9911C22.1782 26.9618 22.1487 26.9312 22.1201 26.9025C22.0676 26.8496 22 26.7841 21.9312 26.7383L21.5984 27.2375ZM22.4331 27.5509C22.5318 27.8342 22.532 27.8342 22.5321 27.8341C22.5322 27.8341 22.5324 27.834 22.5325 27.834C22.5327 27.8339 22.533 27.8338 22.5332 27.8337C22.5338 27.8335 22.5344 27.8333 22.5351 27.8331C22.5364 27.8326 22.538 27.832 22.5399 27.8313C22.5437 27.8299 22.5485 27.8281 22.5544 27.8258C22.5663 27.8213 22.5824 27.8148 22.6028 27.8061C22.6435 27.7888 22.7013 27.7626 22.7758 27.7251C22.9249 27.65 23.1408 27.5294 23.4215 27.343C23.983 26.9702 24.8038 26.3338 25.8673 25.2702L25.4431 24.8459C24.4038 25.8852 23.6136 26.4952 23.0896 26.8431C22.8277 27.0171 22.6324 27.1255 22.5059 27.1892C22.4426 27.2211 22.3965 27.2418 22.3678 27.254C22.3535 27.2601 22.3435 27.2641 22.3379 27.2663C22.3351 27.2673 22.3335 27.268 22.3329 27.2682C22.3326 27.2683 22.3325 27.2683 22.3328 27.2682C22.3329 27.2682 22.3331 27.2681 22.3334 27.268C22.3335 27.268 22.3337 27.2679 22.3338 27.2678C22.3339 27.2678 22.3341 27.2678 22.3341 27.2677C22.3342 27.2677 22.3344 27.2677 22.4331 27.5509ZM25.8673 25.2702C25.9066 25.231 26.011 25.1315 26.0899 25.051C26.175 24.9642 26.2749 24.8559 26.3458 24.7496L25.8465 24.4168C25.8088 24.4734 25.7426 24.5482 25.6614 24.631C25.5742 24.72 25.5124 24.7766 25.4431 24.8459L25.8673 25.2702ZM26.3083 24.7953C27.1051 23.9985 27.6806 22.8832 28.2135 21.924L27.689 21.6326C27.1366 22.627 26.6066 23.6485 25.884 24.3711L26.3083 24.7953ZM28.2104 21.9294C28.6026 21.2571 28.9372 20.476 29.1606 19.7501L28.5871 19.5736C28.3763 20.2586 28.0597 20.9971 27.6922 21.6271L28.2104 21.9294ZM29.1597 19.7528C29.548 18.5325 29.7708 17.2537 29.7708 15.9174H29.1708C29.1708 17.186 28.9594 18.4034 28.588 19.5709L29.1597 19.7528ZM29.7689 15.8843C29.6602 14.9058 29.5507 14.0285 29.3858 13.1488L28.796 13.2593C28.9567 14.1162 29.0643 14.9754 29.1726 15.9505L29.7689 15.8843Z" fill="#01090F" mask="url(#path-3-inside-1_4116_72848)"/>
<path d="M29.1447 15.9723C29.1447 17.4918 28.8733 18.9027 28.4392 20.2594C28.1136 21.1277 27.7337 21.9417 27.2996 22.7014C26.6484 23.7868 25.7801 24.8178 24.8576 25.6861C24.6948 25.8489 24.532 25.9575 24.3692 26.1203C23.5009 26.8257 22.4698 27.4769 21.3845 27.9111C20.4077 28.3452 19.3223 28.6708 18.237 28.8336C17.5315 28.9421 16.8803 28.9964 16.1206 28.9964C10.4768 28.9964 5.64699 25.4148 3.85618 20.3679C3.69337 19.9338 3.58484 19.5539 3.47631 19.1198C3.3135 18.4143 3.20497 17.6546 3.1507 16.8948C3.09644 16.5692 3.09644 16.2979 3.09644 15.9723C3.09644 15.3754 3.1507 14.7784 3.20497 14.1815C3.20497 14.0187 3.25924 13.9101 3.25924 13.7473C3.42204 12.8791 3.63911 12.0108 3.96471 11.1968C4.34458 10.1657 4.88725 9.24317 5.53846 8.37489C7.92621 5.11886 11.7249 3.00244 16.1206 3.00244C19.5394 3.00244 22.6326 4.30485 24.9661 6.47554C25.0746 6.58407 25.1832 6.69261 25.2917 6.80114C25.8886 7.34382 26.377 7.99502 26.8112 8.64623C27.3539 9.46023 27.8423 10.3828 28.2221 11.3053C28.4392 11.848 28.602 12.3907 28.7105 12.9333C28.9819 13.9101 29.1447 14.9412 29.1447 15.9723Z" stroke="#01090F" stroke-width="0.3" stroke-miterlimit="10" stroke-linecap="round" stroke-linejoin="round"/>
<path d="M0.0851589 9.31811C-0.447103 12.0613 1.60006 14.477 4.26137 14.5588H8.15097C8.43757 14.5588 8.68323 14.3132 8.68323 14.0266V10.2189C8.68323 7.51661 6.26758 5.4285 3.48345 5.96076C1.80477 6.28831 0.412705 7.63943 0.0851589 9.31811Z" fill="#01090F"/>
<path d="M4.3428 14.3853C6.64392 14.3853 8.50934 12.5199 8.50934 10.2188C8.50934 7.91767 6.64392 6.05225 4.3428 6.05225C2.04169 6.05225 0.17627 7.91767 0.17627 10.2188C0.17627 12.5199 2.04169 14.3853 4.3428 14.3853Z" fill="#FFC664"/>
<path fill-rule="evenodd" clip-rule="evenodd" d="M6.84445 8.42293C7.10162 8.6441 7.1308 9.03186 6.90964 9.28902L4.09275 12.5645C3.87782 12.8144 3.50393 12.8501 3.24561 12.6453L1.85743 11.545C1.59162 11.3343 1.54695 10.948 1.75764 10.6822C1.96833 10.4164 2.35462 10.3717 2.62042 10.5824L3.5462 11.3162L5.97836 8.48812C6.19953 8.23096 6.58729 8.20177 6.84445 8.42293Z" fill="#9BCDFB" stroke="#01090F" stroke-width="0.3" stroke-miterlimit="10" stroke-linecap="round" stroke-linejoin="round"/>
<path d="M28.1284 10.313C25.0419 9.71416 22.3238 12.0176 22.2317 15.012V19.3885C22.2317 19.711 22.5081 19.9874 22.8306 19.9874H27.1149C30.1554 19.9874 32.5049 17.2694 31.906 14.1367C31.5375 12.2018 30.0172 10.6816 28.1284 10.313Z" fill="#01090F"/>
<path d="M27.1146 19.6643C29.6587 19.6643 31.7212 17.6019 31.7212 15.0577C31.7212 12.5136 29.6587 10.4512 27.1146 10.4512C24.5705 10.4512 22.5081 12.5136 22.5081 15.0577C22.5081 17.6019 24.5705 19.6643 27.1146 19.6643Z" fill="#FFC664"/>
<path fill-rule="evenodd" clip-rule="evenodd" d="M29.9304 12.9904C30.2198 13.2392 30.2526 13.6755 30.0038 13.9649L26.8343 17.6503C26.5925 17.9315 26.1718 17.9717 25.8811 17.7413L24.3192 16.5032C24.0201 16.2661 23.9698 15.8315 24.2069 15.5324C24.444 15.2333 24.8786 15.1831 25.1777 15.4201L26.2193 16.2458L28.9559 13.0637C29.2048 12.7743 29.6411 12.7415 29.9304 12.9904Z" fill="#9BCDFB" stroke="#01090F" stroke-width="0.3" stroke-miterlimit="10" stroke-linecap="round" stroke-linejoin="round"/>
</svg>
