<svg width="32" height="32" viewBox="0 0 32 32" fill="none" xmlns="http://www.w3.org/2000/svg">
<path d="M25.3929 21.2063H6.60156C7.26428 19.6264 8.27477 18.2363 9.549 17.1517C10.8232 16.0671 12.3244 15.3193 13.9276 14.9704C12.4759 14.5053 11.2327 13.5011 10.428 12.1436C9.62335 10.786 9.3115 9.16688 9.55015 7.58545C9.7888 6.00402 10.5618 4.56726 11.7263 3.54078C12.8907 2.5143 14.3679 1.96751 15.8847 2.00149H16.2458H16.2772C17.7438 2.07911 19.1383 2.69681 20.2181 3.74719C21.298 4.79757 21.995 6.2142 22.1878 7.75076C22.3807 9.28733 22.0572 10.8466 21.2737 12.1576C20.4902 13.4685 19.2963 14.4482 17.8994 14.9262C19.5369 15.254 21.0746 15.9968 22.3799 17.0908C23.6852 18.1847 24.7192 19.5971 25.3929 21.2063Z" fill="#FFA9C6" stroke="#01090F" stroke-width="0.3" stroke-linecap="round" stroke-linejoin="round"/>
<path d="M22.2926 17.2168C23.5178 18.2454 24.5006 19.5594 25.1644 21.0555H23.3096C22.625 19.4649 21.5909 18.068 20.2918 16.9812C19.0964 15.981 17.7088 15.2706 16.2276 14.8978C17.3663 14.3999 18.3479 13.566 19.0521 12.4926C19.8498 11.2768 20.2482 9.81987 20.1876 8.34405C20.1271 6.86823 19.6108 5.45286 18.7163 4.31402C17.9501 3.33856 16.9421 2.61157 15.8092 2.21091C15.9641 2.18794 16.1199 2.17153 16.2762 2.16172H16.299C17.7269 2.23826 19.0858 2.84011 20.1394 3.86494C21.1941 4.89087 21.876 6.27586 22.0648 7.77967C22.2535 9.28351 21.9368 10.8091 21.1708 12.0909C20.4048 13.3725 19.2387 14.3284 17.8766 14.7945L17.3533 14.9736L17.8954 15.0834C19.5021 15.4091 21.0109 16.1409 22.2926 17.2168Z" fill="#FFAE1F" stroke="#01090F" stroke-width="0.3"/>
<path d="M29.6396 30H2.36084" stroke="#01090F" stroke-width="0.3" stroke-linecap="round" stroke-linejoin="round"/>
<path d="M7.19261 17.8477H24.7803C25.1217 17.8477 25.4492 17.9908 25.6906 18.2456C25.932 18.5004 26.0676 18.846 26.0676 19.2064V29.9991H5.90532V19.2175C5.90393 19.0381 5.93621 18.8602 6.00028 18.6941C6.06436 18.528 6.15896 18.3769 6.27863 18.2495C6.39831 18.1222 6.54068 18.0211 6.69755 17.9521C6.85442 17.8832 7.02267 17.8477 7.19261 17.8477Z" fill="#FB5D96" stroke="#01090F" stroke-width="0.3" stroke-linecap="round" stroke-linejoin="round"/>
<path d="M16.7213 24.1742L16.7213 24.1747C16.722 24.7815 16.9074 25.3729 17.2512 25.8615C17.5447 26.2787 17.9407 26.6026 18.3955 26.799C17.9803 27.1418 17.4896 27.369 16.9685 27.4587C16.3696 27.5618 15.755 27.479 15.1992 27.22C14.6433 26.9609 14.1695 26.5362 13.8363 25.9965C13.5031 25.4567 13.3253 24.8255 13.3253 24.1799C13.3253 23.5343 13.5031 22.9031 13.8363 22.3633C14.1695 21.8236 14.6433 21.399 15.1992 21.1399C15.755 20.8808 16.3696 20.798 16.9685 20.9011C17.4894 20.9907 17.9798 21.2178 18.3949 21.5603C17.9412 21.755 17.5458 22.0769 17.2524 22.4921C16.9084 22.9789 16.7226 23.5687 16.7213 24.1742Z" fill="#FFC664" stroke="#01090F" stroke-width="0.3"/>
</svg>
