<svg width="32" height="32" viewBox="0 0 32 32" fill="none" xmlns="http://www.w3.org/2000/svg">
<g clip-path="url(#clip0_4116_72816)">
<path d="M18.0103 25.1688H0C0.597349 23.6771 1.54911 22.3508 2.77423 21.3027C3.99936 20.2546 5.46157 19.5159 7.03636 19.1494C5.79388 18.6796 4.72772 17.8408 3.98333 16.7476C3.23894 15.6543 2.85257 14.3597 2.87693 13.0405C2.87693 9.49764 5.58056 6.62207 8.9081 6.62207H9.25472H9.28938C10.1419 6.66939 10.973 6.90438 11.7226 7.31001C12.7194 7.88905 13.5435 8.72007 14.1111 9.71832C14.6786 10.7166 14.9691 11.8463 14.9531 12.9924C14.977 14.3007 14.5956 15.5848 13.8604 16.6712C13.1252 17.7575 12.0717 18.5937 10.8422 19.0668C11.8297 19.2667 12.778 19.6245 13.6498 20.1262C13.9592 20.2987 14.2578 20.4893 14.5441 20.6972C15.7754 21.5915 16.7892 22.748 17.5112 24.0819C17.7031 24.4321 17.8699 24.7953 18.0103 25.1688Z" fill="#4AC7D3" stroke="#01090F" stroke-width="0.3" stroke-linecap="round" stroke-linejoin="round"/>
<path d="M12.7586 20.7792L12.7577 20.7784C11.7068 19.9607 10.4969 19.3706 9.2063 19.0441C10.2798 18.542 11.1996 17.7596 11.8647 16.7768C12.6169 15.6654 13.0069 14.3515 12.982 13.0127C12.9986 11.8415 12.7023 10.6868 12.1234 9.66622C11.544 8.64488 10.7022 7.79433 9.6839 7.20112L9.68391 7.20111L9.68191 7.19998C9.40552 7.04458 9.11721 6.91179 8.81985 6.80276C8.96539 6.78141 9.11192 6.7666 9.25899 6.7584H9.28532C10.1136 6.80498 10.921 7.03341 11.6494 7.42718C12.6224 7.9929 13.4268 8.80435 13.9808 9.77878C14.5351 10.7539 14.8189 11.8573 14.8033 12.9766L14.8032 12.9766L14.8033 12.9814C14.8266 14.2588 14.4542 15.5126 13.7363 16.5734C13.0184 17.6343 11.9895 18.451 10.7885 18.9132L10.308 19.098L10.8126 19.2002C11.7843 19.3969 12.7173 19.7489 13.5752 20.2426L13.5769 20.2436C13.881 20.4131 14.1746 20.6006 14.4561 20.8049C15.6693 21.686 16.6681 22.8255 17.3794 24.1396L17.3795 24.1397C17.5341 24.4247 17.6718 24.7182 17.792 25.0189H16.0303C15.8899 24.6899 15.7315 24.3688 15.5557 24.0571C15.0273 23.0987 14.3515 22.228 13.5526 21.4764C13.3002 21.2306 13.0352 20.9979 12.7586 20.7792Z" fill="#FFC664" stroke="#01090F" stroke-width="0.3"/>
<path d="M31.9995 25.1747H13.9753C14.5739 23.6825 15.5268 22.3559 16.7531 21.3079C17.9795 20.2598 19.4428 19.5213 21.0186 19.1552C19.7762 18.6854 18.71 17.8467 17.9656 16.7534C17.2212 15.6601 16.8348 14.3656 16.8592 13.0464C16.8592 9.5035 19.5628 6.62793 22.8973 6.62793H23.2439C24.0971 6.67104 24.9292 6.9063 25.6772 7.31587C26.6903 7.89913 27.5267 8.74205 28.0987 9.75631C28.6707 10.7706 28.9573 11.9188 28.9285 13.0808C28.9524 14.3891 28.5709 15.6733 27.8358 16.7596C27.1006 17.846 26.0471 18.6822 24.8176 19.1552C25.8069 19.3563 26.7573 19.714 27.6321 20.2147C27.9401 20.3855 28.2366 20.5763 28.5195 20.7856C29.7413 21.6721 30.7499 22.8163 31.4726 24.1359C31.6692 24.4713 31.8451 24.8182 31.9995 25.1747Z" fill="#4AC7D3" stroke="#01090F" stroke-width="0.3" stroke-linecap="round" stroke-linejoin="round"/>
<path d="M26.7477 20.785L26.7476 20.7849C25.6984 19.9682 24.4909 19.3784 23.2026 19.051C24.2672 18.5536 25.1811 17.7808 25.846 16.8101C26.5986 15.7112 26.9962 14.4107 26.9857 13.0819C27.0018 11.9097 26.7044 10.7542 26.124 9.73327C25.5434 8.71187 24.7002 7.86171 23.6806 7.26939L23.6806 7.26938L23.6787 7.26834C23.4029 7.11328 23.1153 6.98073 22.8186 6.87183C22.9646 6.85047 23.1115 6.83549 23.259 6.82698C24.0863 6.86998 24.8929 7.09852 25.6182 7.4954C26.5978 8.06309 27.4069 8.87957 27.9625 9.86062C28.5184 10.8422 28.8003 11.953 28.7793 13.0786L28.7792 13.0786L28.7793 13.0842C28.8026 14.3616 28.4303 15.6154 27.7124 16.6762C26.9944 17.737 25.9655 18.5538 24.7645 19.0159L24.2847 19.2005L24.7885 19.3029C25.7622 19.5008 26.6975 19.8528 27.5584 20.3455L27.5602 20.3465C27.8625 20.5142 28.1534 20.7014 28.431 20.9069L28.4322 20.9077C29.6361 21.7812 30.6298 22.9085 31.3419 24.2086L31.3419 24.2086L31.344 24.2124C31.4988 24.4765 31.6406 24.7478 31.7689 25.0253H30.0194C29.8747 24.6944 29.7093 24.3728 29.5241 24.0623C29.0046 23.1046 28.336 22.2342 27.5431 21.4833C27.2918 21.2355 27.0262 21.0023 26.7477 20.785Z" fill="#FFC664" stroke="#01090F" stroke-width="0.3"/>
<path d="M27.0436 25.1684H5.37305C6.08628 23.3663 7.22986 21.763 8.70548 20.4964C10.1811 19.2298 11.9446 18.3377 13.8444 17.8969C12.344 17.336 11.0554 16.328 10.1555 15.0113C9.2556 13.6945 8.78853 12.1336 8.81843 10.5429C8.81843 6.28453 12.0766 2.82422 16.0836 2.82422H16.4995H16.5411C17.5707 2.89006 18.5714 3.18892 19.4666 3.6979C20.6661 4.39309 21.6581 5.39178 22.3414 6.59195C23.0246 7.79212 23.3746 9.15077 23.3556 10.5291C23.3962 12.1136 22.9425 13.6719 22.0564 14.9908C21.1704 16.3096 19.8954 17.3246 18.4059 17.8969C19.5878 18.1371 20.7231 18.5645 21.7681 19.1627C22.1417 19.3674 22.5007 19.5973 22.8426 19.8506C24.6852 21.2232 26.1218 23.0623 27.002 25.1752L27.0436 25.1684Z" fill="#97DDE5" stroke="#01090F" stroke-width="0.3" stroke-linecap="round" stroke-linejoin="round"/>
<path d="M20.721 19.9383C19.4353 18.9461 17.9541 18.2362 16.3757 17.8532C17.6964 17.253 18.8278 16.301 19.6414 15.099C20.5436 13.766 21.0113 12.1901 20.9812 10.5844C21.0009 9.18088 20.6451 7.79729 19.9504 6.57473C19.2552 5.35145 18.2455 4.33324 17.0244 3.6239L17.0244 3.62389L17.0228 3.62296C16.6508 3.4131 16.2613 3.23625 15.8589 3.09425C16.0721 3.05988 16.2871 3.0361 16.503 3.02305H16.5352C17.5403 3.08804 18.517 3.38008 19.3908 3.87681C20.5672 4.55873 21.54 5.53816 22.21 6.71499C22.8801 7.89198 23.2232 9.22429 23.2046 10.5759L23.2045 10.5759L23.2046 10.5808C23.2345 12.1262 22.7851 13.6435 21.917 14.9272C21.049 16.2109 19.8041 17.199 18.3511 17.7575L17.8709 17.9421L18.375 18.0445C19.5412 18.2816 20.6614 18.7033 21.6926 19.2935L21.695 19.2949C22.0624 19.4963 22.4156 19.7224 22.752 19.9716C24.5104 21.2815 25.8946 23.0211 26.7708 25.019H24.6392C24.4673 24.62 24.2744 24.2302 24.0612 23.8513C23.437 22.7015 22.6346 21.6563 21.6833 20.7539C21.3791 20.4633 21.0578 20.1909 20.721 19.9383ZM20.721 19.9383C20.7212 19.9385 20.7215 19.9387 20.7218 19.9389L20.6302 20.0577L20.7202 19.9377C20.7204 19.9379 20.7207 19.9381 20.721 19.9383Z" fill="#FFC664" stroke="#01090F" stroke-width="0.3"/>
</g>
<defs>
<clipPath id="clip0_4116_72816">
<rect width="32" height="32" fill="white"/>
</clipPath>
</defs>
</svg>
