<svg width="16" height="16" viewBox="0 0 16 16" fill="none" xmlns="http://www.w3.org/2000/svg">
<g clip-path="url(#clip0_4116_73351)">
<rect x="10.67" y="10.4193" width="1.23967" height="0.403734" transform="rotate(44.7659 10.67 10.4193)" fill="#97DDE5" stroke="#01090F" stroke-width="0.2"/>
<circle cx="6.22682" cy="6.20387" r="6.10387" fill="#97DDE5" stroke="#01090F" stroke-width="0.2"/>
<circle cx="6.22668" cy="6.20397" r="4.69528" fill="#4AC7D3" stroke="#01090F" stroke-width="0.2"/>
<circle cx="6.22687" cy="5.25934" r="1.70866" fill="#FFC664" stroke="#01090F" stroke-width="0.2"/>
<mask id="mask0_4116_73351" style="mask-type:alpha" maskUnits="userSpaceOnUse" x="1" y="1" width="11" height="10">
<circle cx="6.22668" cy="6.2047" r="4.79528" fill="#FFC664"/>
</mask>
<g mask="url(#mask0_4116_73351)">
<path d="M10.7827 11.3069C10.7827 13.5925 8.75164 15.4604 6.22676 15.4604C3.70187 15.4604 1.6708 13.5925 1.6708 11.3069C1.6708 9.02135 3.70187 7.15347 6.22676 7.15347C8.75164 7.15347 10.7827 9.02135 10.7827 11.3069Z" fill="#FFC664" stroke="#01090F" stroke-width="0.2"/>
</g>
<circle cx="6.22668" cy="6.20397" r="4.69528" stroke="#01090F" stroke-width="0.2"/>
<rect x="10.4791" y="12.2141" width="2.47627" height="1.21708" transform="rotate(-45.3178 10.4791 12.2141)" fill="#FFC664" stroke="#01090F" stroke-width="0.2"/>
<path d="M13.9324 15.697L11.2466 13.0963L13.1352 11.2231C13.9685 12.1055 15.6631 13.8981 15.7746 14.0096C15.9139 14.1489 16.2429 15.012 15.5579 15.697C15.0099 16.245 14.2459 15.9253 13.9324 15.697Z" fill="#4AC7D3"/>
<path d="M11.2466 13.0963L11.1762 13.0253L11.1037 13.0971L11.177 13.1681L11.2466 13.0963ZM13.9324 15.697L13.8622 15.7695L13.8735 15.7778L13.9324 15.697ZM15.5579 15.697L15.4871 15.6263L15.5579 15.697ZM15.7746 14.0096L15.7039 14.0803L15.7746 14.0096ZM13.1352 11.2231L13.2079 11.1545L13.1375 11.08L13.0648 11.1521L13.1352 11.2231ZM11.177 13.1681L13.8629 15.7688L14.002 15.6251L11.3161 13.0244L11.177 13.1681ZM13.8735 15.7778C14.0408 15.8996 14.3255 16.0446 14.6439 16.0872C14.9657 16.1303 15.3275 16.0687 15.6286 15.7677L15.4871 15.6263C15.2402 15.8732 14.946 15.9258 14.6705 15.889C14.3916 15.8517 14.1376 15.7227 13.9913 15.6161L13.8735 15.7778ZM15.6286 15.7677C15.994 15.4022 16.0903 14.9863 16.0752 14.6443C16.0678 14.4741 16.0328 14.3219 15.99 14.2021C15.9486 14.0861 15.8958 13.9894 15.8453 13.9389L15.7039 14.0803C15.723 14.0995 15.7636 14.1629 15.8017 14.2693C15.8383 14.3719 15.8689 14.5044 15.8754 14.6531C15.8884 14.9486 15.8067 15.3067 15.4871 15.6263L15.6286 15.7677ZM15.8453 13.9389C15.7352 13.8288 14.0424 12.038 13.2079 11.1545L13.0625 11.2918C13.8947 12.173 15.5911 13.9675 15.7039 14.0803L15.8453 13.9389ZM13.0648 11.1521L11.1762 13.0253L11.317 13.1673L13.2056 11.2941L13.0648 11.1521Z" fill="#01090F"/>
</g>
<defs>
<clipPath id="clip0_4116_73351">
<rect width="16" height="16" fill="white"/>
</clipPath>
</defs>
</svg>
