<svg width="16" height="16" viewBox="0 0 16 16" fill="none" xmlns="http://www.w3.org/2000/svg">
<g clip-path="url(#clip0_4116_72874)">
<path d="M10.2711 13.3144C8.91731 14.437 7.13433 14.8002 5.48342 14.371C5.18625 14.305 4.88909 14.404 4.69098 14.6351L3.76647 15.7247C3.46931 16.0549 2.97403 16.0879 2.67687 15.8238L0.959923 14.338C0.629741 14.0408 0.596722 13.5455 0.893886 13.2484L1.8184 12.1588C2.01651 11.9277 2.08254 11.6305 1.95047 11.3663C1.2901 9.81449 1.35614 7.96547 2.28065 6.47965C2.51178 6.08343 3.07309 6.0174 3.43629 6.31456L10.238 12.1588C10.6343 12.4229 10.6343 13.0173 10.2711 13.3144Z" fill="#97DDE5" stroke="#01090F" stroke-width="0.2" stroke-linecap="round" stroke-linejoin="round"/>
<path d="M2.04133 11.2922C1.4348 9.86468 1.4547 8.18334 2.20385 6.78036C2.21879 6.96581 2.24226 7.22222 2.27779 7.52939C2.35392 8.18763 2.48554 9.08021 2.70756 10.0077C2.9294 10.9345 3.24252 11.9006 3.68346 12.7035C4.04523 13.3622 4.49778 13.9196 5.06428 14.2506C4.89316 14.2976 4.73712 14.3954 4.61505 14.5378L4.61473 14.5382L3.69119 15.6266C3.42722 15.9188 2.99526 15.9408 2.74331 15.7168L2.74231 15.7159L1.02612 14.2308C0.733899 13.9671 0.71301 13.5384 0.964597 13.2868L0.964834 13.2871L0.970137 13.2808L1.89432 12.1916C1.89438 12.1915 1.89443 12.1915 1.89449 12.1914C2.11175 11.9378 2.19336 11.5994 2.04133 11.2922Z" fill="#FFC664" stroke="#01090F" stroke-width="0.2"/>
<path d="M10.2136 7.2432L11.5673 8.39884C11.6333 8.43186 11.6333 8.53091 11.5673 8.56393L10.3456 9.98372C10.1805 10.1488 9.9164 10.1818 9.75131 10.0167L8.85982 9.25731C8.69473 9.09222 8.66171 8.82808 8.8268 8.66299L10.0485 7.2432C10.0815 7.21019 10.1475 7.17717 10.2136 7.2432Z" fill="#97DDE5" stroke="#01090F" stroke-width="0.2" stroke-miterlimit="10" stroke-linecap="round" stroke-linejoin="round"/>
<path d="M7.20941 4.63414L8.56316 5.78978C8.6292 5.82279 8.6292 5.92185 8.56316 5.95487L7.34149 7.37465C7.1764 7.53974 6.91225 7.57276 6.74716 7.40767L5.85567 6.64825C5.69058 6.48316 5.65756 6.21901 5.82265 6.05392L7.04432 4.63414C7.07734 4.60112 7.14338 4.60112 7.20941 4.63414Z" fill="#97DDE5" stroke="#01090F" stroke-width="0.2" stroke-miterlimit="10" stroke-linecap="round" stroke-linejoin="round"/>
<path d="M14.2092 3.87414C14.0111 4.10526 13.945 4.40243 14.0771 4.66657C14.7375 6.21843 14.6714 8.03443 13.7469 9.55327C13.6479 9.71836 13.4828 9.85043 13.2847 9.88345C13.0536 9.94949 12.7564 9.88345 12.5583 9.71836L11.4357 8.76083L9.88381 7.4401L8.43101 6.18541L6.87915 4.86468L5.75653 3.87414C5.39333 3.57697 5.39333 2.98264 5.75653 2.68548C7.11028 1.56286 8.89326 1.19966 10.5442 1.6289C10.8413 1.69493 11.1385 1.59588 11.3366 1.36475L12.2611 0.275152C12.5583 -0.0550304 13.0536 -0.0880485 13.3507 0.176097L15.0346 1.66192C15.3648 1.95908 15.3978 2.45435 15.1337 2.75152L14.2092 3.87414Z" fill="#4AC7D3" stroke="#01090F" stroke-width="0.2" stroke-miterlimit="10" stroke-linecap="round" stroke-linejoin="round"/>
<path d="M13.2861 9.78136L12.6783 9.64322C13.2459 7.20498 12.9318 5.13392 12.4715 3.66673C12.2383 2.92336 11.9675 2.33478 11.7546 1.93149C11.6482 1.72982 11.5562 1.5744 11.4905 1.46903C11.4658 1.42943 11.4449 1.3969 11.4283 1.37163L12.3028 0.340997C12.5667 0.0487941 12.9987 0.0268755 13.2507 0.250838L13.2517 0.251714L14.9678 1.73688C15.2604 2.00081 15.2824 2.43302 15.0584 2.68508L15.0583 2.68503L15.0559 2.68795L14.132 3.80982C13.9151 4.06336 13.8337 4.40152 13.9856 4.70844C14.6329 6.23187 14.5671 8.01253 13.6609 9.50127L13.6606 9.50182C13.5769 9.6412 13.4423 9.74906 13.2861 9.78136Z" fill="#FFC664" stroke="#01090F" stroke-width="0.2"/>
</g>
<defs>
<clipPath id="clip0_4116_72874">
<rect width="16" height="16" fill="white"/>
</clipPath>
</defs>
</svg>
