<svg width="16" height="16" viewBox="0 0 16 16" fill="none" xmlns="http://www.w3.org/2000/svg">
<g clip-path="url(#clip0_4116_73333)">
<rect x="7.29336" y="0.1" width="1.41366" height="13.3991" rx="0.706829" fill="#FB5D96" stroke="#01090F" stroke-width="0.2"/>
<rect x="3.40298" y="13.2045" width="9.19429" height="2.69542" rx="0.9" fill="#FFA9C6" stroke="#01090F" stroke-width="0.2"/>
<path fill-rule="evenodd" clip-rule="evenodd" d="M12.6819 1.75928L10.3408 8.31727H11.2213L12.4825 3.65282C12.5359 3.45543 12.8161 3.45588 12.8688 3.65344L14.1137 8.31727H14.9929L12.6819 1.75928Z" fill="#FB5D96"/>
<path d="M10.3408 8.31727L10.2466 8.28365L10.1989 8.41727H10.3408V8.31727ZM12.6819 1.75928L12.7762 1.72604L12.6825 1.46013L12.5877 1.72566L12.6819 1.75928ZM11.2213 8.31727V8.41727H11.2978L11.3178 8.34337L11.2213 8.31727ZM12.4825 3.65282L12.579 3.67892V3.67892L12.4825 3.65282ZM12.8688 3.65344L12.9654 3.62765L12.8688 3.65344ZM14.1137 8.31727L14.0171 8.34306L14.0369 8.41727H14.1137V8.31727ZM14.9929 8.31727V8.41727H15.1342L15.0873 8.28404L14.9929 8.31727ZM10.435 8.35089L12.7761 1.7929L12.5877 1.72566L10.2466 8.28365L10.435 8.35089ZM11.2213 8.21727H10.3408V8.41727H11.2213V8.21727ZM11.3178 8.34337L12.579 3.67892L12.386 3.62672L11.1247 8.29117L11.3178 8.34337ZM12.579 3.67892C12.6057 3.58022 12.7458 3.58045 12.7722 3.67923L12.9654 3.62765C12.8863 3.33131 12.466 3.33063 12.386 3.62672L12.579 3.67892ZM12.7722 3.67923L14.0171 8.34306L14.2103 8.29148L12.9654 3.62765L12.7722 3.67923ZM14.9929 8.21727H14.1137V8.41727H14.9929V8.21727ZM12.5876 1.79251L14.8986 8.35051L15.0873 8.28404L12.7762 1.72604L12.5876 1.79251Z" fill="#01090F"/>
<path fill-rule="evenodd" clip-rule="evenodd" d="M3.36353 1.75928L1.02246 8.31727H1.87122C1.8665 8.28934 1.8677 8.25979 1.87599 8.23016L3.16462 3.62666C3.21924 3.43154 3.49602 3.432 3.54999 3.62731L4.8221 8.23081C4.83022 8.26022 4.83137 8.28955 4.82669 8.31727H5.67459L3.36353 1.75928Z" fill="#FB5D96"/>
<path d="M1.02246 8.31727L0.928282 8.28365L0.880582 8.41727H1.02246V8.31727ZM3.36353 1.75928L3.45785 1.72604L3.36414 1.46013L3.26935 1.72566L3.36353 1.75928ZM1.87122 8.31727V8.41727H1.98951L1.96982 8.30063L1.87122 8.31727ZM1.87599 8.23016L1.97229 8.25712H1.97229L1.87599 8.23016ZM3.16462 3.62666L3.26092 3.65362L3.16462 3.62666ZM3.54999 3.62731L3.4536 3.65394V3.65394L3.54999 3.62731ZM4.8221 8.23081L4.91848 8.20417L4.8221 8.23081ZM4.82669 8.31727L4.72808 8.30063L4.7084 8.41727H4.82669V8.31727ZM5.67459 8.31727V8.41727H5.81585L5.7689 8.28404L5.67459 8.31727ZM1.11664 8.35089L3.45771 1.7929L3.26935 1.72566L0.928282 8.28365L1.11664 8.35089ZM1.87122 8.21727H1.02246V8.41727H1.87122V8.21727ZM1.96982 8.30063C1.96752 8.28699 1.96803 8.27232 1.97229 8.25712L1.77969 8.20321C1.76736 8.24725 1.76549 8.2917 1.77261 8.33391L1.96982 8.30063ZM1.97229 8.25712L3.26092 3.65362L3.06832 3.59971L1.77969 8.20321L1.97229 8.25712ZM3.26092 3.65362C3.28822 3.55606 3.42662 3.55629 3.4536 3.65394L3.64638 3.60067C3.56542 3.30772 3.15025 3.30703 3.06832 3.59971L3.26092 3.65362ZM3.4536 3.65394L4.72571 8.25744L4.91848 8.20417L3.64638 3.60067L3.4536 3.65394ZM4.72571 8.25744C4.72988 8.27254 4.73037 8.28709 4.72808 8.30063L4.9253 8.33391C4.93237 8.29201 4.93057 8.2479 4.91848 8.20417L4.72571 8.25744ZM5.67459 8.21727H4.82669V8.41727H5.67459V8.21727ZM3.26922 1.79251L5.58027 8.35051L5.7689 8.28404L3.45785 1.72604L3.26922 1.79251Z" fill="#01090F"/>
<rect x="2.24746" y="2.296" width="1.10722" height="11.5053" rx="0.553608" transform="rotate(-90 2.24746 2.296)" fill="#FFA9C6" stroke="#01090F" stroke-width="0.2"/>
<path d="M6.28929 8.27148H0.391602C0.456631 9.28195 1.13594 11.3029 3.33294 11.3029C5.52995 11.3029 6.21926 9.28195 6.28929 8.27148Z" fill="#FFC664" stroke="#01090F" stroke-width="0.2"/>
<path d="M15.6086 8.27148H9.71094C9.77597 9.28195 10.4553 11.3029 12.6523 11.3029C14.8493 11.3029 15.5386 9.28195 15.6086 8.27148Z" fill="#FFC664" stroke="#01090F" stroke-width="0.2"/>
</g>
<defs>
<clipPath id="clip0_4116_73333">
<rect width="16" height="16" fill="white"/>
</clipPath>
</defs>
</svg>
