<svg width="25" height="24" viewBox="0 0 25 24" fill="none" xmlns="http://www.w3.org/2000/svg">
<path d="M18.5 12H14.5V13.5H18.5V12Z" fill="white"/>
<path d="M18.5 15H14.5V16.5H18.5V15Z" fill="white"/>
<path d="M20.5 7H15.5V4C15.5 2.9 14.6 2 13.5 2H11.5C10.4 2 9.5 2.9 9.5 4V7H4.5C3.4 7 2.5 7.9 2.5 9V20C2.5 21.1 3.4 22 4.5 22H20.5C21.6 22 22.5 21.1 22.5 20V9C22.5 7.9 21.6 7 20.5 7ZM11.5 7V4H13.5V7V9H11.5V7ZM20.5 20H4.5V9H9.5C9.5 10.1 10.4 11 11.5 11H13.5C14.6 11 15.5 10.1 15.5 9H20.5V20Z" fill="white"/>
<path d="M9.5 15C10.3284 15 11 14.3284 11 13.5C11 12.6716 10.3284 12 9.5 12C8.67157 12 8 12.6716 8 13.5C8 14.3284 8.67157 15 9.5 15Z" fill="white"/>
<path d="M11.58 16.18C10.94 15.9 10.24 15.75 9.5 15.75C8.76 15.75 8.06 15.9 7.42 16.18C6.86 16.42 6.5 16.96 6.5 17.57V18H12.5V17.57C12.5 16.96 12.14 16.42 11.58 16.18Z" fill="white"/>
</svg>
