<svg width="16" height="16" viewBox="0 0 16 16" fill="none" xmlns="http://www.w3.org/2000/svg">
<g clip-path="url(#clip0_4116_72889)">
<path d="M15.999 8.15121L15.9741 7.32173C15.9714 7.20487 15.9284 7.09255 15.8523 7.00384C15.7761 6.91513 15.6717 6.85551 15.5566 6.8351C15.5225 6.83237 15.4883 6.83237 15.4543 6.8351L15.0423 6.84063C14.9246 6.84464 14.8093 6.80728 14.7164 6.73504C14.6234 6.6628 14.5587 6.56025 14.5336 6.44525C14.517 6.36506 14.4976 6.28764 14.4783 6.21023C14.4395 6.05815 14.3981 5.90885 14.3483 5.76507C14.169 5.21153 13.9151 4.68502 13.5935 4.20012L13.5741 4.16971C13.5142 4.07602 13.4866 3.96527 13.4956 3.85441C13.5046 3.74356 13.5496 3.6387 13.6239 3.55589L13.8838 3.2794C13.9301 3.2315 13.9665 3.17488 13.9908 3.11282C14.015 3.05076 14.0267 2.9845 14.0252 2.91787C14.0237 2.85125 14.0089 2.7856 13.9818 2.72473C13.9547 2.66386 13.9157 2.60898 13.8672 2.56328L13.6322 2.33932L13.1981 1.92182C13.1504 1.87557 13.094 1.83927 13.0322 1.81503C12.9704 1.7908 12.9043 1.77911 12.8379 1.78065C12.7716 1.7822 12.7061 1.79694 12.6455 1.82403C12.5848 1.85111 12.5302 1.88999 12.4847 1.93841L12.2387 2.19278C12.1588 2.27549 12.0533 2.32872 11.9393 2.34378C11.8253 2.35884 11.7096 2.33486 11.611 2.27573C10.874 1.80658 10.0504 1.48975 9.18895 1.34395C9.07437 1.32405 8.97029 1.26487 8.89461 1.17657C8.81892 1.08827 8.77635 0.976365 8.77421 0.860087V0.492352C8.77242 0.425897 8.75755 0.360448 8.73045 0.299742C8.70336 0.239037 8.66456 0.184267 8.61629 0.138561C8.56802 0.0928548 8.51121 0.0571097 8.44912 0.0333681C8.38702 0.00962646 8.32086 -0.00164652 8.2544 0.000193956L7.33092 0.0250784C7.2641 0.0268694 7.19829 0.0418098 7.13725 0.0690456C7.07621 0.0962814 7.02113 0.135279 6.97517 0.183809C6.92921 0.232339 6.89326 0.289452 6.86938 0.351881C6.8455 0.414311 6.83416 0.480834 6.836 0.54765L6.85812 1.37713C6.74475 1.40201 6.63416 1.42413 6.52079 1.45455C5.73934 1.64905 5.00064 1.98653 4.34203 2.44992C4.24673 2.51624 4.13152 2.54776 4.01573 2.5392C3.89994 2.53065 3.79061 2.48253 3.7061 2.40292L3.4296 2.12643C3.33206 2.03369 3.20189 1.98313 3.06732 1.98572C2.93275 1.98831 2.80463 2.04383 2.71072 2.14025L2.04714 2.81213C1.95474 2.90874 1.90433 3.03799 1.90692 3.17166C1.90951 3.30532 1.96489 3.43252 2.06096 3.52548L2.39828 3.83239C2.4801 3.91038 2.53311 4.01377 2.54868 4.12573C2.56424 4.23769 2.54144 4.35162 2.484 4.44897C2.05433 5.16808 1.76708 5.96317 1.63793 6.79086C1.61827 6.90629 1.55941 7.0114 1.47126 7.08846C1.38311 7.16553 1.27108 7.20983 1.15407 7.2139L0.487719 7.23049C0.421388 7.23227 0.356065 7.24716 0.29551 7.27429C0.234955 7.30142 0.180363 7.34026 0.134878 7.38857C0.0893925 7.43688 0.0539111 7.49371 0.0304759 7.55579C0.00704067 7.61787 -0.00388509 7.68397 -0.00167352 7.75029L0.0232109 8.67654C0.0250017 8.743 0.0398698 8.80845 0.0669666 8.86915C0.0940634 8.92986 0.132858 8.98463 0.181131 9.03033C0.229405 9.07604 0.286212 9.11178 0.348306 9.13553C0.4104 9.15927 0.476565 9.17054 0.543018 9.1687L1.69599 9.13829C1.71535 9.22953 1.73747 9.32077 1.75959 9.41478C1.94895 10.1702 2.27201 10.8856 2.71349 11.5272C2.77938 11.6225 2.81016 11.7377 2.80058 11.8532C2.791 11.9686 2.74165 12.0772 2.66095 12.1604L2.10797 12.7299C2.06206 12.7778 2.02605 12.8342 2.00203 12.896C1.978 12.9578 1.96643 13.0238 1.96797 13.0901C1.96951 13.1563 1.98414 13.2217 2.01101 13.2823C2.03788 13.3429 2.07647 13.3976 2.12456 13.4433L2.32363 13.6368L2.7909 14.0875C2.88629 14.1827 3.01556 14.2362 3.15035 14.2362C3.28513 14.2362 3.4144 14.1827 3.50979 14.0875L4.06277 13.5013C4.14094 13.4189 4.24485 13.3654 4.35741 13.3499C4.46997 13.3343 4.58449 13.3575 4.68212 13.4156C5.17794 13.7172 5.71163 13.9515 6.26919 14.1124C6.43997 14.1651 6.61349 14.2085 6.78899 14.2423C6.89939 14.2659 6.99867 14.3258 7.07088 14.4126C7.14309 14.4993 7.18404 14.6078 7.18714 14.7207L7.2065 15.4755V15.5142C7.20927 15.5822 7.22571 15.6489 7.25483 15.7103C7.28396 15.7718 7.32518 15.8267 7.37602 15.8719C7.42687 15.9171 7.48629 15.9515 7.55075 15.9732C7.61521 15.9949 7.68338 16.0033 7.75119 15.9981L8.68297 15.9787C8.7493 15.9769 8.81462 15.962 8.87518 15.9349C8.93573 15.9078 8.99032 15.8689 9.03581 15.8206C9.0813 15.7723 9.11678 15.7155 9.14021 15.6534C9.16365 15.5913 9.17457 15.5252 9.17236 15.4589L9.15577 14.7345C9.15222 14.6146 9.18977 14.4972 9.2622 14.4016C9.33463 14.3061 9.43757 14.2381 9.55392 14.2092L9.71982 14.1677C10.4226 13.992 11.0909 13.6995 11.6967 13.3023C11.7921 13.2408 11.9055 13.2133 12.0184 13.2244C12.1313 13.2354 12.2372 13.2843 12.3189 13.3631L12.8718 13.8967C12.969 13.9901 13.0993 14.0412 13.2341 14.0386C13.3689 14.036 13.4972 13.98 13.5907 13.8829L14.2322 13.2138C14.3266 13.1185 14.3795 12.9898 14.3795 12.8557C14.3795 12.7216 14.3266 12.5929 14.2322 12.4977L13.7151 12C13.6306 11.9199 13.5768 11.8126 13.5631 11.6969C13.5495 11.5812 13.5769 11.4644 13.6405 11.3668C14.0714 10.6963 14.3777 9.95357 14.5446 9.17423C14.5697 9.06508 14.6302 8.96732 14.7168 8.89627C14.8033 8.82522 14.911 8.78489 15.023 8.78161H15.5234C15.6557 8.77307 15.7794 8.71353 15.8687 8.61554C15.9579 8.51755 16.0056 8.38875 16.0017 8.25627L15.999 8.15121ZM6.15029 11.9143C5.70329 11.6869 5.2984 11.3849 4.95308 11.0212C4.53788 10.6065 4.20842 10.1142 3.9835 9.57219C3.75859 9.03021 3.64263 8.44924 3.64225 7.86244C3.64147 6.67735 4.1115 5.54049 4.94893 4.70196C5.78637 3.86342 6.92261 3.3919 8.1077 3.39112C9.29278 3.39035 10.4296 3.86038 11.2682 4.69781C11.5976 5.00276 11.8775 5.35725 12.0977 5.74848C12.2956 6.09519 12.4454 6.46727 12.5428 6.85445C12.5965 7.07091 12.6353 7.29077 12.6589 7.51251C12.7214 8.1561 12.6434 8.80558 12.4304 9.4161C12.2174 10.0266 11.8745 10.5836 11.4252 11.0487C10.9759 11.5137 10.4311 11.8757 9.82825 12.1096C9.22544 12.3436 8.57903 12.4439 7.93367 12.4037C7.31102 12.3702 6.70283 12.2033 6.15029 11.9143Z" fill="#FFC664" stroke="#01090F" stroke-width="0.2" stroke-linecap="round" stroke-linejoin="round"/>
<mask id="mask0_4116_72889" style="mask-type:alpha" maskUnits="userSpaceOnUse" x="-1" y="-1" width="18" height="18">
<path d="M15.999 8.1512L15.9741 7.32173C15.9714 7.20487 15.9284 7.09255 15.8523 7.00384C15.7761 6.91513 15.6717 6.85551 15.5566 6.8351C15.5225 6.83236 15.4883 6.83236 15.4543 6.8351L15.0423 6.84063C14.9246 6.84464 14.8093 6.80728 14.7164 6.73504C14.6234 6.66279 14.5587 6.56025 14.5336 6.44524C14.517 6.36506 14.4976 6.28764 14.4783 6.21022C14.4395 6.05815 14.3981 5.90885 14.3483 5.76507C14.169 5.21153 13.9151 4.68502 13.5935 4.20012L13.5741 4.16971C13.5142 4.07602 13.4866 3.96527 13.4956 3.85441C13.5046 3.74356 13.5496 3.6387 13.6239 3.55589L13.8838 3.2794C13.9301 3.2315 13.9665 3.17488 13.9908 3.11282C14.015 3.05076 14.0267 2.9845 14.0252 2.91787C14.0237 2.85125 14.0089 2.7856 13.9818 2.72473C13.9547 2.66386 13.9157 2.60898 13.8672 2.56328L13.6322 2.33932L13.1981 1.92182C13.1504 1.87557 13.094 1.83927 13.0322 1.81503C12.9704 1.7908 12.9043 1.77911 12.8379 1.78065C12.7716 1.7822 12.7061 1.79694 12.6455 1.82403C12.5848 1.85111 12.5302 1.88999 12.4847 1.93841L12.2387 2.19278C12.1588 2.27549 12.0533 2.32872 11.9393 2.34378C11.8253 2.35884 11.7096 2.33486 11.611 2.27573C10.874 1.80657 10.0504 1.48975 9.18895 1.34395C9.07437 1.32405 8.97029 1.26487 8.89461 1.17657C8.81892 1.08827 8.77635 0.976365 8.77421 0.860087V0.492352C8.77242 0.425897 8.75755 0.360448 8.73045 0.299742C8.70336 0.239037 8.66456 0.184266 8.61629 0.138561C8.56802 0.0928548 8.51121 0.0571097 8.44912 0.0333681C8.38702 0.00962646 8.32086 -0.00164652 8.2544 0.000193956L7.33092 0.0250784C7.2641 0.0268694 7.19829 0.0418098 7.13725 0.0690456C7.07621 0.0962814 7.02113 0.135279 6.97517 0.183809C6.92921 0.232339 6.89326 0.289451 6.86938 0.351881C6.8455 0.414311 6.83416 0.480834 6.836 0.54765L6.85812 1.37713C6.74475 1.40201 6.63416 1.42413 6.52079 1.45455C5.73934 1.64905 5.00064 1.98653 4.34203 2.44992C4.24673 2.51624 4.13152 2.54776 4.01573 2.5392C3.89994 2.53065 3.79061 2.48253 3.7061 2.40292L3.4296 2.12643C3.33206 2.03369 3.20189 1.98313 3.06732 1.98572C2.93275 1.98831 2.80463 2.04383 2.71072 2.14025L2.04714 2.81213C1.95474 2.90874 1.90433 3.03799 1.90692 3.17165C1.90951 3.30532 1.96489 3.43252 2.06096 3.52548L2.39828 3.83239C2.4801 3.91038 2.53311 4.01377 2.54868 4.12573C2.56424 4.23769 2.54144 4.35161 2.484 4.44896C2.05433 5.16808 1.76708 5.96317 1.63793 6.79086C1.61827 6.90628 1.55941 7.01139 1.47126 7.08846C1.38311 7.16553 1.27108 7.20983 1.15407 7.21389L0.487719 7.23048C0.421388 7.23227 0.356065 7.24716 0.29551 7.27429C0.234955 7.30142 0.180363 7.34026 0.134878 7.38857C0.0893925 7.43688 0.0539111 7.49371 0.0304759 7.55579C0.00704067 7.61787 -0.00388509 7.68397 -0.00167352 7.75029L0.0232109 8.67654C0.0250017 8.743 0.0398698 8.80845 0.0669666 8.86915C0.0940634 8.92986 0.132858 8.98463 0.181131 9.03033C0.229405 9.07604 0.286212 9.11178 0.348306 9.13552C0.4104 9.15927 0.476565 9.17054 0.543018 9.1687L1.69599 9.13828C1.71535 9.22953 1.73747 9.32077 1.75959 9.41478C1.94895 10.1702 2.27201 10.8856 2.71349 11.5272C2.77938 11.6225 2.81016 11.7377 2.80058 11.8532C2.791 11.9686 2.74165 12.0772 2.66095 12.1604L2.10797 12.7299C2.06206 12.7778 2.02605 12.8342 2.00203 12.896C1.978 12.9578 1.96643 13.0238 1.96797 13.0901C1.96951 13.1563 1.98414 13.2217 2.01101 13.2823C2.03788 13.3429 2.07647 13.3976 2.12456 13.4433L2.32363 13.6368L2.7909 14.0875C2.88629 14.1827 3.01556 14.2362 3.15035 14.2362C3.28513 14.2362 3.4144 14.1827 3.50979 14.0875L4.06277 13.5013C4.14094 13.4189 4.24485 13.3654 4.35741 13.3499C4.46997 13.3343 4.58449 13.3575 4.68212 13.4156C5.17794 13.7172 5.71163 13.9515 6.26919 14.1124C6.43997 14.1651 6.61349 14.2085 6.78899 14.2423C6.89939 14.2659 6.99867 14.3258 7.07088 14.4126C7.14309 14.4993 7.18404 14.6078 7.18714 14.7207L7.2065 15.4755V15.5142C7.20927 15.5822 7.22571 15.6489 7.25483 15.7103C7.28396 15.7718 7.32518 15.8267 7.37602 15.8719C7.42687 15.9171 7.48629 15.9515 7.55075 15.9732C7.61521 15.9949 7.68338 16.0033 7.75119 15.9981L8.68297 15.9787C8.7493 15.9769 8.81462 15.962 8.87518 15.9349C8.93573 15.9078 8.99032 15.8689 9.03581 15.8206C9.0813 15.7723 9.11678 15.7155 9.14021 15.6534C9.16365 15.5913 9.17457 15.5252 9.17236 15.4589L9.15577 14.7345C9.15222 14.6146 9.18977 14.4972 9.2622 14.4016C9.33463 14.3061 9.43757 14.2381 9.55392 14.2092L9.71982 14.1677C10.4226 13.992 11.0909 13.6995 11.6967 13.3023C11.7921 13.2408 11.9055 13.2133 12.0184 13.2244C12.1313 13.2354 12.2372 13.2843 12.3189 13.3631L12.8718 13.8967C12.969 13.9901 13.0993 14.0412 13.2341 14.0386C13.3689 14.036 13.4972 13.98 13.5907 13.8829L14.2322 13.2138C14.3266 13.1185 14.3795 12.9898 14.3795 12.8557C14.3795 12.7216 14.3266 12.5929 14.2322 12.4977L13.7151 12C13.6306 11.9199 13.5768 11.8126 13.5631 11.6969C13.5495 11.5812 13.5769 11.4644 13.6405 11.3668C14.0714 10.6963 14.3777 9.95356 14.5446 9.17423C14.5697 9.06508 14.6302 8.96732 14.7168 8.89627C14.8033 8.82522 14.911 8.78489 15.023 8.78161H15.5234C15.6557 8.77307 15.7794 8.71353 15.8687 8.61554C15.9579 8.51754 16.0056 8.38874 16.0017 8.25627L15.999 8.1512ZM6.15029 11.9143C5.70329 11.6869 5.2984 11.3849 4.95308 11.0212C4.53788 10.6065 4.20842 10.1142 3.9835 9.57219C3.75859 9.03021 3.64263 8.44923 3.64225 7.86244C3.64147 6.67735 4.1115 5.54049 4.94893 4.70196C5.78637 3.86342 6.92261 3.3919 8.1077 3.39112C9.29278 3.39035 10.4296 3.86037 11.2682 4.69781C11.5976 5.00276 11.8775 5.35725 12.0977 5.74848C12.2956 6.09519 12.4454 6.46727 12.5428 6.85445C12.5965 7.0709 12.6353 7.29077 12.6589 7.51251C12.7214 8.15609 12.6434 8.80558 12.4304 9.4161C12.2174 10.0266 11.8745 10.5836 11.4252 11.0487C10.9759 11.5137 10.4311 11.8757 9.82825 12.1096C9.22544 12.3436 8.57903 12.4439 7.93367 12.4037C7.31102 12.3702 6.70283 12.2033 6.15029 11.9143Z" fill="#97DDE5" stroke="#01090F" stroke-width="0.2" stroke-linecap="round" stroke-linejoin="round"/>
</mask>
<g mask="url(#mask0_4116_72889)">
<path d="M38.5169 27.9471C38.5169 40.5342 29.0952 50.7243 17.4894 50.7243C5.88352 50.7243 -3.53818 40.5342 -3.53818 27.9471C-3.53818 15.3599 5.88352 5.16982 17.4894 5.16982C29.0952 5.16982 38.5169 15.3599 38.5169 27.9471Z" fill="#BD80FF" stroke="#01090F" stroke-width="0.2"/>
</g>
<path d="M15.999 8.15121L15.9741 7.32173C15.9714 7.20487 15.9284 7.09255 15.8523 7.00384C15.7761 6.91513 15.6717 6.85551 15.5566 6.8351C15.5225 6.83236 15.4883 6.83236 15.4543 6.8351L15.0423 6.84063C14.9246 6.84464 14.8093 6.80728 14.7164 6.73504C14.6234 6.6628 14.5587 6.56025 14.5336 6.44525C14.517 6.36506 14.4976 6.28764 14.4783 6.21023C14.4395 6.05815 14.3981 5.90885 14.3483 5.76507C14.169 5.21153 13.9151 4.68502 13.5935 4.20012L13.5741 4.16971C13.5142 4.07602 13.4866 3.96527 13.4956 3.85441C13.5046 3.74356 13.5496 3.6387 13.6239 3.55589L13.8838 3.2794C13.9301 3.2315 13.9665 3.17488 13.9908 3.11282C14.015 3.05076 14.0267 2.9845 14.0252 2.91787C14.0237 2.85125 14.0089 2.7856 13.9818 2.72473C13.9547 2.66386 13.9157 2.60898 13.8672 2.56328L13.6322 2.33932L13.1981 1.92182C13.1504 1.87557 13.094 1.83927 13.0322 1.81503C12.9704 1.7908 12.9043 1.77911 12.8379 1.78065C12.7715 1.7822 12.7061 1.79694 12.6455 1.82403C12.5848 1.85111 12.5302 1.88999 12.4847 1.93841L12.2387 2.19278C12.1588 2.27549 12.0533 2.32872 11.9393 2.34378C11.8253 2.35884 11.7096 2.33486 11.611 2.27573C10.874 1.80658 10.0504 1.48975 9.18895 1.34395C9.07437 1.32405 8.97029 1.26487 8.89461 1.17657C8.81892 1.08827 8.77635 0.976365 8.77421 0.860087V0.492352C8.77242 0.425897 8.75755 0.360448 8.73045 0.299742C8.70336 0.239037 8.66456 0.184267 8.61629 0.138561C8.56802 0.0928548 8.51121 0.0571097 8.44912 0.0333681C8.38702 0.00962646 8.32086 -0.00164652 8.2544 0.000193956L7.33092 0.0250784C7.2641 0.0268694 7.19829 0.0418098 7.13725 0.0690456C7.07621 0.0962814 7.02113 0.135279 6.97517 0.183809C6.92921 0.232339 6.89326 0.289452 6.86938 0.351881C6.8455 0.414311 6.83416 0.480834 6.836 0.54765L6.85812 1.37713C6.74475 1.40201 6.63416 1.42413 6.52079 1.45455C5.73934 1.64905 5.00064 1.98653 4.34203 2.44992C4.24673 2.51624 4.13152 2.54776 4.01573 2.5392C3.89994 2.53065 3.79061 2.48253 3.7061 2.40292L3.4296 2.12643C3.33206 2.03369 3.20189 1.98313 3.06732 1.98572C2.93275 1.98831 2.80463 2.04383 2.71072 2.14025L2.04714 2.81213C1.95474 2.90874 1.90433 3.03799 1.90692 3.17166C1.90951 3.30532 1.96489 3.43252 2.06096 3.52548L2.39828 3.83239C2.4801 3.91038 2.53311 4.01377 2.54868 4.12573C2.56424 4.23769 2.54144 4.35162 2.484 4.44897C2.05433 5.16808 1.76708 5.96317 1.63793 6.79086C1.61827 6.90629 1.55941 7.0114 1.47126 7.08846C1.38311 7.16553 1.27108 7.20983 1.15407 7.2139L0.487719 7.23049C0.421388 7.23227 0.356065 7.24716 0.29551 7.27429C0.234955 7.30142 0.180363 7.34026 0.134878 7.38857C0.0893925 7.43688 0.0539111 7.49371 0.0304759 7.55579C0.00704067 7.61787 -0.00388509 7.68397 -0.00167352 7.75029L0.0232109 8.67654C0.0250017 8.743 0.0398699 8.80845 0.0669666 8.86915C0.0940634 8.92986 0.132858 8.98463 0.181131 9.03033C0.229405 9.07604 0.286212 9.11179 0.348306 9.13553C0.4104 9.15927 0.476565 9.17054 0.543018 9.1687L1.69599 9.13829C1.71535 9.22953 1.73747 9.32077 1.75959 9.41478C1.94895 10.1702 2.27201 10.8856 2.71349 11.5272C2.77938 11.6225 2.81016 11.7377 2.80058 11.8532C2.791 11.9686 2.74165 12.0772 2.66095 12.1604L2.10797 12.7299C2.06206 12.7778 2.02605 12.8342 2.00203 12.896C1.978 12.9578 1.96643 13.0238 1.96797 13.0901C1.96951 13.1563 1.98414 13.2217 2.01101 13.2823C2.03788 13.3429 2.07647 13.3976 2.12456 13.4433L2.32363 13.6368L2.7909 14.0875C2.88629 14.1827 3.01556 14.2362 3.15035 14.2362C3.28513 14.2362 3.4144 14.1827 3.50979 14.0875L4.06277 13.5013C4.14094 13.4189 4.24485 13.3654 4.35741 13.3499C4.46997 13.3343 4.58449 13.3575 4.68212 13.4156V13.4156C5.17794 13.7172 5.71163 13.9515 6.26919 14.1124C6.43997 14.1651 6.61349 14.2085 6.78899 14.2423C6.89939 14.2659 6.99867 14.3258 7.07088 14.4126C7.14309 14.4993 7.18404 14.6078 7.18714 14.7207L7.2065 15.4755V15.5142C7.20927 15.5822 7.22571 15.6489 7.25483 15.7103C7.28396 15.7718 7.32518 15.8267 7.37602 15.8719C7.42687 15.9171 7.48629 15.9515 7.55075 15.9732C7.61521 15.9949 7.68338 16.0033 7.75119 15.9981L8.68297 15.9787C8.7493 15.9769 8.81462 15.962 8.87518 15.9349C8.93573 15.9078 8.99032 15.8689 9.03581 15.8206C9.08129 15.7723 9.11678 15.7155 9.14021 15.6534C9.16365 15.5913 9.17457 15.5252 9.17236 15.4589L9.15577 14.7345C9.15222 14.6146 9.18977 14.4972 9.2622 14.4016C9.33463 14.3061 9.43757 14.2381 9.55392 14.2092L9.71982 14.1677C10.4226 13.992 11.0909 13.6995 11.6967 13.3023C11.7921 13.2408 11.9055 13.2133 12.0184 13.2244C12.1313 13.2354 12.2372 13.2843 12.3189 13.3631L12.8718 13.8967C12.969 13.9901 13.0993 14.0412 13.2341 14.0386C13.3689 14.036 13.4972 13.98 13.5907 13.8829L14.2322 13.2138C14.3266 13.1185 14.3795 12.9898 14.3795 12.8557C14.3795 12.7216 14.3266 12.5929 14.2322 12.4977L13.7151 12C13.6306 11.9199 13.5768 11.8126 13.5631 11.6969C13.5495 11.5812 13.5769 11.4644 13.6405 11.3668C14.0714 10.6963 14.3777 9.95357 14.5446 9.17423C14.5697 9.06508 14.6302 8.96732 14.7168 8.89627C14.8033 8.82522 14.911 8.78489 15.023 8.78161H15.5234C15.6557 8.77307 15.7794 8.71353 15.8687 8.61554C15.9579 8.51755 16.0056 8.38875 16.0017 8.25627L15.999 8.15121ZM6.15029 11.9143C5.70329 11.6869 5.2984 11.3849 4.95308 11.0212C4.53788 10.6065 4.20842 10.1142 3.9835 9.57219C3.75859 9.03021 3.64263 8.44924 3.64225 7.86244C3.64147 6.67735 4.1115 5.54049 4.94893 4.70196C5.78637 3.86342 6.92261 3.3919 8.1077 3.39112C9.29278 3.39035 10.4296 3.86038 11.2682 4.69781C11.5976 5.00276 11.8775 5.35725 12.0977 5.74848C12.2956 6.09519 12.4454 6.46727 12.5428 6.85445C12.5965 7.07091 12.6353 7.29077 12.6589 7.51251V7.51251C12.7214 8.1561 12.6434 8.80558 12.4304 9.4161C12.2174 10.0266 11.8745 10.5836 11.4252 11.0487C10.9759 11.5137 10.4311 11.8757 9.82825 12.1096C9.22544 12.3436 8.57903 12.4439 7.93367 12.4037C7.31102 12.3702 6.70283 12.2033 6.15029 11.9143V11.9143Z" stroke="#01090F" stroke-width="0.2" stroke-linecap="round" stroke-linejoin="round"/>
</g>
<defs>
<clipPath id="clip0_4116_72889">
<rect width="16" height="16" fill="white"/>
</clipPath>
</defs>
</svg>
