<svg width="16" height="16" viewBox="0 0 16 16" fill="none" xmlns="http://www.w3.org/2000/svg">
<mask id="path-1-inside-1_4116_73770" fill="white">
<path d="M4.80769 3.60054C4.69767 3.07797 4.8902 2.6104 5.22025 2.52788L8.74076 1.78528C9.07081 1.70277 9.45586 2.06032 9.56588 2.5829"/>
</mask>
<path d="M4.80769 3.60054C4.69767 3.07797 4.8902 2.6104 5.22025 2.52788L8.74076 1.78528C9.07081 1.70277 9.45586 2.06032 9.56588 2.5829" fill="#FFC664"/>
<path d="M4.61198 3.64174C4.63473 3.74983 4.7408 3.81901 4.84889 3.79625C4.95698 3.7735 5.02615 3.66743 5.0034 3.55934L4.61198 3.64174ZM5.22025 2.52788L5.17894 2.33206L5.17174 2.33386L5.22025 2.52788ZM8.74076 1.78528L8.78207 1.98111L8.78927 1.97931L8.74076 1.78528ZM9.37017 2.6241C9.39292 2.73219 9.49899 2.80136 9.60708 2.77861C9.71517 2.75585 9.78434 2.64978 9.76159 2.54169L9.37017 2.6241ZM5.0034 3.55934C4.95536 3.33114 4.97555 3.12389 5.0351 2.97232C5.09547 2.81865 5.1858 2.74265 5.26876 2.72191L5.17174 2.33386C4.92465 2.39563 4.7537 2.59468 4.6628 2.82606C4.57107 3.05954 4.55001 3.34737 4.61198 3.64174L5.0034 3.55934ZM5.26153 2.72358L8.78204 1.98097L8.69948 1.58958L5.17897 2.33219L5.26153 2.72358ZM8.78927 1.97931C8.86474 1.96044 8.97609 1.98573 9.09774 2.10185C9.21673 2.21544 9.32256 2.39796 9.37017 2.6241L9.76159 2.54169C9.69918 2.24526 9.55748 1.98772 9.37393 1.81251C9.19303 1.63984 8.94683 1.52761 8.69225 1.59125L8.78927 1.97931Z" fill="#01090F" mask="url(#path-1-inside-1_4116_73770)"/>
<mask id="path-3-inside-2_4116_73770" fill="white">
<path d="M15.0759 5.68481L15.9561 9.81041C16.1761 10.8006 15.5435 11.7632 14.5534 11.9557L3.93682 14.1835C2.94667 14.4036 1.98403 13.771 1.7915 12.7808L0.911377 8.65525"/>
</mask>
<path d="M15.0759 5.68481L15.9561 9.81041C16.1761 10.8006 15.5435 11.7632 14.5534 11.9557L3.93682 14.1835C2.94667 14.4036 1.98403 13.771 1.7915 12.7808L0.911377 8.65525" fill="#BD80FF"/>
<path d="M15.2715 5.64309C15.2485 5.53506 15.1422 5.46617 15.0342 5.48922C14.9262 5.51226 14.8573 5.61852 14.8803 5.72654L15.2715 5.64309ZM15.9561 9.81041L15.7605 9.85214L15.7608 9.8538L15.9561 9.81041ZM14.5534 11.9557L14.5152 11.7594L14.5123 11.76L14.5534 11.9557ZM3.93682 14.1835L3.89574 13.9878L3.89343 13.9883L3.93682 14.1835ZM1.7915 12.7808L1.98786 12.7427L1.9871 12.7391L1.7915 12.7808ZM1.10698 8.61352C1.08393 8.50549 0.977675 8.4366 0.869649 8.45965C0.761623 8.48269 0.692733 8.58895 0.715778 8.69697L1.10698 8.61352ZM14.8803 5.72654L15.7605 9.85214L16.1517 9.76868L15.2715 5.64309L14.8803 5.72654ZM15.7608 9.8538C15.9565 10.7342 15.3948 11.5884 14.5152 11.7594L14.5915 12.152C15.6922 11.938 16.3957 10.8669 16.1513 9.76703L15.7608 9.8538ZM14.5123 11.76L3.89574 13.9878L3.97789 14.3793L14.5944 12.1515L14.5123 11.76ZM3.89343 13.9883C3.01305 14.1839 2.15886 13.6222 1.98783 12.7427L1.59518 12.819C1.80921 13.9197 2.88029 14.6232 3.9802 14.3788L3.89343 13.9883ZM1.9871 12.7391L1.10698 8.61352L0.715778 8.69697L1.59591 12.8226L1.9871 12.7391Z" fill="#01090F" mask="url(#path-3-inside-2_4116_73770)"/>
<path d="M15.2426 6.5541L9.10378 11.9177L1.06441 9.2587L0.499217 6.43271L4.23555 5.36891L14.6394 3.37875L15.2426 6.5541Z" fill="#A041FF" stroke="#01090F" stroke-width="0.2"/>
<path d="M13.2269 2.01458L13.2278 2.01437C13.9159 1.86147 14.6306 2.3213 14.7579 3.03449L14.7579 3.0345L14.7586 3.03786L15.3201 5.65824L8.48133 9.15904L0.691051 8.75189L0.129519 6.13141C-0.0235942 5.41688 0.435137 4.72625 1.15275 4.57242C1.15278 4.57241 1.15282 4.57241 1.15285 4.5724L13.2269 2.01458Z" fill="#BD80FF" stroke="#01090F" stroke-width="0.2" stroke-miterlimit="10" stroke-linecap="round" stroke-linejoin="round"/>
<path d="M7.81267 10.3063L7.39412 8.32208L9.02849 7.97734L9.44703 9.96157L7.81267 10.3063Z" fill="#FFC664" stroke="#01090F" stroke-width="0.2" stroke-miterlimit="10" stroke-linecap="round" stroke-linejoin="round"/>
</svg>
