<svg width="16" height="16" viewBox="0 0 16 16" fill="none" xmlns="http://www.w3.org/2000/svg">
<g clip-path="url(#clip0_4116_73285)">
<path d="M12.1438 11.0954H3.85434C1.74237 11.0954 0 9.37943 0 7.24106C0 5.12909 1.71597 3.38672 3.85434 3.38672H12.1438C14.2558 3.38672 15.9982 5.10269 15.9982 7.24106C15.9982 9.37943 14.2822 11.0954 12.1438 11.0954Z" fill="#A041FF" stroke="#01090F" stroke-width="0.2" stroke-miterlimit="10" stroke-linecap="round" stroke-linejoin="round"/>
<path d="M11.4061 10.5518H3.98549C2.0949 10.5518 0.535156 9.07371 0.535156 7.23173C0.535156 5.41249 2.07126 3.91162 3.98549 3.91162H11.4061C13.2967 3.91162 14.8564 5.38975 14.8564 7.23173C14.8564 9.07371 13.3203 10.5518 11.4061 10.5518Z" fill="#BD80FF" stroke="#01090F" stroke-width="0.2" stroke-miterlimit="10" stroke-linecap="round" stroke-linejoin="round"/>
<path d="M4.40968 8.91318H4.50968V8.81318V7.7252H4.96407C5.30669 7.7252 5.56483 7.60983 5.78966 7.4412L5.79535 7.43694L5.80037 7.43191C6.00371 7.22858 6.12006 6.96563 6.12006 6.64841C6.12006 6.3312 6.00371 6.06825 5.80037 5.86492C5.5916 5.65614 5.32536 5.57163 4.99047 5.57163H3.80249H3.70249V5.67163V8.81318V8.91318H3.80249H4.40968ZM4.88487 6.99721H4.50968V6.27322H4.88487C5.01898 6.27322 5.12142 6.31685 5.179 6.3713C5.24872 6.46561 5.28647 6.54886 5.28647 6.64841C5.28647 6.74845 5.24832 6.82779 5.18857 6.8896C5.09668 6.95758 5.01252 6.99721 4.88487 6.99721Z" fill="#FFC664" stroke="#01090F" stroke-width="0.2"/>
<path d="M8.51321 8.84791L8.53738 8.91318H8.60699H9.29337H9.4381L9.38691 8.77781L8.19893 5.63626L8.17449 5.57163H8.10539H7.3926H7.32405L7.29933 5.63558L6.08495 8.77712L6.03236 8.91318H6.17822H6.81181H6.88141L6.90559 8.84791L7.14541 8.20039H8.27339L8.51321 8.84791ZM8.01352 7.4196H7.42869L7.71224 6.62212L8.01352 7.4196Z" fill="#FFC664" stroke="#01090F" stroke-width="0.2"/>
<path d="M10.7981 6.71166L10.1721 5.62182L10.1432 5.57163H10.0853H9.37256H9.19462L9.28714 5.72363L10.3813 7.52124V8.81318V8.91318H10.4813H11.0885H11.1885V8.81318V7.52124L12.2827 5.72363L12.3753 5.57163H12.1973H11.5109H11.453L11.4242 5.62182L10.7981 6.71166Z" fill="#FFC664" stroke="#01090F" stroke-width="0.2"/>
<path d="M9.79614 7.40332L10.8785 14.6104L12.3569 11.5745L16 11.6009L9.79614 7.40332Z" fill="#FFC664" stroke="#01090F" stroke-width="0.2" stroke-miterlimit="10" stroke-linecap="round" stroke-linejoin="round"/>
</g>
<defs>
<clipPath id="clip0_4116_73285">
<rect width="16" height="16" fill="white"/>
</clipPath>
</defs>
</svg>
