<svg width="16" height="16" viewBox="0 0 16 16" fill="none" xmlns="http://www.w3.org/2000/svg">
<g clip-path="url(#clip0_4116_73798)">
<path d="M2.66564 6.79442C3.21365 6.79442 3.72512 6.97709 4.05393 7.25109C4.36447 6.94055 4.83941 6.73962 5.36915 6.73962C5.91716 6.73962 6.41037 6.95882 6.73918 7.28763C6.97665 6.95882 7.46986 6.73962 8.01787 6.73962C8.62068 6.73962 9.15042 7.01362 9.35136 7.39723C9.5523 7.01362 10.0455 6.73962 10.6301 6.73962C11.1415 6.73962 11.5799 6.94055 11.8174 7.25109C12.0914 6.94055 12.6212 6.73962 13.224 6.73962C13.845 6.73962 14.3748 6.95882 14.6488 7.28763C14.7036 6.99535 14.7219 6.70308 14.7219 6.39254C14.7219 3.10448 11.7078 0.4375 7.9996 0.4375C4.2914 0.4375 1.27734 3.12275 1.27734 6.41081C1.27734 6.68481 1.29561 6.94055 1.33215 7.21456C1.67922 6.95882 2.13589 6.79442 2.66564 6.79442Z" fill="#BD80FF"/>
<path d="M8.85924 0.59375C8.85924 0.59375 14.1881 2.2268 13.567 6.68395H12.6719L11.8047 7.02344C11.8047 7.02344 12.7326 2.73591 8.44824 0.63734L8.85924 0.59375Z" fill="#A041FF"/>
<path d="M7.15346 0.59375C7.15346 0.59375 1.82462 2.2268 2.4457 6.68395L3.25 6.77344L4.04531 7.12608C4.04531 7.12608 3.64518 2.81741 7.56445 0.63734L7.15346 0.59375Z" fill="#A041FF"/>
<path d="M6.69188 7.21923C6.60677 6.68992 6.48763 5.24397 6.69188 3.69464C6.89425 2.15958 7.48419 1.02758 7.76153 0.641434L8.26122 0.630859C8.89017 1.3034 9.11435 2.75433 9.3323 3.6635C9.50666 4.39084 9.42571 6.39102 9.36344 7.30019C8.93376 6.82692 8.49163 6.78333 7.96232 6.73974C7.53887 6.70487 6.93892 7.04487 6.69188 7.21923Z" fill="#A041FF"/>
<path d="M5.36915 6.63962C4.84997 6.63962 4.37747 6.82397 4.04794 7.11914C3.69946 6.85966 3.19699 6.69442 2.66564 6.69442C2.18224 6.69442 1.75531 6.82617 1.41169 7.03994C1.38877 6.82925 1.37734 6.62574 1.37734 6.41081C1.37734 3.18868 4.33528 0.5375 7.9996 0.5375C11.6643 0.5375 14.6219 3.17079 14.6219 6.39254C14.6219 6.63052 14.611 6.85586 14.5812 7.07772C14.2639 6.80511 13.7727 6.63962 13.224 6.63962C12.6554 6.63962 12.1359 6.81274 11.8227 7.10287C11.5524 6.81424 11.118 6.63962 10.6301 6.63962C10.088 6.63962 9.60781 6.86466 9.35071 7.21109C9.08573 6.863 8.57334 6.63962 8.01787 6.63962C7.49561 6.63962 7.00833 6.83051 6.72922 7.14108C6.38439 6.83616 5.90053 6.63962 5.36915 6.63962Z" stroke="#01090F" stroke-width="0.2" stroke-miterlimit="10" stroke-linecap="round" stroke-linejoin="round"/>
<path d="M12.5142 3.01052L12.5997 2.95867L12.5142 3.01052ZM8.57867 0.647645C9.04876 0.768233 9.80934 1.03528 10.5551 1.44278C11.3026 1.85122 12.0236 2.39447 12.4287 3.06238L12.5997 2.95867C12.1678 2.24663 11.4109 1.68248 10.651 1.26727C9.8894 0.851118 9.11311 0.578266 8.62836 0.453917L8.57867 0.647645ZM12.4287 3.06238C12.9516 3.92464 13.2422 4.48396 13.3853 5.00555C13.5275 5.52385 13.5259 6.01194 13.4485 6.73622L13.6473 6.75746C13.7256 6.02457 13.7302 5.50697 13.5782 4.95264C13.427 4.40159 13.1229 3.82134 12.5997 2.95867L12.4287 3.06238Z" fill="#01090F"/>
<path d="M3.4985 3.01052L3.413 2.95867L3.4985 3.01052ZM7.43403 0.647645C6.96394 0.768233 6.20336 1.03528 5.45758 1.44278C4.71008 1.85122 3.98909 2.39447 3.584 3.06238L3.413 2.95867C3.84485 2.24663 4.60178 1.68248 5.36168 1.26727C6.12329 0.851118 6.89958 0.578266 7.38433 0.453917L7.43403 0.647645ZM3.584 3.06238C3.06105 3.92464 2.77046 4.48396 2.62739 5.00555C2.48521 5.52385 2.48684 6.01194 2.56422 6.73622L2.36535 6.75746C2.28705 6.02457 2.28245 5.50697 2.43451 4.95264C2.58567 4.40159 2.88979 3.82134 3.413 2.95867L3.584 3.06238Z" fill="#01090F"/>
<mask id="path-8-inside-1_4116_73798" fill="white">
<path d="M7.83593 13.2244L4.05466 7.25109C3.81719 1.57005 8.00033 0.4375 8.00033 0.4375C8.00033 0.4375 6.10057 1.88059 6.73991 7.28763L8.0186 13.2244L9.35209 7.39723C9.82704 1.57005 8.00033 0.455767 8.00033 0.455767C8.00033 0.455767 12.5123 1.88059 11.8181 7.26936L8.21954 13.2244"/>
</mask>
<path d="M7.66694 13.3314C7.72602 13.4247 7.84958 13.4525 7.94291 13.3934C8.03623 13.3343 8.064 13.2108 8.00492 13.1174L7.66694 13.3314ZM4.05466 7.25109L3.85484 7.25944C3.8563 7.29445 3.86694 7.32846 3.88568 7.35807L4.05466 7.25109ZM8.00033 0.4375L8.12131 0.596762C8.19752 0.538876 8.22204 0.435121 8.17981 0.349246C8.13758 0.263371 8.04044 0.219442 7.94807 0.24445L8.00033 0.4375ZM6.73991 7.28763L6.5413 7.31111C6.54203 7.31736 6.54307 7.32358 6.5444 7.32974L6.73991 7.28763ZM8.0186 13.2244L7.82309 13.2665C7.84282 13.3582 7.92357 13.4238 8.01732 13.4244C8.11107 13.425 8.19265 13.3604 8.21356 13.269L8.0186 13.2244ZM9.35209 7.39723L9.54705 7.44184C9.54919 7.4325 9.55065 7.42302 9.55143 7.41348L9.35209 7.39723ZM8.00033 0.455767L8.06056 0.26505C7.96413 0.234598 7.86014 0.280919 7.81828 0.372973C7.77641 0.465027 7.80985 0.573846 7.89618 0.626508L8.00033 0.455767ZM11.8181 7.26936L11.9893 7.3728C12.0037 7.34901 12.0129 7.32248 12.0165 7.29491L11.8181 7.26936ZM8.04836 13.121C7.99124 13.2155 8.02156 13.3384 8.1161 13.3956C8.21063 13.4527 8.33358 13.4224 8.39071 13.3278L8.04836 13.121ZM8.00492 13.1174L4.22365 7.14412L3.88568 7.35807L7.66694 13.3314L8.00492 13.1174ZM4.25449 7.24274C4.13812 4.45888 5.10274 2.81052 6.07825 1.85693C6.56868 1.37752 7.06615 1.06966 7.44013 0.881982C7.62701 0.788203 7.78258 0.724664 7.89033 0.684879C7.94419 0.664993 7.98603 0.651065 8.01378 0.642278C8.02766 0.637885 8.038 0.634779 8.04456 0.632858C8.04784 0.631897 8.05017 0.631233 8.05152 0.630853C8.0522 0.630663 8.05263 0.630543 8.05281 0.630493C8.0529 0.630468 8.05293 0.630461 8.05289 0.63047C8.05288 0.630475 8.0528 0.630495 8.05279 0.630497C8.05271 0.630521 8.0526 0.63055 8.00033 0.4375C7.94807 0.24445 7.94793 0.244487 7.94778 0.244529C7.94771 0.244549 7.94754 0.244595 7.94739 0.244634C7.9471 0.244713 7.94675 0.24481 7.94633 0.244925C7.9455 0.245155 7.94442 0.245457 7.94308 0.245832C7.94041 0.246584 7.93675 0.247631 7.93212 0.248987C7.92286 0.251698 7.90975 0.255645 7.89304 0.260935C7.85964 0.271511 7.81184 0.287463 7.75178 0.309642C7.63169 0.353985 7.46231 0.42331 7.26072 0.524474C6.85778 0.726683 6.32432 1.05702 5.79864 1.57089C4.74195 2.60383 3.73373 4.36227 3.85484 7.25944L4.25449 7.24274ZM8.00033 0.4375C7.87936 0.278238 7.8792 0.27836 7.87903 0.278487C7.87896 0.278537 7.87879 0.278671 7.87866 0.278771C7.8784 0.278971 7.87811 0.279195 7.87779 0.279441C7.87715 0.279933 7.8764 0.280517 7.87553 0.281195C7.87381 0.282549 7.87163 0.284277 7.86903 0.286386C7.86382 0.290604 7.85689 0.296351 7.84838 0.303703C7.83137 0.318409 7.80803 0.339533 7.77949 0.367699C7.72238 0.424044 7.64449 0.508483 7.55463 0.625955C7.37477 0.861091 7.14784 1.2274 6.94348 1.76371C6.53464 2.83662 6.21868 4.58272 6.5413 7.31111L6.93853 7.26414C6.6218 4.5855 6.93605 2.90654 7.31726 1.90614C7.50792 1.4058 7.71598 1.07339 7.87234 0.868981C7.95059 0.766678 8.01613 0.696133 8.06042 0.652438C8.08257 0.630584 8.09943 0.615424 8.10993 0.60635C8.11518 0.601813 8.11884 0.598796 8.12078 0.597224C8.12175 0.596437 8.12229 0.596012 8.12239 0.595938C8.12243 0.595901 8.12237 0.595952 8.12219 0.59609C8.1221 0.596159 8.12198 0.596249 8.12184 0.596361C8.12176 0.596417 8.12163 0.596518 8.1216 0.596546C8.12146 0.596651 8.12131 0.596762 8.00033 0.4375ZM6.5444 7.32974L7.82309 13.2665L8.21412 13.1823L6.93543 7.24551L6.5444 7.32974ZM8.21356 13.269L9.54705 7.44184L9.15713 7.35261L7.82364 13.1798L8.21356 13.269ZM9.55143 7.41348C9.79056 4.47954 9.45212 2.71151 9.04036 1.6679C8.8343 1.14565 8.61009 0.805434 8.43163 0.592469C8.3425 0.486098 8.26514 0.41191 8.20775 0.362919C8.17908 0.338437 8.15544 0.320291 8.13787 0.307596C8.12909 0.30125 8.12183 0.29627 8.11622 0.292545C8.11341 0.290682 8.11102 0.289133 8.10906 0.287885C8.10808 0.287261 8.10721 0.286711 8.10645 0.286236C8.10606 0.285998 8.10571 0.285778 8.10538 0.285577C8.10522 0.285476 8.105 0.285338 8.10491 0.285288C8.1047 0.285155 8.10449 0.285026 8.00033 0.455767C7.89618 0.626508 7.89599 0.626388 7.8958 0.626272C7.89574 0.626238 7.89556 0.626126 7.89545 0.62606C7.89524 0.625927 7.89505 0.62581 7.89489 0.62571C7.89457 0.625509 7.89435 0.625375 7.89425 0.625309C7.89404 0.625176 7.89426 0.625314 7.8949 0.625738C7.89617 0.626585 7.89911 0.628573 7.90359 0.631811C7.91255 0.638284 7.9277 0.649768 7.94804 0.667137C7.9887 0.701845 8.05034 0.760235 8.12504 0.849379C8.27425 1.02744 8.47703 1.32999 8.66827 1.81471C9.05113 2.78504 9.38857 4.48774 9.15275 7.38098L9.55143 7.41348ZM8.00033 0.455767C7.94011 0.646483 7.94002 0.646456 7.93995 0.646433C7.93995 0.646433 7.93989 0.646416 7.93989 0.646415C7.93989 0.646414 7.93995 0.646434 7.94008 0.646476C7.94034 0.64656 7.94087 0.646731 7.94167 0.64699C7.94326 0.647508 7.94591 0.648378 7.94957 0.64961C7.95691 0.652074 7.96832 0.655983 7.98352 0.661415C8.01392 0.67228 8.05942 0.689224 8.11769 0.712853C8.23426 0.76013 8.40162 0.834052 8.60104 0.939427C9.00034 1.15041 9.52545 1.48604 10.0289 1.98397C11.0298 2.97388 11.9582 4.61667 11.6198 7.24381L12.0165 7.29491C12.3722 4.53328 11.3917 2.76927 10.3102 1.69958C9.77242 1.16771 9.21292 0.810333 8.78792 0.585763C8.57519 0.473362 8.39548 0.39387 8.26802 0.342177C8.20426 0.316321 8.15351 0.297391 8.11815 0.284753C8.10047 0.278433 8.08663 0.273685 8.07694 0.270428C8.07209 0.268799 8.06827 0.267543 8.06553 0.266651C8.06416 0.266204 8.06306 0.265848 8.06223 0.265582C8.06181 0.265449 8.06147 0.265338 8.06119 0.26525C8.06105 0.265205 8.06089 0.265155 8.06082 0.265133C8.06068 0.265089 8.06056 0.26505 8.00033 0.455767ZM11.647 7.16592L8.04836 13.121L8.39071 13.3278L11.9893 7.3728L11.647 7.16592Z" fill="#01090F" mask="url(#path-8-inside-1_4116_73798)"/>
<path d="M4.27344 7.10156L4.05469 7.32812L3.49219 7.67188L7.63281 13.3203H8.49219L11.9062 7.26562L11.5781 7.16406L9.6875 7.41406C9.59115 7.41146 9.39062 7.40781 9.35938 7.41406C9.32812 7.42031 7.61719 7.35938 6.76562 7.32812L6.54688 7.10156H4.27344Z" fill="white"/>
<path d="M7.82441 13.2253L4.15625 7.25195M6.63281 7.1875C7.11965 9.66511 8.00781 13.6328 8.00781 13.6328L9.46094 7.36719M11.75 7.1875L8.19654 13.2253" stroke="#FFC664" stroke-width="0.5" stroke-miterlimit="10" stroke-linecap="round" stroke-linejoin="round"/>
<path d="M8.31012 0.539345H7.72558C7.61252 0.539345 7.51504 0.45244 7.51504 0.328806V0.310539C7.51504 0.197478 7.60194 0.1 7.72558 0.1H8.31012C8.42318 0.1 8.52066 0.186907 8.52066 0.310539V0.328806C8.52066 0.452439 8.42318 0.539345 8.31012 0.539345Z" fill="#FFC664" stroke="#01090F" stroke-width="0.2" stroke-miterlimit="10" stroke-linecap="round" stroke-linejoin="round"/>
<path d="M1.42969 7.17969L7.59859 13.2254" stroke="#FFC664" stroke-width="0.5" stroke-miterlimit="10" stroke-linecap="round" stroke-linejoin="round"/>
<path d="M14.5703 7.25195L8.4375 13.2251" stroke="#FFC664" stroke-width="0.5" stroke-miterlimit="10" stroke-linecap="round" stroke-linejoin="round"/>
<path d="M5.96387 13.3849V13.7181L7.88807 14.9635L8.15895 14.9386L10.0551 13.6807L10.0396 13.3569L9.85275 13.2168H6.16625L5.96387 13.3849Z" fill="#FFC664"/>
<path d="M7.85388 14.9604C7.23427 15.2001 5.99195 15.6809 5.97949 15.6859L6.00129 15.9007L6.19433 16.0003H9.78431L10.0241 15.9007L10.0552 15.6859L8.21817 14.9448L7.85388 14.9604Z" fill="#BD80FF"/>
<path d="M9.94668 13.4628V15.7462C9.94668 15.8188 9.88185 15.8837 9.80922 15.8837H6.21061C6.13797 15.8837 6.07314 15.8188 6.07314 15.7462V13.4628C6.07314 13.3902 6.13797 13.3253 6.21061 13.3253H9.80922C9.88185 13.3253 9.94668 13.3902 9.94668 13.4628Z" stroke="#01090F" stroke-width="0.2" stroke-miterlimit="10" stroke-linecap="round" stroke-linejoin="round"/>
<path d="M7.96428 14.9784L6.07593 15.7457V13.718L7.01144 14.3574L7.96428 14.9784Z" fill="#A041FF"/>
<path d="M8.05615 14.979L9.94611 15.7462V13.5359L9.0098 14.3579L8.05615 14.979Z" fill="#A041FF"/>
<mask id="path-20-inside-2_4116_73798" fill="white">
<path d="M5.97314 13.6821L7.83638 14.9243C7.94598 14.9973 8.07385 14.9973 8.18345 14.9243L10.0467 13.5725"/>
</mask>
<path d="M6.08408 13.5157C5.99218 13.4544 5.868 13.4793 5.80673 13.5712C5.74546 13.6631 5.7703 13.7873 5.8622 13.8485L6.08408 13.5157ZM7.83638 14.9243L7.94732 14.7579L7.83638 14.9243ZM8.18345 14.9243L8.29448 15.0908L8.3009 15.0862L8.18345 14.9243ZM10.1641 13.7344C10.2535 13.6695 10.2734 13.5445 10.2086 13.4551C10.1437 13.3657 10.0186 13.3458 9.92924 13.4106L10.1641 13.7344ZM5.8622 13.8485L7.72544 15.0907L7.94732 14.7579L6.08408 13.5157L5.8622 13.8485ZM7.72544 15.0907C7.90222 15.2085 8.11761 15.2085 8.29439 15.0907L8.07251 14.7579C8.03009 14.7861 7.98974 14.7861 7.94732 14.7579L7.72544 15.0907ZM8.3009 15.0862L10.1641 13.7344L9.92924 13.4106L8.066 14.7624L8.3009 15.0862Z" fill="#01090F" mask="url(#path-20-inside-2_4116_73798)"/>
<line x1="5.98357" y1="15.6986" x2="7.87664" y2="14.9576" stroke="#01090F" stroke-width="0.2"/>
<line y1="-0.1" x2="2.03294" y2="-0.1" transform="matrix(-0.931198 -0.364515 -0.364515 0.931198 10.0022 15.7917)" stroke="#01090F" stroke-width="0.2"/>
</g>
<defs>
<clipPath id="clip0_4116_73798">
<rect width="16" height="16" fill="white"/>
</clipPath>
</defs>
</svg>
