<svg width="16" height="16" viewBox="0 0 16 16" fill="none" xmlns="http://www.w3.org/2000/svg">
<g clip-path="url(#clip0_4116_73369)">
<path d="M1.4379 6.87379C1.96264 6.3333 2.52839 5.96568 3.0792 5.72485C4.17705 5.24482 4.82475 6.47905 4.18324 7.49107L3.75379 8.16857C3.52033 8.53687 2.90943 8.66314 2.47412 8.63765C1.56243 8.58427 0.801752 7.52903 1.4379 6.87379Z" fill="#FFC664" stroke="#01090F" stroke-width="0.2"/>
<path d="M9.16127 14.4744C9.68609 13.934 10.0369 13.3577 10.2615 12.8001C10.709 11.6886 9.45627 11.0775 8.46354 11.7484L7.79896 12.1976C7.43768 12.4418 7.32943 13.0561 7.3677 13.4905C7.44787 14.4002 8.52501 15.1296 9.16127 14.4744Z" fill="#FFC664" stroke="#01090F" stroke-width="0.2"/>
<path d="M5.21747 11.9292C4.89408 11.4996 4.41643 11.0859 4.02801 10.7936C3.8032 10.6244 3.72209 10.3168 3.85396 10.0683C3.99329 9.80575 4.32052 9.70266 4.56707 9.8687C5.34459 10.3923 5.85988 11.0615 6.13617 11.5411C6.25863 11.7537 6.16314 12.0134 5.94667 12.1288C5.69842 12.2612 5.38667 12.154 5.21747 11.9292Z" fill="#519AF4" stroke="#01090F" stroke-width="0.2"/>
<path d="M14.0664 0.159718C8.52652 0.92041 5.26154 4.6524 3.76528 7.54421C3.26074 8.51934 3.87922 9.63503 4.71571 10.3462C5.07805 10.6542 5.39528 10.9964 5.66509 11.3375C6.3242 12.1707 7.43865 12.6903 8.39234 12.2221C13.5439 9.69295 15.432 5.12602 15.8846 1.94317C16.0361 0.877306 15.1329 0.0132634 14.0664 0.159718Z" fill="#9BCDFB" stroke="#01090F" stroke-width="0.2"/>
<path fill-rule="evenodd" clip-rule="evenodd" d="M13.3146 2.71695C12.4265 1.82892 12.7848 0.339035 14.0285 0.164845C14.0952 0.155514 14.1621 0.146614 14.2294 0.138151C15.2081 0.0150302 16.033 0.806465 15.9066 1.78478C15.8968 1.86036 15.8862 1.93678 15.8748 2.01398C15.6917 3.25164 14.1992 3.60164 13.3146 2.71695Z" fill="#FFC664"/>
<path d="M15.9066 1.78478L15.8074 1.77196L15.9066 1.78478ZM14.2169 0.0389328C14.1492 0.0474545 14.0818 0.0564161 14.0147 0.0658111L14.0424 0.263878C14.1086 0.254613 14.1751 0.245774 14.2419 0.237369L14.2169 0.0389328ZM15.9737 2.02862C15.9852 1.95081 15.9959 1.87378 16.0058 1.79759L15.8074 1.77196C15.7977 1.84693 15.7872 1.92274 15.7759 1.99934L15.9737 2.02862ZM15.7759 1.99934C15.6906 2.57576 15.3031 2.94233 14.8326 3.06456C14.3601 3.18732 13.8024 3.06336 13.3853 2.64624L13.2438 2.78766C13.7114 3.25524 14.3422 3.39861 14.8829 3.25813C15.4256 3.11712 15.8759 2.68986 15.9737 2.02862L15.7759 1.99934ZM14.0147 0.0658111C13.3505 0.158831 12.9192 0.605875 12.7755 1.14757C12.6323 1.6872 12.7746 2.3184 13.2438 2.78766L13.3853 2.64624C12.9665 2.22747 12.8439 1.66971 12.9688 1.19885C13.0932 0.73004 13.4628 0.345049 14.0424 0.263878L14.0147 0.0658111ZM14.2419 0.237369C15.1589 0.122012 15.925 0.861671 15.8074 1.77196L16.0058 1.79759C16.141 0.751259 15.2574 -0.0919521 14.2169 0.0389328L14.2419 0.237369Z" fill="#01090F"/>
<circle cx="10.4599" cy="5.49895" r="1.60744" fill="#519AF4" stroke="#01090F" stroke-width="0.2"/>
<path d="M4.10493 11.7591C3.34177 10.996 2.42509 11.3797 1.89734 11.7909C1.73192 11.9197 1.62056 12.102 1.54316 12.2969C1.01753 13.6205 2.35965 14.9163 3.66399 14.3446L3.83742 14.2686C4.07471 14.1646 4.29445 14.0117 4.41267 13.7811C4.67276 13.2739 4.81535 12.4695 4.10493 11.7591Z" fill="#FFC664"/>
<path d="M1.89734 11.7909L1.9588 11.8698L1.89734 11.7909ZM4.10493 11.7591L4.17564 11.6884V11.6884L4.10493 11.7591ZM4.41267 13.7811L4.32369 13.7355V13.7355L4.41267 13.7811ZM3.83742 14.2686L3.79727 14.177H3.79727L3.83742 14.2686ZM3.66399 14.3446L3.70414 14.4362H3.70414L3.66399 14.3446ZM1.54316 12.2969L1.45023 12.26V12.26L1.54316 12.2969ZM1.9588 11.8698C2.21423 11.6708 2.55899 11.4826 2.92604 11.4338C3.28794 11.3856 3.6762 11.4718 4.03422 11.8298L4.17564 11.6884C3.7705 11.2833 3.31884 11.1798 2.89967 11.2355C2.48565 11.2906 2.10819 11.4998 1.83588 11.712L1.9588 11.8698ZM4.03422 11.8298C4.70335 12.499 4.57177 13.2517 4.32369 13.7355L4.50165 13.8267C4.77374 13.2961 4.92735 12.4401 4.17564 11.6884L4.03422 11.8298ZM3.79727 14.177L3.62384 14.253L3.70414 14.4362L3.87756 14.3602L3.79727 14.177ZM4.32369 13.7355C4.2204 13.9369 4.02452 14.0774 3.79727 14.177L3.87756 14.3602C4.1249 14.2517 4.36851 14.0864 4.50165 13.8267L4.32369 13.7355ZM1.6361 12.3338C1.70964 12.1486 1.81226 11.9839 1.9588 11.8698L1.83588 11.712C1.65158 11.8556 1.53148 12.0554 1.45023 12.26L1.6361 12.3338ZM1.45023 12.26C0.891604 13.6666 2.31795 15.0438 3.70414 14.4362L3.62384 14.253C2.40136 14.7889 1.14345 13.5743 1.6361 12.3338L1.45023 12.26Z" fill="#01090F"/>
<path d="M2.51366 12.0128L2.00606 13.291C1.84114 13.7063 2.26224 14.1129 2.67149 13.9335L4.07049 13.3202C4.14148 13.2891 4.20566 13.243 4.24821 13.1782C4.44985 12.8713 4.63348 12.2795 4.11858 11.7646C3.58776 11.2338 2.94116 11.5679 2.62236 11.8516C2.57321 11.8953 2.53794 11.9517 2.51366 12.0128Z" fill="#519AF4"/>
<path d="M2.00606 13.291L2.099 13.3279L2.00606 13.291ZM2.51366 12.0128L2.42072 11.9759L2.51366 12.0128ZM2.62236 11.8516L2.55589 11.7769L2.55589 11.7769L2.62236 11.8516ZM4.11858 11.7646L4.04787 11.8353V11.8353L4.11858 11.7646ZM4.24821 13.1782L4.33179 13.2331V13.2331L4.24821 13.1782ZM4.07049 13.3202L4.03035 13.2286L4.07049 13.3202ZM2.67149 13.9335L2.71164 14.0251H2.71164L2.67149 13.9335ZM2.099 13.3279L2.6066 12.0497L2.42072 11.9759L1.91312 13.2541L2.099 13.3279ZM2.68884 11.9263C2.83987 11.7919 3.0655 11.6489 3.31025 11.6008C3.54923 11.5538 3.80865 11.5961 4.04787 11.8353L4.18929 11.6939C3.8977 11.4023 3.5684 11.3462 3.27168 11.4045C2.98072 11.4617 2.72365 11.6276 2.55589 11.7769L2.68884 11.9263ZM4.04787 11.8353C4.28535 12.0728 4.35817 12.3227 4.35214 12.5467C4.34601 12.7744 4.258 12.9812 4.16464 13.1233L4.33179 13.2331C4.44007 13.0683 4.54469 12.8258 4.55206 12.5521C4.55953 12.2748 4.46671 11.9713 4.18929 11.6939L4.04787 11.8353ZM4.03035 13.2286L2.63134 13.8419L2.71164 14.0251L4.11064 13.4118L4.03035 13.2286ZM4.16464 13.1233C4.13558 13.1676 4.08911 13.2029 4.03035 13.2286L4.11064 13.4118C4.19385 13.3753 4.27574 13.3185 4.33179 13.2331L4.16464 13.1233ZM2.6066 12.0497C2.62653 11.9995 2.65388 11.9574 2.68884 11.9263L2.55589 11.7769C2.49254 11.8332 2.44935 11.9038 2.42072 11.9759L2.6066 12.0497ZM1.91312 13.2541C1.71521 13.7524 2.22054 14.2403 2.71164 14.0251L2.63134 13.8419C2.30394 13.9854 1.96706 13.6601 2.099 13.3279L1.91312 13.2541Z" fill="#01090F"/>
</g>
<defs>
<clipPath id="clip0_4116_73369">
<rect width="16" height="16" fill="white"/>
</clipPath>
</defs>
</svg>
