<svg width="16" height="16" viewBox="0 0 16 16" fill="none" xmlns="http://www.w3.org/2000/svg">
<path d="M15.8833 7.93172L15.8833 7.93172L15.8834 7.93318C16.0289 9.48507 15.2073 10.8395 13.8543 11.4229C13.7513 11.4488 13.5646 11.499 13.383 11.568C13.2898 11.6033 13.1958 11.6444 13.114 11.6907C13.0341 11.736 12.9576 11.791 12.9079 11.8573L12.9071 11.8583L11.9594 13.1552C11.9593 13.1553 11.9592 13.1555 11.9591 13.1556C11.8476 13.3036 11.62 13.3032 11.5111 13.1944C11.5077 13.1909 11.5039 13.1877 11.5 13.1848L9.95832 12.0409C9.79502 11.88 9.57354 11.7674 9.34387 11.7674H3.65322C1.61326 11.7674 -0.0364668 10.0681 0.108938 7.98108C0.254529 6.09091 1.90406 4.67935 3.80297 4.67935H12.2391C14.0882 4.67935 15.738 6.09113 15.8833 7.93172Z" fill="#FFA9C6" stroke="#01090F" stroke-width="0.2" stroke-miterlimit="10" stroke-linecap="round" stroke-linejoin="round"/>
<path d="M10.0424 9.12203H7.99578C7.92847 9.12203 7.85278 9.08736 7.79194 9.02652C7.7311 8.96568 7.69644 8.89 7.69644 8.82268C7.69644 8.75537 7.7311 8.67969 7.79194 8.61885C7.85278 8.558 7.92847 8.52334 7.99578 8.52334H10.0424C10.1097 8.52334 10.1854 8.558 10.2463 8.61885C10.3071 8.67969 10.3418 8.75537 10.3418 8.82268C10.3418 8.92743 10.3107 8.99949 10.265 9.04524C10.2192 9.091 10.1472 9.12203 10.0424 9.12203Z" fill="#FFC664" stroke="#01090F" stroke-width="0.2"/>
<path d="M12.6881 7.77462H7.99578C7.92847 7.77462 7.85278 7.73995 7.79194 7.67911C7.7311 7.61827 7.69644 7.54258 7.69644 7.47527C7.69644 7.40796 7.7311 7.33228 7.79194 7.27143C7.85278 7.21059 7.92847 7.17593 7.99578 7.17593H12.6881C12.7554 7.17593 12.8311 7.21059 12.8919 7.27143C12.9527 7.33228 12.9874 7.40796 12.9874 7.47527C12.9874 7.58002 12.9564 7.65207 12.9106 7.69783C12.8649 7.74359 12.7928 7.77462 12.6881 7.77462Z" fill="#FFC664" stroke="#01090F" stroke-width="0.2"/>
<path d="M6.57499 3.25051L6.59227 3.26887L6.61619 3.27684L6.74323 3.31919C7.43653 4.03066 7.43107 5.20246 6.72686 5.90667L4.03129 8.60224C3.87067 8.76286 3.63447 8.76286 3.47386 8.60224L0.778284 5.90667C0.0685668 5.19696 0.0685668 4.01232 0.778284 3.3026L0.828202 3.25269C1.58515 2.49574 2.90464 2.59542 3.46715 3.53293L3.48213 3.5579L3.50818 3.57093C3.56933 3.6015 3.63449 3.61892 3.69641 3.61892C3.75767 3.61892 3.82399 3.60141 3.8732 3.55219L3.88062 3.54478L3.88633 3.53598C4.50185 2.58904 5.8231 2.45163 6.57499 3.25051Z" fill="#FFC664" stroke="#01090F" stroke-width="0.2" stroke-miterlimit="10"/>
</svg>
