<svg width="16" height="16" viewBox="0 0 16 16" fill="none" xmlns="http://www.w3.org/2000/svg">
<path d="M3.11546 13.2668H8.71909C8.74947 13.2668 8.7782 13.2806 8.79718 13.3043L3.11546 13.2668ZM3.11546 13.2668V3.97773H3.11568L3.11525 3.97126L3.11525 3.97124L3.11524 3.97118L3.11524 3.97108L3.11523 3.97085L3.1151 3.96833L3.11469 3.95666C3.11441 3.94605 3.11423 3.92991 3.11467 3.90904C3.11554 3.86724 3.1189 3.80668 3.12893 3.73356C3.14904 3.5869 3.19566 3.39216 3.3009 3.19708C3.50726 2.81456 3.9498 2.41007 4.92507 2.38857H12.8883C12.6855 2.50635 12.4928 2.69445 12.3776 2.99703C12.3047 3.16838 12.2826 3.38057 12.2825 3.56092L12.2826 3.56328L12.3265 5.42675V14.332H12.3262L12.3267 14.3391L12.3267 14.3392L12.3267 14.3392L12.3267 14.3393L12.3267 14.3394L12.3268 14.3406L12.3271 14.3482C12.3273 14.3553 12.3274 14.3665 12.327 14.3812C12.3263 14.4108 12.3236 14.4544 12.3155 14.5085C12.2994 14.6168 12.2619 14.7659 12.1764 14.9267C12.008 15.2434 11.6459 15.6197 10.8555 15.8119C10.1914 15.8315 9.74046 15.687 9.43408 15.4694C9.12629 15.2507 8.95405 14.951 8.86147 14.6432C8.76857 14.3344 8.75692 14.0206 8.76926 13.7819C8.7754 13.663 8.78744 13.5638 8.79788 13.4947C8.80309 13.4601 8.8079 13.4331 8.81134 13.415L8.81538 13.3947L8.8164 13.3899L8.81663 13.3888L8.81665 13.3887C8.81666 13.3887 8.81666 13.3887 8.81666 13.3887L8.81667 13.3887L3.11546 13.2668Z" fill="#97DDE5" stroke="#01090F" stroke-width="0.2" stroke-miterlimit="10" stroke-linecap="round" stroke-linejoin="round"/>
<path d="M2.08433 15.4776C1.43876 15.0403 1.02098 14.2738 1.07314 13.4447H8.58427C8.58423 13.4451 8.58418 13.4454 8.58414 13.4458C8.57457 13.5199 8.56277 13.626 8.55677 13.753C8.54483 14.0063 8.55574 14.3469 8.65605 14.6865C8.75665 15.0272 8.94833 15.3701 9.29934 15.6196C9.46648 15.7384 9.6673 15.8343 9.90761 15.8991H3.41028C2.90456 15.8991 2.46442 15.752 2.08679 15.4793L2.08682 15.4793L2.08433 15.4776Z" fill="white" stroke="#01090F" stroke-width="0.2" stroke-miterlimit="10" stroke-linecap="round" stroke-linejoin="round"/>
<path d="M14.3017 2.76814C14.5718 3.13234 14.7968 3.85746 14.5373 5.30409H12.5026L12.4611 3.53828C12.4612 3.37191 12.482 3.20956 12.5422 3.04879C12.7598 2.49607 13.3126 2.38932 13.5718 2.36709H13.6837C13.6886 2.36829 13.6938 2.36943 13.6981 2.37037C13.6993 2.37063 13.7006 2.3709 13.7018 2.37118C13.7133 2.37368 13.7271 2.3767 13.744 2.38096C13.7811 2.39035 13.8325 2.40572 13.8921 2.43218C14.0108 2.48489 14.1641 2.58249 14.3017 2.76814Z" fill="#4AC7D3" stroke="#01090F" stroke-width="0.2" stroke-miterlimit="10" stroke-linecap="round" stroke-linejoin="round"/>
<path d="M2.08433 15.4776C1.43876 15.0403 1.02098 14.2738 1.07314 13.4447H8.58427C8.58423 13.4451 8.58418 13.4454 8.58414 13.4458C8.57457 13.5199 8.56277 13.626 8.55677 13.753C8.54483 14.0063 8.55574 14.3469 8.65605 14.6865C8.75665 15.0272 8.94833 15.3701 9.29934 15.6196C9.46648 15.7384 9.6673 15.8343 9.90761 15.8991H3.41028C2.90456 15.8991 2.46442 15.752 2.08679 15.4793L2.08682 15.4793L2.08433 15.4776Z" fill="#4AC7D3" stroke="#01090F" stroke-width="0.2" stroke-miterlimit="10" stroke-linecap="round" stroke-linejoin="round"/>
<path d="M11.0005 5.19566H4.17811C4.0359 5.19566 3.90518 5.06494 3.90518 4.92273C3.90518 4.78053 4.0359 4.6498 4.17811 4.6498H11.0005C11.1427 4.6498 11.2735 4.78053 11.2735 4.92273C11.2735 5.08307 11.1466 5.19566 11.0005 5.19566Z" fill="#FFC664" stroke="#01090F" stroke-width="0.2"/>
<path d="M11.0005 6.95006H4.17811C4.0359 6.95006 3.90518 6.81933 3.90518 6.67713C3.90518 6.53492 4.0359 6.4042 4.17811 6.4042H11.0005C11.1427 6.4042 11.2735 6.53492 11.2735 6.67713C11.2735 6.83746 11.1466 6.95006 11.0005 6.95006Z" fill="#FFC664" stroke="#01090F" stroke-width="0.2"/>
<path d="M11.0005 8.70445H4.17811C4.0359 8.70445 3.90518 8.57373 3.90518 8.43152C3.90518 8.28932 4.0359 8.15859 4.17811 8.15859H11.0005C11.1427 8.15859 11.2735 8.28932 11.2735 8.43152C11.2735 8.57373 11.1427 8.70445 11.0005 8.70445Z" fill="#FFC664" stroke="#01090F" stroke-width="0.2"/>
<path d="M11.0005 10.4586H4.17811C4.0359 10.4586 3.90518 10.3279 3.90518 10.1857C3.90518 10.0435 4.0359 9.91274 4.17811 9.91274H11.0005C11.1427 9.91274 11.2735 10.0435 11.2735 10.1857C11.2735 10.3279 11.1427 10.4586 11.0005 10.4586Z" fill="#FFC664" stroke="#01090F" stroke-width="0.2"/>
<path d="M11.0005 12.215H4.17811C4.0359 12.215 3.90518 12.0842 3.90518 11.942C3.90518 11.7998 4.0359 11.6691 4.17811 11.6691H11.0005C11.1427 11.6691 11.2735 11.7998 11.2735 11.942C11.2735 12.0842 11.1427 12.215 11.0005 12.215Z" fill="#FFC664" stroke="#01090F" stroke-width="0.2"/>
<path d="M13.7199 0.132231L13.7199 0.132279L13.7227 0.134368L14.6644 0.835196C14.7327 0.890797 14.7422 0.981247 14.6915 1.04465L14.6903 1.04615L14.312 1.53801L13.1335 0.649328L13.51 0.159827C13.5656 0.091036 13.6564 0.0813686 13.7199 0.132231Z" fill="#97DDE5" stroke="#01090F" stroke-width="0.2" stroke-miterlimit="10" stroke-linecap="round" stroke-linejoin="round"/>
<path d="M12.9503 0.893774L14.1288 1.78246L9.33598 8.15129L8.04189 8.65347L8.15784 7.26216L12.9503 0.893774Z" fill="#97DDE5" stroke="#01090F" stroke-width="0.2" stroke-miterlimit="10" stroke-linecap="round" stroke-linejoin="round"/>
<path d="M14.8039 0.923729C14.8502 0.956495 14.86 1.02112 14.8255 1.06613L9.33786 8.23205C9.32593 8.24762 9.30968 8.25935 9.29113 8.26576L8.3711 8.5837C8.27752 8.61605 8.19888 8.50729 8.25892 8.42855L14.2115 0.622372C14.2442 0.579545 14.3049 0.570275 14.3488 0.601405L14.8039 0.923729Z" fill="#FFC664" stroke="#01090F" stroke-width="0.2"/>
<line x1="12.9755" y1="0.69382" x2="14.3027" y2="1.69288" stroke="#01090F" stroke-width="0.5"/>
</svg>
