<svg width="16" height="16" viewBox="0 0 16 16" fill="none" xmlns="http://www.w3.org/2000/svg">
<g clip-path="url(#clip0_4116_73862)">
<path d="M14.1726 2.27989C14.3928 2.26207 14.5821 2.42639 14.5954 2.6469L15.136 11.5886C15.1493 11.8091 14.9816 12.0023 14.7614 12.0201L1.09322 13.1259C0.87303 13.1437 0.68372 12.9794 0.67039 12.7589L0.129845 3.8172C0.116515 3.59669 0.284212 3.40348 0.504406 3.38567L14.1726 2.27989Z" fill="#FB5D96" stroke="#01090F" stroke-width="0.2" stroke-miterlimit="10" stroke-linecap="round" stroke-linejoin="round"/>
<path d="M15.5001 3.99673C15.721 3.99673 15.9001 4.17581 15.9001 4.39673V13.3609C15.9001 13.5818 15.721 13.7609 15.5001 13.7609H1.79932C1.5784 13.7609 1.39932 13.5818 1.39932 13.3609V4.39673C1.39932 4.17581 1.5784 3.99673 1.79932 3.99673H15.5001Z" fill="#FFA9C6" stroke="#01090F" stroke-width="0.2" stroke-miterlimit="10" stroke-linecap="round" stroke-linejoin="round"/>
<path d="M11.1141 11.9363C11.7521 12.4116 12.2581 13.0385 12.586 13.7582H4.7465C5.01111 13.1505 5.4108 12.6091 5.91645 12.1751C6.45974 11.7088 7.10908 11.3803 7.80869 11.218C7.85165 11.208 7.88301 11.171 7.88587 11.127C7.88873 11.083 7.86241 11.0423 7.8211 11.0269C7.27544 10.8229 6.80693 10.4564 6.4798 9.97771C6.15268 9.49907 5.98296 8.93177 5.99383 8.35369L5.99384 8.35369V8.35181C5.99384 6.79803 7.18137 5.5458 8.62911 5.5458H8.78571H8.79814C9.16941 5.57002 9.5302 5.678 9.85301 5.86147C10.2892 6.11435 10.6498 6.47751 10.8982 6.9138C11.1467 7.3502 11.2739 7.84417 11.267 8.34525L11.2669 8.34525L11.267 8.34919C11.2818 8.92498 11.1169 9.49129 10.7948 9.97066C10.4728 10.45 10.0093 10.8191 9.46759 11.0272C9.4261 11.0431 9.40011 11.0846 9.4038 11.1289C9.40749 11.1731 9.43998 11.2097 9.48354 11.2185C9.91808 11.3069 10.3354 11.464 10.7196 11.6839L10.7196 11.6839L10.7212 11.6848C10.8578 11.7597 10.9891 11.8437 11.1141 11.9363Z" fill="#FFC664" stroke="#01090F" stroke-width="0.2" stroke-linecap="round" stroke-linejoin="round"/>
<path d="M12.5849 13.7586C12.257 13.039 11.7511 12.4121 11.1131 11.9368C10.988 11.8442 10.8567 11.7601 10.7201 11.6852L10.7185 11.6843L10.7185 11.6843C10.3343 11.4644 9.91694 11.3073 9.4824 11.219L9.14633 11.1507L9.46644 11.0276C10.0052 10.8205 10.4668 10.4542 10.7886 9.97828C11.1104 9.5024 11.277 8.93995 11.2659 8.36712L11.2658 8.3638L11.2659 8.3638C11.2728 7.86272 11.1455 7.36876 10.8971 6.93235C10.6487 6.49606 10.288 6.1329 9.85186 5.88002C9.52905 5.69655 9.16827 5.58858 8.797 5.56436H8.78759C8.76509 5.56573 8.74261 5.56742 8.72017 5.56942C8.81704 5.61049 8.91159 5.65701 9.00336 5.70878L9.00445 5.7094L9.00445 5.70941C9.4708 5.98032 9.85648 6.36923 10.122 6.83651C10.3873 7.30331 10.5232 7.83159 10.5158 8.36753C10.5272 8.98079 10.3485 9.58267 10.0039 10.0917C9.71561 10.5176 9.32291 10.8614 8.86497 11.0919C9.42149 11.2431 9.94355 11.5019 10.4007 11.8547C10.5288 11.9507 10.651 12.0543 10.7666 12.1648C11.128 12.5077 11.4328 12.9047 11.67 13.3415C11.6701 13.3417 11.6702 13.3419 11.6704 13.3421L11.5825 13.3898C11.6679 13.5417 11.7446 13.6982 11.8122 13.8586L12.5849 13.7586ZM12.5849 13.7586H11.878H12.5849Z" fill="#FB5D96" stroke="#01090F" stroke-width="0.2"/>
</g>
<defs>
<clipPath id="clip0_4116_73862">
<rect width="16" height="16" fill="white"/>
</clipPath>
</defs>
</svg>
